<svg width="213" height="414" viewBox="0 0 213 414" fill="none" xmlns="http://www.w3.org/2000/svg">
<mask id="mask0_1569_416" style="mask-type:luminance" maskUnits="userSpaceOnUse" x="212" y="157" width="1" height="2">
<path d="M212.9 157.691L212.521 158.3C212.654 158.096 212.783 157.884 212.9 157.676V157.691Z" fill="white"/>
</mask>
<g mask="url(#mask0_1569_416)">
<path d="M212.9 157.691L212.521 158.3L212.9 157.687" fill="#7E7E7E"/>
<path d="M212.9 157.687L212.521 158.3L212.9 157.672" fill="#7C7C7C"/>
</g>
<mask id="mask1_1569_416" style="mask-type:luminance" maskUnits="userSpaceOnUse" x="212" y="110" width="1" height="2">
<path d="M212.901 111.429L212.598 110.941C212.681 111.073 212.779 111.232 212.901 111.414V111.429Z" fill="white"/>
</mask>
<g mask="url(#mask1_1569_416)">
<path d="M212.901 111.429L212.598 110.941L212.901 111.414" fill="#7C7C7C"/>
</g>
<mask id="mask2_1569_416" style="mask-type:luminance" maskUnits="userSpaceOnUse" x="209" y="156" width="1" height="3">
<path d="M209.977 158.573L209.428 157.703V156.529H209.977V158.573Z" fill="white"/>
</mask>
<g mask="url(#mask2_1569_416)">
<path d="M209.977 158.573L209.428 157.702L209.977 158.565" fill="#7E7E7E"/>
<path d="M209.977 158.561L209.428 157.699L209.977 158.554V158.577" fill="#808080"/>
<path d="M209.977 158.539L209.428 157.684L209.977 158.524V158.558" fill="#838383"/>
<path d="M209.977 158.505L209.428 157.665V157.642L209.977 158.467V158.505Z" fill="#858585"/>
<path d="M209.977 158.467L209.428 157.642V157.623L209.977 158.429V158.474" fill="#878787"/>
<path d="M209.977 158.421L209.428 157.615V157.589L209.977 158.38V158.429" fill="#898989"/>
<path d="M209.977 158.38L209.428 157.597V157.566L209.977 158.323V158.38Z" fill="#8B8B8B"/>
<path d="M209.977 158.319L209.428 157.562V157.525L209.977 158.263V158.323" fill="#8D8D8D"/>
<path d="M209.977 158.259L209.428 157.521V157.483L209.977 158.191V158.259Z" fill="#8F8F8F"/>
<path d="M209.977 158.191L209.428 157.483V157.441L209.977 158.119V158.191Z" fill="#919191"/>
<path d="M209.977 158.119L209.428 157.441V157.396L209.977 158.039V158.119Z" fill="#949494"/>
<path d="M209.977 158.039L209.428 157.396V157.343L209.977 157.948V158.039Z" fill="#969696"/>
<path d="M209.977 157.948L209.428 157.343V157.286L209.977 157.846V157.948Z" fill="#989898"/>
<path d="M209.977 157.846L209.428 157.286V157.218L209.977 157.729V157.846Z" fill="#9A9A9A"/>
<path d="M209.977 157.729L209.428 157.218V157.135L209.977 157.585V157.729Z" fill="#9C9C9C"/>
<path d="M209.977 157.585L209.428 157.135V157.021L209.977 157.4V157.597" fill="#9E9E9E"/>
<path d="M209.977 157.388L209.428 157.01V156.518H209.977V157.377" fill="#A0A0A0"/>
</g>
<mask id="mask3_1569_416" style="mask-type:luminance" maskUnits="userSpaceOnUse" x="209" y="156" width="4" height="3">
<path d="M212.351 158.573H209.977V156.529H212.363L212.351 158.573Z" fill="white"/>
</mask>
<g mask="url(#mask3_1569_416)">
<path d="M212.351 158.38H209.977V158.361H212.363V158.38" fill="#A9A9A9"/>
<path d="M212.351 158.266H209.977V158.247H212.363V158.266" fill="#B6B6B6"/>
<path d="M212.351 158.247H209.977V158.225H212.363V158.247" fill="#B8B8B8"/>
<path d="M212.351 158.225H209.977V158.206H212.363V158.225" fill="#BABABA"/>
<path d="M212.351 158.206H209.977V158.183H212.363V158.206" fill="#BCBCBC"/>
<path d="M212.351 158.183H209.977V158.164H212.363V158.183" fill="#BEBEBE"/>
<path d="M212.351 158.164H209.977V158.141H212.363V158.164" fill="#C0C0C0"/>
<path d="M212.351 158.141H209.977V158.119H212.363V158.141" fill="#C3C3C3"/>
<path d="M212.351 158.119H209.977V158.096H212.363V158.119" fill="#C5C5C5"/>
<path d="M212.351 158.096H209.977V158.07H212.363V158.096" fill="#C7C7C7"/>
<path d="M212.351 158.07H209.977V158.047H212.363V158.07" fill="#C9C9C9"/>
<path d="M212.351 158.047H209.977V158.02H212.363V158.047" fill="#CBCBCB"/>
<path d="M212.351 158.02H209.977V158.001H212.363V158.028" fill="#CDCDCD"/>
<path d="M212.351 158.001H209.977V157.975H212.363V158.001" fill="#CFCFCF"/>
<path d="M212.351 157.967H209.977V157.937H212.363V157.967" fill="#D2D2D2"/>
<path d="M212.351 157.937H209.977V157.911H212.363V157.937" fill="#D4D4D4"/>
<path d="M212.351 157.911H209.977V157.88H212.363V157.911" fill="#D6D6D6"/>
<path d="M212.351 157.88H209.977V157.85H212.363V157.88" fill="#D8D8D8"/>
<path d="M212.351 157.85H209.977V157.824H212.363V157.85" fill="#DADADA"/>
<path d="M212.351 157.824H209.977V157.793H212.363V157.824" fill="#DCDCDC"/>
<path d="M212.351 157.793H209.977V157.763H212.363V157.793" fill="#DEDEDE"/>
<path d="M212.351 157.763H209.977V157.733H212.363V157.763" fill="#E0E0E0"/>
<path d="M212.351 157.733H209.977V157.706H212.363V157.733" fill="#E3E3E3"/>
<path d="M212.351 157.706H209.977V157.68H212.363V157.706" fill="#E5E5E5"/>
<path d="M212.351 157.68H209.977V157.653H212.363V157.68" fill="#E7E7E7"/>
<path d="M212.351 157.653H209.977V157.623H212.363V157.65" fill="#E9E9E9"/>
<path d="M212.351 157.623H209.977V157.604H212.363V157.623" fill="#EDEDED"/>
<path d="M212.351 157.566H209.977V157.547H212.363V157.566" fill="#F2F2F2"/>
<path d="M212.351 157.547H209.977V157.525H212.363V157.547" fill="#F4F4F4"/>
<path d="M212.351 157.506H209.977V157.487H212.363V157.506" fill="#F5F5F5"/>
<path d="M212.351 156.866H209.977V156.738H212.363V156.866" fill="#FBFBFB"/>
<path d="M212.351 156.722H209.977V156.696H212.363V156.722" fill="#FBFBFB"/>
<path d="M212.351 156.662H209.977V156.643H212.363V156.662" fill="#FBFBFB"/>
<path d="M212.351 156.609H209.977V156.59H212.363V156.609" fill="#FBFBFB"/>
<path d="M212.351 156.575H209.977V156.556H212.363V156.575" fill="#FBFBFB"/>
</g>
<mask id="mask4_1569_416" style="mask-type:luminance" maskUnits="userSpaceOnUse" x="212" y="156" width="1" height="3">
<path d="M212.901 157.703L212.352 158.573V156.529H212.901V157.703Z" fill="white"/>
</mask>
<g mask="url(#mask4_1569_416)">
<path d="M212.901 157.703L212.352 158.573L212.901 157.71" fill="#7C7C7C"/>
<path d="M212.901 157.699L212.352 158.562V158.527L212.901 157.676V157.699Z" fill="#7E7E7E"/>
<path d="M212.901 157.676L212.352 158.527V158.482L212.901 157.65V157.676Z" fill="#808080"/>
<path d="M212.901 157.65L212.352 158.482V158.429L212.901 157.619V157.65Z" fill="#838383"/>
<path d="M212.901 157.623L212.352 158.433V158.38L212.901 157.597V157.623Z" fill="#858585"/>
<path d="M212.901 157.585L212.352 158.369V158.304L212.901 157.547V157.585Z" fill="#878787"/>
<path d="M212.901 157.547L212.352 158.304V158.228L212.901 157.506V157.547Z" fill="#898989"/>
<path d="M212.901 157.506L212.352 158.229V158.149L212.901 157.46V157.506Z" fill="#8B8B8B"/>
<path d="M212.901 157.46L212.352 158.149V158.062L212.901 157.407V157.46Z" fill="#8D8D8D"/>
<path d="M212.901 157.407L212.352 158.062V157.96L212.901 157.351V157.407Z" fill="#8F8F8F"/>
<path d="M212.901 157.351L212.352 157.96V157.846L212.901 157.286V157.351Z" fill="#919191"/>
<path d="M212.901 157.286L212.352 157.846V157.71L212.901 157.207V157.286Z" fill="#949494"/>
<path d="M212.901 157.207L212.352 157.71V157.54L212.901 157.108V157.207Z" fill="#969696"/>
<path d="M212.901 157.108L212.352 157.54V157.286L212.901 156.965V157.108Z" fill="#989898"/>
<path d="M212.901 156.965L212.352 157.286V156.575L212.901 156.556V156.965Z" fill="#9A9A9A"/>
<path d="M212.901 156.556L212.352 156.575V156.529H212.901V156.556Z" fill="#989898"/>
</g>
<path d="M209.969 112.576H209.42V156.529H209.969V112.576Z" fill="#B4B4B4"/>
<mask id="mask5_1569_416" style="mask-type:luminance" maskUnits="userSpaceOnUse" x="209" y="110" width="1" height="3">
<path d="M209.977 112.591H209.428V111.418L209.977 110.547V112.591Z" fill="white"/>
</mask>
<g mask="url(#mask5_1569_416)">
<path d="M209.977 112.591H209.428V112.553L209.977 112.523V112.591Z" fill="#A0A0A0"/>
<path d="M209.977 112.508L209.428 112.538V112.409L209.977 112.288V112.508Z" fill="#9E9E9E"/>
<path d="M209.977 112.288L209.428 112.409V112.315L209.977 112.118V112.288Z" fill="#9C9C9C"/>
<path d="M209.977 112.118L209.428 112.315V112.231L209.977 111.974V112.118Z" fill="#9A9A9A"/>
<path d="M209.977 111.974L209.428 112.231V112.156L209.977 111.834V111.959" fill="#989898"/>
<path d="M209.977 111.834L209.428 112.141V112.076L209.977 111.717V111.834Z" fill="#969696"/>
<path d="M209.977 111.732L209.428 112.091V112.027L209.977 111.622V111.732Z" fill="#949494"/>
<path d="M209.977 111.622L209.428 112.027V111.966L209.977 111.516V111.622Z" fill="#919191"/>
<path d="M209.977 111.516L209.428 111.966V111.91L209.977 111.418V111.516Z" fill="#8F8F8F"/>
<path d="M209.977 111.418L209.428 111.91V111.857L209.977 111.323V111.418Z" fill="#8D8D8D"/>
<path d="M209.977 111.323L209.428 111.857V111.804L209.977 111.229V111.323Z" fill="#8B8B8B"/>
<path d="M209.977 111.229L209.428 111.804V111.751L209.977 111.138V111.229Z" fill="#898989"/>
<path d="M209.977 111.138L209.428 111.751V111.698L209.977 111.051V111.138Z" fill="#878787"/>
<path d="M209.977 111.051L209.428 111.698V111.649L209.977 110.96V111.051Z" fill="#858585"/>
<path d="M209.977 110.96L209.428 111.649V111.599L209.977 110.873V110.96Z" fill="#838383"/>
<path d="M209.977 110.873L209.428 111.599V111.546L209.977 110.79V110.88" fill="#808080"/>
<path d="M209.977 110.782L209.428 111.539V111.486L209.977 110.699V110.79" fill="#7E7E7E"/>
<path d="M209.977 110.699L209.428 111.501V111.41L209.977 110.54V110.699Z" fill="#7C7C7C"/>
</g>
<path d="M212.901 112.576H212.352V156.529H212.901V112.576Z" fill="#ACACAC"/>
<path d="M212.351 112.576H209.965V156.529H212.351V112.576Z" fill="#EFEFEF"/>
<mask id="mask6_1569_416" style="mask-type:luminance" maskUnits="userSpaceOnUse" x="212" y="110" width="1" height="3">
<path d="M212.901 112.591H212.352V110.547L212.901 111.418V112.591Z" fill="white"/>
</mask>
<g mask="url(#mask6_1569_416)">
<path d="M212.901 112.591H212.352V112.352L212.901 112.455V112.591Z" fill="#989898"/>
<path d="M212.901 112.439L212.352 112.337V112.141L212.901 112.326V112.439Z" fill="#969696"/>
<path d="M212.901 112.326L212.352 112.141V111.978L212.901 112.231V112.326Z" fill="#949494"/>
<path d="M212.901 112.231L212.352 111.978V111.834L212.901 112.148V112.231Z" fill="#919191"/>
<path d="M212.901 112.148L212.352 111.834V111.702L212.901 112.08V112.156" fill="#8F8F8F"/>
<path d="M212.901 112.072L212.352 111.694V111.569L212.901 111.997V112.065" fill="#8D8D8D"/>
<path d="M212.901 112.004L212.352 111.577V111.456L212.901 111.932V112" fill="#8B8B8B"/>
<path d="M212.901 111.936L212.352 111.459V111.35L212.901 111.872V111.936Z" fill="#898989"/>
<path d="M212.901 111.872L212.352 111.35V111.24L212.901 111.808V111.872Z" fill="#878787"/>
<path d="M212.901 111.807L212.352 111.24V111.13L212.901 111.743V111.807Z" fill="#858585"/>
<path d="M212.901 111.743L212.352 111.13V111.02L212.901 111.683V111.743Z" fill="#838383"/>
<path d="M212.901 111.683L212.352 111.02V110.907L212.901 111.618V111.683Z" fill="#808080"/>
<path d="M212.901 111.618L212.352 110.907V110.786L212.901 111.543V111.615" fill="#7E7E7E"/>
<path d="M212.901 111.546L212.352 110.79V110.536L212.901 111.406V111.55" fill="#7C7C7C"/>
</g>
<mask id="mask7_1569_416" style="mask-type:luminance" maskUnits="userSpaceOnUse" x="209" y="110" width="4" height="3">
<path d="M212.351 112.591H209.977V110.547H212.363L212.351 112.591Z" fill="white"/>
</mask>
<g mask="url(#mask7_1569_416)">
<path d="M212.351 112.057H209.977V112.038H212.363V112.057" fill="#EDEDED"/>
<path d="M212.351 111.925H209.977V111.898H212.363V111.925" fill="#DCDCDC"/>
<path d="M212.351 111.898H209.977V111.876H212.363V111.898" fill="#DADADA"/>
<path d="M212.351 111.876H209.977V111.853H212.363V111.876" fill="#D8D8D8"/>
<path d="M212.351 111.853H209.977V111.834H212.363V111.857" fill="#D6D6D6"/>
<path d="M212.351 111.834H209.977V111.811H212.363V111.834" fill="#D4D4D4"/>
<path d="M212.351 111.807H209.977V111.785H212.363V111.807" fill="#D2D2D2"/>
<path d="M212.351 111.785H209.977V111.758H212.363V111.785" fill="#CFCFCF"/>
<path d="M212.351 111.758H209.977V111.728H212.363V111.758" fill="#CDCDCD"/>
<path d="M212.351 111.728H209.977V111.698H212.363V111.728" fill="#CBCBCB"/>
<path d="M212.351 111.698H209.977V111.671H212.363V111.698" fill="#C9C9C9"/>
<path d="M212.351 111.671H209.977V111.645H212.363V111.671" fill="#C7C7C7"/>
<path d="M212.351 111.645H209.977V111.615H212.363V111.645" fill="#C5C5C5"/>
<path d="M212.351 111.615H209.977V111.584H212.363V111.615" fill="#C3C3C3"/>
<path d="M212.351 111.584H209.977V111.554H212.363V111.584" fill="#C0C0C0"/>
<path d="M212.351 111.554H209.977V111.524H212.363V111.554" fill="#BEBEBE"/>
<path d="M212.351 111.524H209.977V111.493H212.363V111.524" fill="#BCBCBC"/>
<path d="M212.351 111.493H209.977V111.456H212.363V111.486" fill="#BABABA"/>
<path d="M212.351 111.456H209.977V111.425H212.363V111.456" fill="#B6B6B6"/>
<path d="M212.351 111.406H209.977V111.376H212.363V111.406" fill="#B4B4B4"/>
<path d="M212.351 111.376H209.977V111.35H212.363V111.376" fill="#B2B2B2"/>
<path d="M212.351 111.35H209.977V111.319H212.363V111.35" fill="#AFAFAF"/>
<path d="M212.351 111.319H209.977V111.289H212.363V111.319" fill="#ADADAD"/>
<path d="M212.351 111.289H209.977V111.263H212.363V111.289" fill="#ABABAB"/>
<path d="M212.351 111.263H209.977V111.232H212.363V111.263" fill="#A9A9A9"/>
<path d="M212.351 111.232H209.977V111.206H212.363V111.232" fill="#A7A7A7"/>
<path d="M212.351 111.206H209.977V111.176H212.363V111.206" fill="#A5A5A5"/>
<path d="M212.351 111.176H209.977V111.149H212.363V111.176" fill="#A3A3A3"/>
<path d="M212.351 111.149H209.977V111.123H212.363V111.149" fill="#A0A0A0"/>
<path d="M212.351 111.123H209.977V111.077H212.363V111.107" fill="#9E9E9E"/>
<path d="M212.351 111.077H209.977V111.051H212.363V111.077" fill="#9A9A9A"/>
<path d="M212.351 111.039H209.977V111.013H212.363V111.039" fill="#989898"/>
<path d="M212.351 111.013H209.977V110.983H212.363V111.013" fill="#969696"/>
<path d="M212.351 110.983H209.977V110.956H212.363V110.983" fill="#949494"/>
<path d="M212.351 110.956H209.977V110.926H212.363V110.956" fill="#919191"/>
<path d="M212.351 110.926H209.977V110.899H212.363V110.926" fill="#8F8F8F"/>
<path d="M212.351 110.899H209.977V110.869H212.363V110.899" fill="#8D8D8D"/>
<path d="M212.351 110.869H209.977V110.843H212.363V110.869" fill="#8B8B8B"/>
<path d="M212.351 110.843H209.977V110.812H212.363V110.843" fill="#898989"/>
<path d="M212.351 110.812H209.977V110.782H212.363V110.812" fill="#878787"/>
<path d="M212.351 110.782H209.977V110.752H212.363V110.782" fill="#858585"/>
<path d="M212.351 110.752H209.977V110.718H212.363V110.752" fill="#838383"/>
<path d="M212.351 110.718H209.977V110.699H212.363V110.733" fill="#808080"/>
<path d="M212.351 110.699H209.977V110.657H212.363V110.699" fill="#7E7E7E"/>
<path d="M212.351 110.642H209.977V110.532H212.363V110.642" fill="#7C7C7C"/>
</g>
<mask id="mask8_1569_416" style="mask-type:luminance" maskUnits="userSpaceOnUse" x="0" y="141" width="1" height="2">
<path d="M0 141.646V141.173H0.545429V142.535L0 141.665V141.646Z" fill="white"/>
</mask>
<g mask="url(#mask8_1569_416)">
<path d="M0.545429 142.535L0 141.665L0.545429 142.539" fill="#7E7E7E"/>
<path d="M0.545429 142.524L0 141.65L0.545429 142.516" fill="#7C7C7C"/>
<path d="M0.549192 142.52L0 141.654L0.549192 142.52Z" fill="#7E7E7E"/>
<path d="M0.545429 142.52L0 141.654V141.627L0.545429 142.482V142.52Z" fill="#808080"/>
<path d="M0.545429 142.486L0 141.631V141.604L0.545429 142.437V142.486Z" fill="#838383"/>
<path d="M0.545429 142.433L0 141.601V141.57L0.545429 142.376V142.433Z" fill="#858585"/>
<path d="M0.545429 142.376L0 141.57V141.54L0.545429 142.297V142.358" fill="#878787"/>
<path d="M0.545429 142.316L0 141.559V141.529L0.545429 142.286V142.346" fill="#898989"/>
<path d="M0.545429 142.255L0 141.499V141.468L0.545429 142.183V142.244" fill="#8B8B8B"/>
<path d="M0.545429 142.195L0 141.48V141.453L0.545429 142.13V142.195Z" fill="#8D8D8D"/>
<path d="M0.545429 142.13L0 141.453V141.427L0.545429 142.066V142.13Z" fill="#8F8F8F"/>
<path d="M0.545429 142.066L0 141.427V141.4L0.545429 142.002V142.066Z" fill="#919191"/>
<path d="M0.545429 142.002L0 141.4V141.374L0.545429 141.937V142.002Z" fill="#949494"/>
<path d="M0.545429 141.937L0 141.374V141.351L0.545429 141.873V141.937Z" fill="#969696"/>
<path d="M0.545429 141.873L0 141.351V141.328L0.545429 141.801V141.873Z" fill="#989898"/>
<path d="M0.545429 141.801L0 141.328V141.306L0.545429 141.729V141.801Z" fill="#9A9A9A"/>
<path d="M0.545429 141.729L0 141.306V141.279L0.545429 141.657V141.729Z" fill="#9C9C9C"/>
<path d="M0.545429 141.65L0 141.271V141.245L0.545429 141.548V141.642" fill="#9E9E9E"/>
<path d="M0.545429 141.555L0 141.253V141.211L0.545429 141.377V141.555Z" fill="#A0A0A0"/>
<path d="M0.545429 141.377L0 141.211L0.545429 141.362V141.381" fill="#A3A3A3"/>
<path d="M0.545429 141.351L0 141.2V141.165H0.545429V141.351Z" fill="#A0A0A0"/>
</g>
<mask id="mask9_1569_416" style="mask-type:luminance" maskUnits="userSpaceOnUse" x="2" y="141" width="2" height="2">
<path d="M3.17761 142.108L3.47305 141.635V141.654L2.92383 142.524V141.162H3.47305V141.642C3.40866 141.767 3.32154 141.9 3.17761 142.108Z" fill="white"/>
</mask>
<g mask="url(#mask9_1569_416)">
<path d="M3.48086 141.665L2.93164 142.535L3.48086 141.669" fill="#7C7C7C"/>
<path d="M3.48086 141.654L2.93164 142.52V142.463L3.48086 141.616V141.654Z" fill="#7E7E7E"/>
<path d="M3.48086 141.616L2.93164 142.463V142.395L3.48086 141.578V141.616Z" fill="#808080"/>
<path d="M3.48086 141.578L2.93164 142.395V142.323L3.48086 141.54V141.578Z" fill="#838383"/>
<path d="M3.48086 141.54L2.93164 142.323V142.252L3.48086 141.495V141.529" fill="#858585"/>
<path d="M3.48086 141.506L2.93164 142.263V142.187L3.48086 141.483V141.517" fill="#878787"/>
<path d="M3.48086 141.472L2.93164 142.176V142.108L3.48086 141.445V141.476" fill="#898989"/>
<path d="M3.48086 141.442L2.93164 142.104V142.028L3.48086 141.411V141.442Z" fill="#8B8B8B"/>
<path d="M3.48086 141.411L2.93164 142.028V141.956L3.48086 141.381V141.411Z" fill="#8D8D8D"/>
<path d="M3.48086 141.381L2.93164 141.956V141.881L3.48086 141.355V141.381Z" fill="#8F8F8F"/>
<path d="M3.48086 141.351L2.93164 141.877V141.797L3.48086 141.324V141.351Z" fill="#919191"/>
<path d="M3.48086 141.328L2.93164 141.801V141.729L3.48086 141.309V141.336" fill="#949494"/>
<path d="M3.48086 141.302L2.93164 141.722V141.627L3.48086 141.271V141.302Z" fill="#969696"/>
<path d="M3.48086 141.271L2.93164 141.627V141.51L3.48086 141.241V141.271Z" fill="#989898"/>
<path d="M3.48086 141.241L2.93164 141.51V141.211L3.48086 141.177V141.241Z" fill="#9A9A9A"/>
<path d="M3.48086 141.177L2.93164 141.211V141.173H3.48086" fill="#989898"/>
</g>
<mask id="mask10_1569_416" style="mask-type:luminance" maskUnits="userSpaceOnUse" x="0" y="141" width="3" height="2">
<path d="M2.93104 142.535H0.544922V141.173H2.93104V142.535Z" fill="white"/>
</mask>
<g mask="url(#mask10_1569_416)">
<path d="M2.93497 142.535H0.548828V142.532H2.93497V142.535Z" fill="#808080"/>
<path d="M2.93104 142.38H0.544922V142.361H2.93104V142.38Z" fill="#9C9C9C"/>
<path d="M2.93104 142.327H0.544922V142.308H2.93104V142.327Z" fill="#A3A3A3"/>
<path d="M2.93104 142.24H0.544922V142.221H2.93104V142.24Z" fill="#ADADAD"/>
<path d="M2.93104 142.187H0.544922V142.168H2.93104V142.187Z" fill="#B4B4B4"/>
<path d="M2.93104 142.149H0.544922V142.13H2.93104V142.149Z" fill="#B8B8B8"/>
<path d="M2.93104 142.108H0.544922V142.089H2.93104V142.108Z" fill="#BEBEBE"/>
<path d="M2.93104 142.055H0.544922V142.036H2.93104V142.055Z" fill="#C3C3C3"/>
<path d="M2.93104 141.998H0.544922V141.979H2.93104V141.998Z" fill="#C9C9C9"/>
<path d="M2.93104 141.96H0.544922V141.941H2.93104V141.96Z" fill="#CDCDCD"/>
<path d="M2.93104 141.903H0.544922V141.881H2.93104V141.903Z" fill="#D4D4D4"/>
<path d="M2.93104 141.862H0.544922V141.843H2.93104V141.862Z" fill="#D8D8D8"/>
<path d="M2.93104 141.805H0.544922V141.786H2.93104V141.805Z" fill="#DEDEDE"/>
<path d="M2.93104 141.767H0.544922V141.748H2.93104V141.767Z" fill="#E3E3E3"/>
</g>
<path d="M0.549192 111.895H0V141.173H0.549192V111.895Z" fill="#B4B4B4"/>
<mask id="mask11_1569_416" style="mask-type:luminance" maskUnits="userSpaceOnUse" x="0" y="110" width="1" height="2">
<path d="M0 111.414L0.378753 110.812C0.249977 111.013 0.124989 111.217 0 111.418L0.545429 110.547V111.91H0V111.414Z" fill="white"/>
</mask>
<g mask="url(#mask11_1569_416)">
<path d="M0.545429 111.895H0L0.545429 111.857V111.902" fill="#A0A0A0"/>
<path d="M0.545429 111.834L0 111.872L0.545429 111.766V111.834Z" fill="#9E9E9E"/>
<path d="M0.545429 111.766L0 111.872L0.545429 111.713V111.781" fill="#9C9C9C"/>
<path d="M0.545429 111.698L0 111.857L0.545429 111.649V111.709" fill="#9A9A9A"/>
<path d="M0.545429 111.637L0 111.845L0.545429 111.599V111.652" fill="#989898"/>
<path d="M0.545429 111.584L0 111.83L0.545429 111.539V111.596" fill="#969696"/>
<path d="M0.545429 111.527L0 111.819L0.545429 111.49V111.543" fill="#949494"/>
<path d="M0.545429 111.475L0 111.804L0.545429 111.425V111.478" fill="#919191"/>
<path d="M0.545429 111.422L0 111.8L0.545429 111.395V111.452" fill="#8F8F8F"/>
<path d="M0.545429 111.365L0 111.77L0.545429 111.323V111.38" fill="#8D8D8D"/>
<path d="M0.545429 111.308L0 111.755L0.545429 111.27V111.327" fill="#8B8B8B"/>
<path d="M0.545429 111.251L0 111.736V111.713L0.545429 111.187V111.251Z" fill="#898989"/>
<path d="M0.545429 111.187L0 111.713V111.686L0.545429 111.119V111.187Z" fill="#878787"/>
<path d="M0.545429 111.119L0 111.686V111.66L0.545429 111.047V111.119Z" fill="#858585"/>
<path d="M0.545429 111.047L0 111.66V111.626L0.545429 110.964V111.047Z" fill="#838383"/>
<path d="M0.545429 110.964L0 111.626V111.584L0.545429 110.873V110.964Z" fill="#808080"/>
<path d="M0.545429 110.873L0 111.584V111.531L0.545429 110.774V110.888" fill="#7E7E7E"/>
<path d="M0.545429 110.759L0 111.516V111.387L0.545429 110.517V110.744" fill="#7C7C7C"/>
</g>
<path d="M3.48474 111.895H2.93555V141.173H3.48474V111.895Z" fill="#ACACAC"/>
<path d="M2.93497 111.895H0.548828V141.173H2.93497V111.895Z" fill="#EFEFEF"/>
<mask id="mask12_1569_416" style="mask-type:luminance" maskUnits="userSpaceOnUse" x="2" y="110" width="2" height="2">
<path d="M3.0982 110.812L3.47695 111.414V111.895H2.92773V110.532L3.47695 111.403L3.0982 110.812Z" fill="white"/>
</mask>
<g mask="url(#mask12_1569_416)">
<path d="M3.48086 111.895H2.93164V111.789L3.48086 111.883" fill="#989898"/>
<path d="M3.48086 111.876L2.93164 111.781V111.705L3.48086 111.86" fill="#969696"/>
<path d="M3.48086 111.86L2.93164 111.705V111.641L3.48086 111.845" fill="#949494"/>
<path d="M3.48086 111.834L2.93164 111.63V111.565L3.48086 111.819" fill="#919191"/>
<path d="M3.48086 111.834L2.93164 111.58V111.52L3.48086 111.819" fill="#8F8F8F"/>
<path d="M3.48086 111.834L2.93164 111.535V111.456L3.48086 111.8V111.834Z" fill="#8D8D8D"/>
<path d="M3.48086 111.796L2.93164 111.452V111.391L3.48086 111.77" fill="#8B8B8B"/>
<path d="M3.48086 111.777L2.93164 111.399V111.331L3.48086 111.766V111.785" fill="#898989"/>
<path d="M3.48086 111.758L2.93164 111.323V111.255L3.48086 111.736V111.758Z" fill="#878787"/>
<path d="M3.48086 111.736L2.93164 111.255V111.179L3.48086 111.709V111.736Z" fill="#858585"/>
<path d="M3.48086 111.709L2.93164 111.179V111.096L3.48086 111.679V111.709Z" fill="#838383"/>
<path d="M3.48086 111.679L2.93164 111.096V110.998L3.48086 111.641V111.679Z" fill="#808080"/>
<path d="M3.48086 111.641L2.93164 110.998V110.873L3.48086 111.588V111.641Z" fill="#7E7E7E"/>
<path d="M3.48086 111.588L2.93164 110.873V110.532L3.48086 111.403V111.588Z" fill="#7C7C7C"/>
</g>
<mask id="mask13_1569_416" style="mask-type:luminance" maskUnits="userSpaceOnUse" x="0" y="110" width="3" height="2">
<path d="M2.93104 111.895H0.544922V110.532H2.93104V111.895Z" fill="white"/>
</mask>
<g mask="url(#mask13_1569_416)">
<path d="M2.93497 111.895H0.548828V111.891H2.93497V111.895Z" fill="#FAFAFA"/>
<path d="M2.93497 111.879H0.548828V111.872H2.93497V111.879Z" fill="#FAFAFA"/>
<path d="M2.93497 111.868H0.548828V111.864H2.93497V111.868Z" fill="#FAFAFA"/>
<path d="M2.93497 111.861H0.548828V111.857H2.93497V111.861Z" fill="#FAFAFA"/>
<path d="M2.93497 111.845H0.548828V111.842H2.93497V111.845Z" fill="#FAFAFA"/>
<path d="M2.93497 111.834H0.548828V111.83H2.93497V111.834Z" fill="#F9F9F9"/>
<path d="M2.93497 111.819H0.548828V111.815H2.93497V111.819Z" fill="#F9F9F9"/>
<path d="M2.93497 111.811H0.548828V111.808H2.93497V111.811Z" fill="#F9F9F9"/>
<path d="M2.93497 111.808H0.548828V111.804H2.93497V111.808Z" fill="#F9F9F9"/>
<path d="M2.93497 111.8H0.548828V111.792H2.93497V111.8Z" fill="#F9F9F9"/>
<path d="M2.93104 111.387H0.544922V111.369H2.93104V111.387Z" fill="#BCBCBC"/>
<path d="M2.93104 111.353H0.544922V111.334H2.93104V111.353Z" fill="#B8B8B8"/>
<path d="M2.93104 111.3H0.544922V111.281H2.93104V111.3Z" fill="#B2B2B2"/>
<path d="M2.93104 111.247H0.544922V111.229H2.93104V111.247Z" fill="#ABABAB"/>
<path d="M2.93104 111.21H0.544922V111.191H2.93104V111.21Z" fill="#A7A7A7"/>
<path d="M2.93104 111.153H0.544922V111.13H2.93104V111.153Z" fill="#A0A0A0"/>
<path d="M2.93104 111.111H0.544922V111.077H2.93104V111.096" fill="#9C9C9C"/>
<path d="M2.93104 111.077H0.544922V111.054H2.93104V111.077Z" fill="#989898"/>
<path d="M2.93104 111.047H0.544922V111.024H2.93104V111.047Z" fill="#969696"/>
<path d="M2.93104 111.024H0.544922V111.001H2.93104V111.024Z" fill="#949494"/>
<path d="M2.93104 111.001H0.544922V110.979H2.93104V111.001Z" fill="#919191"/>
<path d="M2.93104 110.979H0.544922V110.952H2.93104V110.979Z" fill="#8F8F8F"/>
<path d="M2.93104 110.952H0.544922V110.93H2.93104V110.952Z" fill="#8D8D8D"/>
<path d="M2.93104 110.93H0.544922V110.899H2.93104V110.93Z" fill="#8B8B8B"/>
<path d="M2.93104 110.899H0.544922V110.873H2.93104V110.899Z" fill="#898989"/>
<path d="M2.93104 110.873H0.544922V110.843H2.93104V110.873Z" fill="#878787"/>
<path d="M2.93104 110.843H0.544922V110.808H2.93104V110.843Z" fill="#858585"/>
<path d="M2.93104 110.808H0.544922V110.774H2.93104V110.808Z" fill="#838383"/>
<path d="M2.93104 110.774H0.544922V110.733H2.93104V110.774Z" fill="#808080"/>
<path d="M2.93104 110.733H0.544922V110.699H2.93104V110.748" fill="#7E7E7E"/>
<path d="M2.93104 110.699H0.544922V110.547H2.93104V110.699Z" fill="#7C7C7C"/>
</g>
<mask id="mask14_1569_416" style="mask-type:luminance" maskUnits="userSpaceOnUse" x="4" y="78" width="1" height="1">
<path d="M4.24613 78.3399C4.19796 78.2847 4.13258 78.2474 4.06055 78.2339H4.24613V78.3399Z" fill="white"/>
</mask>
<g mask="url(#mask14_1569_416)">
<path d="M4.24613 78.3399L4.06055 78.1582V78.2339H4.24613V78.3399Z" fill="#7C7C7C"/>
</g>
<mask id="mask15_1569_416" style="mask-type:luminance" maskUnits="userSpaceOnUse" x="0" y="78" width="1" height="1">
<path d="M0.947419 78.2339C0.913331 78.2339 0.867888 78.2339 0.765625 78.3399V78.2339H0.947419Z" fill="white"/>
</mask>
<g mask="url(#mask15_1569_416)">
<path d="M0.947419 78.1544L0.765625 78.3361V78.2301H0.947419V78.1544Z" fill="#7C7C7C"/>
</g>
<mask id="mask16_1569_416" style="mask-type:luminance" maskUnits="userSpaceOnUse" x="4" y="97" width="1" height="1">
<path d="M4.06055 97.8324C4.09463 97.8324 4.14387 97.8324 4.24613 97.7227V97.8324H4.06055Z" fill="white"/>
</mask>
<g mask="url(#mask16_1569_416)">
<path d="M4.24613 97.8324H4.06055V97.9043L4.24613 97.7227V97.8324Z" fill="#7C7C7C"/>
</g>
<mask id="mask17_1569_416" style="mask-type:luminance" maskUnits="userSpaceOnUse" x="0" y="97" width="1" height="1">
<path d="M0.765625 97.7151C0.810987 97.7724 0.875551 97.8113 0.947419 97.8248H0.765625V97.7151Z" fill="white"/>
</mask>
<g mask="url(#mask17_1569_416)">
<path d="M0.947419 97.8324H0.765625V97.7226L0.947419 97.9043V97.8324Z" fill="#7C7C7C"/>
</g>
<mask id="mask18_1569_416" style="mask-type:luminance" maskUnits="userSpaceOnUse" x="0" y="97" width="2" height="2">
<path d="M0.765625 97.8513V97.7037C0.811075 97.7491 0.886833 97.8248 0.962584 97.8248H1.31101V98.733L0.765625 97.8664V97.8513Z" fill="white"/>
</mask>
<g mask="url(#mask18_1569_416)">
<path d="M1.31101 98.733L0.765625 97.8665L1.31101 98.7406" fill="#7E7E7E"/>
<path d="M1.31103 98.7293L0.765625 97.8551L1.31103 98.7255V98.7293Z" fill="#7C7C7C"/>
<path d="M1.31101 98.7255L0.765625 97.8551L1.31101 98.7217" fill="#7E7E7E"/>
<path d="M1.31101 98.7141L0.765625 97.8475V97.8097L1.31101 98.6574V98.7141Z" fill="#808080"/>
<path d="M1.31101 98.6574L0.765625 97.8097V97.7756L1.31101 98.5893V98.6574Z" fill="#838383"/>
<path d="M1.31101 98.5892L0.765625 97.7756V97.7454L1.31101 98.5022V98.5779" fill="#858585"/>
<path d="M1.31101 98.5136L0.765625 97.7567L1.31101 98.4757V98.5438" fill="#878787"/>
<path d="M1.31101 98.4454L0.765625 97.7264L1.31101 98.3924V98.4605" fill="#898989"/>
<path d="M1.31101 98.3773L0.765625 97.7113L1.31101 98.3243V98.3849" fill="#8B8B8B"/>
<path d="M1.31101 98.3168L0.765625 97.7037L1.31101 98.2638V98.3168Z" fill="#8D8D8D"/>
<path d="M1.31101 98.2638L0.765625 97.7037L1.31101 98.2184V98.2638Z" fill="#8F8F8F"/>
<path d="M1.31101 98.2108L0.765625 97.6962L1.31101 98.1654V98.2108Z" fill="#919191"/>
<path d="M1.31101 98.1768L0.765625 97.7075L1.31101 98.1314V98.173" fill="#949494"/>
<path d="M1.31101 98.1351L0.765625 97.7113L1.31101 98.0897V98.1238" fill="#969696"/>
<path d="M1.31101 98.1011L0.765625 97.7227L1.31101 98.0632V98.0973" fill="#989898"/>
<path d="M1.31101 98.067L0.765625 97.7264L1.31101 98.0292V98.0594" fill="#9A9A9A"/>
<path d="M1.31101 98.0367L0.765625 97.734L1.31101 97.9913V98.0254" fill="#9C9C9C"/>
<path d="M1.31101 98.0027L0.765625 97.7454L1.31101 97.9573V97.9913" fill="#9E9E9E"/>
<path d="M1.31101 97.9686L0.765625 97.7567V97.7794L1.31101 97.9081V97.9686Z" fill="#A0A0A0"/>
<path d="M1.31101 97.9081L0.765625 97.7794L1.31101 97.874V97.8967" fill="#A3A3A3"/>
<path d="M1.31101 97.8854L0.765625 97.7908L1.31101 97.8551" fill="#A0A0A0"/>
<path d="M1.31101 97.8665L0.765625 97.8021L1.31101 97.8324V97.8551" fill="#9E9E9E"/>
<path d="M1.31101 97.8324L0.765625 97.8021H1.31101" fill="#9C9C9C"/>
</g>
<mask id="mask19_1569_416" style="mask-type:luminance" maskUnits="userSpaceOnUse" x="1" y="97" width="3" height="2">
<path d="M3.69671 98.733H1.31055V97.8324H3.69671V98.7406V98.733Z" fill="white"/>
</mask>
<g mask="url(#mask19_1569_416)">
<path d="M3.69671 98.6308H1.31055V98.6119H3.69671V98.6308Z" fill="#919191"/>
<path d="M3.69671 98.5892H1.31055V98.5703H3.69671V98.5892Z" fill="#989898"/>
<path d="M3.69671 98.5249H1.31055V98.506H3.69671V98.5249Z" fill="#9E9E9E"/>
<path d="M3.70048 98.0216H1.31055V98.0178H3.70048V98.0216Z" fill="#F6F6F6"/>
<path d="M3.70048 98.0178H1.31055V98.014H3.70048V98.0178Z" fill="#F6F6F6"/>
<path d="M3.70048 98.014H1.31055V98.0102H3.70048V98.014Z" fill="#F7F7F7"/>
<path d="M3.70048 98.0102H1.31055V98.0064H3.70048V98.0102Z" fill="#F7F7F7"/>
<path d="M3.70048 98.0064H1.31055V98.0027H3.70048V98.0064Z" fill="#F7F7F7"/>
<path d="M3.70048 98.0026H1.31055V97.9989H3.70048V98.0026Z" fill="#F7F7F7"/>
<path d="M3.70048 97.9989H1.31055V97.9951H3.70048V97.9989Z" fill="#F8F8F8"/>
<path d="M3.70048 97.9951H1.31055V97.9913H3.70048V97.9951Z" fill="#F8F8F8"/>
<path d="M3.70048 97.9913H1.31055V97.9875H3.70048V97.9913Z" fill="#F8F8F8"/>
<path d="M3.70048 97.9875H1.31055V97.9837H3.70048V97.9875Z" fill="#F8F8F8"/>
<path d="M3.70048 97.9837H1.31055V97.9799H3.70048V97.9837Z" fill="#F8F8F8"/>
<path d="M3.70048 97.9799H1.31055V97.9762H3.70048V97.9799Z" fill="#F8F8F8"/>
<path d="M3.70048 97.9762H1.31055V97.9724H3.70048V97.9762Z" fill="#F9F9F9"/>
<path d="M3.70048 97.9724H1.31055V97.9686H3.70048V97.9724Z" fill="#F9F9F9"/>
<path d="M3.70048 97.9686H1.31055V97.9648H3.70048V97.9686Z" fill="#F9F9F9"/>
<path d="M3.70048 97.9648H1.31055V97.961H3.70048V97.9648Z" fill="#F9F9F9"/>
<path d="M3.70048 97.961H1.31055V97.9572H3.70048V97.961Z" fill="#F9F9F9"/>
<path d="M3.70048 97.9572H1.31055V97.9535H3.70048V97.9572Z" fill="#F9F9F9"/>
<path d="M3.70048 97.9535H1.31055V97.9497H3.70048V97.9535Z" fill="#F9F9F9"/>
<path d="M3.70048 97.9497H1.31055V97.9459H3.70048V97.9497Z" fill="#F9F9F9"/>
<path d="M3.70048 97.9459H1.31055V97.9421H3.70048V97.9459Z" fill="#FAFAFA"/>
<path d="M3.70048 97.9421H1.31055V97.9383H3.70048V97.9421Z" fill="#FAFAFA"/>
<path d="M3.70048 97.9383H1.31055V97.9345H3.70048V97.9383Z" fill="#FAFAFA"/>
<path d="M3.70048 97.9345H1.31055V97.9308H3.70048V97.9345Z" fill="#FAFAFA"/>
<path d="M3.70048 97.9307H1.31055V97.927H3.70048V97.9307Z" fill="#FAFAFA"/>
<path d="M3.70048 97.927H1.31055V97.9232H3.70048V97.927Z" fill="#FAFAFA"/>
<path d="M3.70048 97.9232H1.31055V97.9194H3.70048V97.9232Z" fill="#FAFAFA"/>
<path d="M3.70048 97.9194H1.31055V97.9156H3.70048V97.9194Z" fill="#FAFAFA"/>
<path d="M3.70048 97.9156H1.31055V97.9118H3.70048V97.9156Z" fill="#FAFAFA"/>
<path d="M3.70048 97.9118H1.31055V97.9081H3.70048V97.9118Z" fill="#FAFAFA"/>
<path d="M3.70048 97.908H1.31055V97.9043H3.70048V97.908Z" fill="#FBFBFB"/>
<path d="M3.70048 97.9043H1.31055V97.9005H3.70048V97.9043Z" fill="#FBFBFB"/>
<path d="M3.70048 97.9005H1.31055V97.8967H3.70048V97.9005Z" fill="#FBFBFB"/>
<path d="M3.70048 97.8967H1.31055V97.8929H3.70048V97.8967Z" fill="#FBFBFB"/>
</g>
<mask id="mask20_1569_416" style="mask-type:luminance" maskUnits="userSpaceOnUse" x="3" y="97" width="2" height="2">
<path d="M3.95863 98.3092C4.05711 98.1578 4.15175 98.0064 4.24644 97.8513L3.69727 98.7179V97.8324H4.04574C4.07982 97.8324 4.13281 97.8324 4.24644 97.7113V97.8664C4.14796 98.0065 4.05332 98.1578 3.95863 98.3092Z" fill="white"/>
</mask>
<g mask="url(#mask20_1569_416)">
<path d="M4.24644 97.8664L3.69727 98.733V98.7103L4.24644 97.8475V97.8664Z" fill="#7C7C7C"/>
<path d="M4.24644 97.8324L3.69727 98.6952V98.6157L4.24644 97.7794V97.8324Z" fill="#7E7E7E"/>
<path d="M4.24644 97.7945L3.69727 98.6308V98.54L4.24644 97.7529V97.7945Z" fill="#808080"/>
<path d="M4.24644 97.7529L3.69727 98.54V98.453L4.24644 97.7264V97.7529Z" fill="#838383"/>
<path d="M4.24644 97.7264L3.69727 98.453V98.3735L4.24644 97.7113" fill="#858585"/>
<path d="M4.24644 97.7113L3.69727 98.3735V98.3054L4.24644 97.7037" fill="#878787"/>
<path d="M4.24644 97.7037L3.69727 98.3054V98.2449L4.24644 97.7037Z" fill="#898989"/>
<path d="M4.24644 97.7037L3.69727 98.2449V98.2108L4.24644 97.7189" fill="#8B8B8B"/>
<path d="M4.24644 97.7037L3.69727 98.1957V98.1503L4.24644 97.7113" fill="#8D8D8D"/>
<path d="M4.24644 97.7113L3.69727 98.1503V98.1086L4.24644 97.7302" fill="#8F8F8F"/>
<path d="M4.24644 97.7151L3.69727 98.0935V98.0556L4.24644 97.7113" fill="#919191"/>
<path d="M4.24644 97.7264L3.69727 98.0708V98.033L4.24644 97.734" fill="#949494"/>
<path d="M4.24644 97.734L3.69727 98.0329V97.9989L4.24644 97.7453" fill="#969696"/>
<path d="M4.24644 97.7454L3.69727 97.9989V97.9611L4.24644 97.7605" fill="#989898"/>
<path d="M4.24644 97.7605L3.69727 97.961V97.874L4.24644 97.7983V97.7605Z" fill="#9A9A9A"/>
<path d="M4.24644 97.7983L3.69727 97.874V97.8324L4.24644 97.7946" fill="#989898"/>
<path d="M4.24644 97.8097L3.69727 97.8475V97.8324H4.24644" fill="#969696"/>
</g>
<path d="M1.31482 78.2339H0.765625V97.8248H1.31482V78.2339Z" fill="#B4B4B4"/>
<path d="M4.25036 78.2339H3.70117V97.8248H4.25036V78.2339Z" fill="#ACACAC"/>
<path d="M3.69669 78.2339H1.31055V97.8248H3.69669V78.2339Z" fill="#EFEFEF"/>
<mask id="mask21_1569_416" style="mask-type:luminance" maskUnits="userSpaceOnUse" x="1" y="77" width="3" height="2">
<path d="M3.69671 78.2339H1.31055V77.3219H3.69671V78.2339Z" fill="white"/>
</mask>
<g mask="url(#mask21_1569_416)">
<path d="M3.70048 78.2339H1.31055V78.2301H3.70048V78.2339Z" fill="#FAFAFA"/>
<path d="M3.70048 78.2301H1.31055V78.2263H3.70048V78.2301Z" fill="#FAFAFA"/>
<path d="M3.70048 78.2264H1.31055V78.2226H3.70048V78.2264Z" fill="#FAFAFA"/>
<path d="M3.70048 78.2226H1.31055V78.2188H3.70048V78.2226Z" fill="#FAFAFA"/>
<path d="M3.70048 78.2188H1.31055V78.215H3.70048V78.2188Z" fill="#FAFAFA"/>
<path d="M3.70048 78.215H1.31055V78.2112H3.70048V78.215Z" fill="#FAFAFA"/>
<path d="M3.70048 78.2112H1.31055V78.2074H3.70048V78.2112Z" fill="#FAFAFA"/>
<path d="M3.70048 78.2074H1.31055V78.2036H3.70048V78.2074Z" fill="#F9F9F9"/>
<path d="M3.70048 78.2036H1.31055V78.1999H3.70048V78.2036Z" fill="#F9F9F9"/>
<path d="M3.70048 78.1999H1.31055V78.1961H3.70048V78.1999Z" fill="#F9F9F9"/>
<path d="M3.70048 78.1961H1.31055V78.1923H3.70048V78.1961Z" fill="#F9F9F9"/>
<path d="M3.70048 78.1923H1.31055V78.1885H3.70048V78.1923Z" fill="#F9F9F9"/>
<path d="M3.70048 78.1885H1.31055V78.1847H3.70048V78.1885Z" fill="#F9F9F9"/>
<path d="M3.70048 78.1847H1.31055V78.1809H3.70048V78.1847Z" fill="#F8F8F8"/>
<path d="M3.70048 78.1809H1.31055V78.1772H3.70048V78.1809Z" fill="#F8F8F8"/>
<path d="M3.70048 78.1772H1.31055V78.1734H3.70048V78.1772Z" fill="#F8F8F8"/>
<path d="M3.70048 78.1734H1.31055V78.1696H3.70048V78.1734Z" fill="#F8F8F8"/>
<path d="M3.70048 78.1696H1.31055V78.1658H3.70048V78.1696Z" fill="#F8F8F8"/>
<path d="M3.70048 78.1658H1.31055V78.162H3.70048V78.1658Z" fill="#F7F7F7"/>
<path d="M3.70048 78.162H1.31055V78.1582H3.70048V78.162Z" fill="#F7F7F7"/>
<path d="M3.70048 78.1582H1.31055V78.1544H3.70048V78.1582Z" fill="#F7F7F7"/>
<path d="M3.70048 78.1545H1.31055V78.1507H3.70048V78.1545Z" fill="#F7F7F7"/>
<path d="M3.70048 78.1507H1.31055V78.1469H3.70048V78.1507Z" fill="#F6F6F6"/>
<path d="M3.70048 78.1469H1.31055V78.1431H3.70048V78.1469Z" fill="#F6F6F6"/>
<path d="M3.70048 78.1431H1.31055V78.1393H3.70048V78.1431Z" fill="#F6F6F6"/>
<path d="M3.70048 78.1393H1.31055V78.1355H3.70048V78.1393Z" fill="#F6F6F6"/>
<path d="M3.70048 78.1355H1.31055V78.1317H3.70048V78.1355Z" fill="#F5F5F5"/>
<path d="M3.70048 78.1317H1.31055V78.128H3.70048V78.1317Z" fill="#F5F5F5"/>
<path d="M3.70048 78.1279H1.31055V78.1242H3.70048V78.1279Z" fill="#F2F2F2"/>
<path d="M3.70048 78.1242H1.31055V78.1204H3.70048V78.1242Z" fill="#EFEFEF"/>
<path d="M3.70048 78.1204H1.31055V78.1166H3.70048V78.1204Z" fill="#EDEDED"/>
<path d="M3.70048 78.1166H1.31055V78.1128H3.70048V78.1166Z" fill="#EBEBEB"/>
<path d="M3.70048 78.1128H1.31055V78.109H3.70048V78.1128Z" fill="#E7E7E7"/>
<path d="M3.70048 78.109H1.31055V78.1053H3.70048V78.109Z" fill="#E5E5E5"/>
<path d="M3.70048 78.1052H1.31055V78.1015H3.70048V78.1052Z" fill="#E3E3E3"/>
<path d="M3.69671 77.723H1.31055V77.7041H3.69671V77.723Z" fill="#8B8B8B"/>
<path d="M3.69671 77.7041H1.31055V77.6814H3.69671V77.7041Z" fill="#898989"/>
<path d="M3.69671 77.6814H1.31055V77.6587H3.69671V77.6814Z" fill="#878787"/>
<path d="M3.69671 77.6587H1.31055V77.6322H3.69671V77.6587Z" fill="#858585"/>
<path d="M3.69671 77.6322H1.31055V77.5982H3.69671V77.6322Z" fill="#838383"/>
<path d="M3.69671 77.5982H1.31055V77.5603H3.69671V77.5982Z" fill="#808080"/>
<path d="M3.69671 77.5603H1.31055V77.5111H3.69671V77.5603Z" fill="#7E7E7E"/>
<path d="M3.69671 77.5111H1.31055V77.3219H3.69671V77.5111Z" fill="#7C7C7C"/>
</g>
<mask id="mask22_1569_416" style="mask-type:luminance" maskUnits="userSpaceOnUse" x="0" y="179" width="1" height="2">
<path d="M0 179.606V179.133H0.545429V180.491L0 179.624V179.606Z" fill="white"/>
</mask>
<g mask="url(#mask22_1569_416)">
<path d="M0.545429 180.491L0 179.624L0.545429 180.502" fill="#7E7E7E"/>
<path d="M0.545429 180.483L0 179.606L0.545429 180.476" fill="#7C7C7C"/>
<path d="M0.549192 180.48L0 179.609V179.613L0.549192 180.48Z" fill="#7E7E7E"/>
<path d="M0.545429 180.48L0 179.613V179.571L0.545429 180.427V180.465" fill="#808080"/>
<path d="M0.545429 180.442L0 179.587V179.571L0.545429 180.408V180.457" fill="#838383"/>
<path d="M0.545429 180.393L0 179.556V179.526L0.545429 180.336V180.393Z" fill="#858585"/>
<path d="M0.545429 180.328L0 179.518V179.488L0.545429 180.268V180.328Z" fill="#878787"/>
<path d="M0.545429 180.275L0 179.496V179.465L0.545429 180.222V180.283" fill="#898989"/>
<path d="M0.545429 180.215L0 179.458V179.431L0.545429 180.143V180.207" fill="#8B8B8B"/>
<path d="M0.545429 180.15L0 179.439V179.413L0.545429 180.09V180.15Z" fill="#8D8D8D"/>
<path d="M0.545429 180.09L0 179.413V179.386L0.545429 180.026V180.09Z" fill="#8F8F8F"/>
<path d="M0.545429 180.026L0 179.386V179.36L0.545429 179.961V180.026Z" fill="#919191"/>
<path d="M0.545429 179.95L0 179.348V179.322L0.545429 179.886V179.95Z" fill="#949494"/>
<path d="M0.545429 179.897L0 179.333V179.31L0.545429 179.829V179.897Z" fill="#969696"/>
<path d="M0.545429 179.829L0 179.31V179.288L0.545429 179.761V179.829Z" fill="#989898"/>
<path d="M0.545429 179.761L0 179.288V179.265L0.545429 179.689V179.761Z" fill="#9A9A9A"/>
<path d="M0.545429 179.689L0 179.265V179.238L0.545429 179.617V179.696" fill="#9C9C9C"/>
<path d="M0.545429 179.609L0 179.231V179.204L0.545429 179.507V179.602" fill="#9E9E9E"/>
<path d="M0.545429 179.515L0 179.212V179.17L0.545429 179.337V179.515Z" fill="#A0A0A0"/>
<path d="M0.545429 179.337L0 179.17L0.545429 179.322" fill="#A3A3A3"/>
<path d="M0.545429 179.318L0 179.167V179.133H0.545429V179.318Z" fill="#A0A0A0"/>
</g>
<mask id="mask23_1569_416" style="mask-type:luminance" maskUnits="userSpaceOnUse" x="0" y="179" width="3" height="2">
<path d="M2.93104 180.491H0.544922V179.133H2.93104V180.491Z" fill="white"/>
</mask>
<g mask="url(#mask23_1569_416)">
<path d="M2.93104 180.355H0.544922V180.328H2.93104V180.347" fill="#9A9A9A"/>
<path d="M2.93104 180.328H0.544922V180.309H2.93104V180.328Z" fill="#9E9E9E"/>
<path d="M2.93104 180.181H0.544922V180.162H2.93104V180.181Z" fill="#AFAFAF"/>
<path d="M2.93104 180.128H0.544922V180.109H2.93104V180.128Z" fill="#B6B6B6"/>
<path d="M2.93104 180.071H0.544922V180.052H2.93104V180.071Z" fill="#BCBCBC"/>
<path d="M2.93104 180.033H0.544922V180.014H2.93104V180.033Z" fill="#C0C0C0"/>
<path d="M2.93104 179.976H0.544922V179.95H2.93104V179.969" fill="#C7C7C7"/>
<path d="M2.93104 179.95H0.544922V179.931H2.93104V179.95Z" fill="#CBCBCB"/>
<path d="M2.93104 179.882H0.544922V179.863H2.93104V179.882Z" fill="#D2D2D2"/>
<path d="M2.93104 179.863H0.544922V179.84H2.93104V179.863Z" fill="#D4D4D4"/>
<path d="M2.93104 179.84H0.544922V179.821H2.93104V179.84Z" fill="#D6D6D6"/>
<path d="M2.93104 179.802H0.544922V179.783H2.93104V179.802Z" fill="#DADADA"/>
<path d="M2.93104 179.746H0.544922V179.727H2.93104V179.746Z" fill="#E0E0E0"/>
</g>
<mask id="mask24_1569_416" style="mask-type:luminance" maskUnits="userSpaceOnUse" x="2" y="179" width="2" height="2">
<path d="M3.17749 180.075L3.46914 179.606L2.91992 180.472V179.114H3.46914V179.594L3.17749 180.075Z" fill="white"/>
</mask>
<g mask="url(#mask24_1569_416)">
<path d="M3.48086 179.624L2.93164 180.491L3.48086 179.628" fill="#7C7C7C"/>
<path d="M3.48086 179.613L2.93164 180.476V180.423L3.48086 179.575V179.613Z" fill="#7E7E7E"/>
<path d="M3.48086 179.571L2.93164 180.419V180.351L3.48086 179.534V179.571Z" fill="#808080"/>
<path d="M3.48086 179.537L2.93164 180.355V180.283L3.48086 179.5V179.537Z" fill="#838383"/>
<path d="M3.48086 179.5L2.93164 180.283V180.211L3.48086 179.454V179.488" fill="#858585"/>
<path d="M3.48086 179.466L2.93164 180.222V180.147L3.48086 179.443V179.477" fill="#878787"/>
<path d="M3.48086 179.431L2.93164 180.135V180.063L3.48086 179.401V179.431Z" fill="#898989"/>
<path d="M3.48086 179.401L2.93164 180.063V179.988L3.48086 179.371V179.401Z" fill="#8B8B8B"/>
<path d="M3.48086 179.371L2.93164 179.988V179.916L3.48086 179.341V179.371Z" fill="#8D8D8D"/>
<path d="M3.48086 179.341L2.93164 179.916V179.84L3.48086 179.314V179.341Z" fill="#8F8F8F"/>
<path d="M3.48086 179.314L2.93164 179.84V179.761L3.48086 179.288V179.314Z" fill="#919191"/>
<path d="M3.48086 179.288L2.93164 179.761V179.681L3.48086 179.261V179.288Z" fill="#949494"/>
<path d="M3.48086 179.261L2.93164 179.681V179.572L3.48086 179.216V179.246" fill="#969696"/>
<path d="M3.48086 179.231L2.93164 179.587V179.469L3.48086 179.201V179.231Z" fill="#989898"/>
<path d="M3.48086 179.193L2.93164 179.462V179.163L3.48086 179.129V179.193Z" fill="#9A9A9A"/>
<path d="M3.48086 179.136L2.93164 179.17V179.133H3.48086" fill="#989898"/>
</g>
<path d="M0.549192 149.854H0V179.132H0.549192V149.854Z" fill="#B4B4B4"/>
<mask id="mask25_1569_416" style="mask-type:luminance" maskUnits="userSpaceOnUse" x="0" y="148" width="1" height="2">
<path d="M0 149.373L0.378753 148.772C0.249977 148.972 0.124989 149.177 0 149.381V149.362L0.545429 148.492V149.854H0V149.373Z" fill="white"/>
</mask>
<g mask="url(#mask25_1569_416)">
<path d="M0.545429 149.854H0L0.545429 149.82V149.862" fill="#A0A0A0"/>
<path d="M0.545429 149.812L0 149.846L0.545429 149.74V149.828" fill="#9E9E9E"/>
<path d="M0.545429 149.725L0 149.831L0.545429 149.672V149.74" fill="#9C9C9C"/>
<path d="M0.545429 149.676L0 149.835L0.545429 149.631V149.676Z" fill="#9A9A9A"/>
<path d="M0.545429 149.6L0 149.805L0.545429 149.559V149.616" fill="#989898"/>
<path d="M0.545429 149.544L0 149.79L0.545429 149.498V149.555" fill="#969696"/>
<path d="M0.545429 149.487L0 149.778L0.545429 149.449V149.502" fill="#949494"/>
<path d="M0.545429 149.434L0 149.763L0.545429 149.385V149.438" fill="#919191"/>
<path d="M0.545429 149.381L0 149.759V149.74L0.545429 149.336V149.392" fill="#8F8F8F"/>
<path d="M0.545429 149.324L0 149.729L0.545429 149.283V149.339" fill="#8D8D8D"/>
<path d="M0.545429 149.267L0 149.714V149.695L0.545429 149.211V149.267Z" fill="#8B8B8B"/>
<path d="M0.545429 149.211L0 149.695V149.676L0.545429 149.15V149.214" fill="#898989"/>
<path d="M0.545429 149.146L0 149.672V149.646L0.545429 149.078V149.146Z" fill="#878787"/>
<path d="M0.545429 149.078L0 149.646V149.619L0.545429 149.006V149.078Z" fill="#858585"/>
<path d="M0.545429 149.006L0 149.619V149.585L0.545429 148.923V149.006Z" fill="#838383"/>
<path d="M0.545429 148.919L0 149.582V149.54L0.545429 148.828V148.919Z" fill="#808080"/>
<path d="M0.545429 148.832L0 149.544V149.491L0.545429 148.734V148.847" fill="#7E7E7E"/>
<path d="M0.545429 148.719L0 149.476V149.347L0.545429 148.477V148.704" fill="#7C7C7C"/>
</g>
<path d="M3.48474 149.854H2.93555V179.132H3.48474V149.854Z" fill="#ACACAC"/>
<path d="M2.93497 149.854H0.548828V179.132H2.93497V149.854Z" fill="#EFEFEF"/>
<mask id="mask26_1569_416" style="mask-type:luminance" maskUnits="userSpaceOnUse" x="2" y="148" width="2" height="2">
<path d="M3.0982 148.772L3.47695 149.373V149.854H2.92773V148.492L3.47695 149.362V149.381C3.35197 149.177 3.22698 148.972 3.0982 148.772Z" fill="white"/>
</mask>
<g mask="url(#mask26_1569_416)">
<path d="M3.48086 149.854H2.93164V149.748L3.48086 149.843V149.862" fill="#989898"/>
<path d="M3.48086 149.835L2.93164 149.74V149.676L3.48086 149.831" fill="#969696"/>
<path d="M3.48086 149.82L2.93164 149.665V149.6L3.48086 149.805" fill="#949494"/>
<path d="M3.48086 149.805L2.93164 149.6V149.536L3.48086 149.79" fill="#919191"/>
<path d="M3.48086 149.79L2.93164 149.536V149.476L3.48086 149.775" fill="#8F8F8F"/>
<path d="M3.48086 149.775L2.93164 149.476V149.411L3.48086 149.756" fill="#8D8D8D"/>
<path d="M3.48086 149.756L2.93164 149.411V149.351L3.48086 149.729V149.748" fill="#8B8B8B"/>
<path d="M3.48086 149.737L2.93164 149.358V149.298L3.48086 149.729" fill="#898989"/>
<path d="M3.48086 149.718L2.93164 149.286V149.215L3.48086 149.695V149.718Z" fill="#878787"/>
<path d="M3.48086 149.695L2.93164 149.214V149.139L3.48086 149.669V149.695Z" fill="#858585"/>
<path d="M3.48086 149.676L2.93164 149.146V149.063L3.48086 149.646V149.676Z" fill="#838383"/>
<path d="M3.48086 149.638L2.93164 149.056V148.957L3.48086 149.6V149.638Z" fill="#808080"/>
<path d="M3.48086 149.6L2.93164 148.957V148.832L3.48086 149.547V149.6Z" fill="#7E7E7E"/>
<path d="M3.48086 149.547L2.93164 148.832V148.492L3.48086 149.362V149.547Z" fill="#7C7C7C"/>
</g>
<mask id="mask27_1569_416" style="mask-type:luminance" maskUnits="userSpaceOnUse" x="0" y="148" width="3" height="2">
<path d="M2.93104 149.854H0.544922V148.492H2.93104V149.854Z" fill="white"/>
</mask>
<g mask="url(#mask27_1569_416)">
<path d="M2.93497 149.854H0.548828V149.85H2.93497V149.854Z" fill="#FAFAFA"/>
<path d="M2.93497 149.843H0.548828V149.839H2.93497V149.843Z" fill="#FAFAFA"/>
<path d="M2.93497 149.839H0.548828V149.835H2.93497V149.839Z" fill="#FAFAFA"/>
<path d="M2.93497 149.835H0.548828V149.828H2.93497V149.835Z" fill="#FAFAFA"/>
<path d="M2.93497 149.824H0.548828V149.82H2.93497V149.824Z" fill="#FAFAFA"/>
<path d="M2.93497 149.805H0.548828V149.801H2.93497V149.805Z" fill="#FAFAFA"/>
<path d="M2.93497 149.797H0.548828V149.793H2.93497V149.797Z" fill="#F9F9F9"/>
<path d="M2.93497 149.793H0.548828V149.79H2.93497V149.793Z" fill="#F9F9F9"/>
<path d="M2.93497 149.775H0.548828V149.771H2.93497V149.775Z" fill="#F9F9F9"/>
<path d="M2.93497 149.763H0.548828V149.756H2.93497V149.763Z" fill="#F9F9F9"/>
<path d="M2.93497 149.756H0.548828V149.752H2.93497V149.756Z" fill="#F9F9F9"/>
<path d="M2.93104 149.381H0.544922V149.362H2.93104V149.381Z" fill="#C0C0C0"/>
<path d="M2.93104 149.298H0.544922V149.279H2.93104V149.298Z" fill="#B4B4B4"/>
<path d="M2.93104 149.188H0.544922V149.169H2.93104V149.188Z" fill="#A9A9A9"/>
<path d="M2.93104 149.15H0.544922V149.131H2.93104V149.15Z" fill="#A5A5A5"/>
<path d="M2.93104 149.112H0.544922V149.09H2.93104V149.112Z" fill="#A0A0A0"/>
<path d="M2.93104 149.09H0.544922V149.071H2.93104V149.09Z" fill="#9E9E9E"/>
<path d="M2.93104 149.052H0.544922V149.029H2.93104V149.052Z" fill="#9A9A9A"/>
<path d="M2.93104 149.029H0.544922V149.006H2.93104V149.029Z" fill="#989898"/>
<path d="M2.93104 149.006H0.544922V148.984H2.93104V149.006Z" fill="#969696"/>
<path d="M2.93104 148.984H0.544922V148.961H2.93104V148.984Z" fill="#949494"/>
<path d="M2.93104 148.961H0.544922V148.938H2.93104V148.961Z" fill="#919191"/>
<path d="M2.93104 148.938H0.544922V148.919H2.93104V148.946" fill="#8F8F8F"/>
<path d="M2.93104 148.919H0.544922V148.897H2.93104V148.919Z" fill="#8D8D8D"/>
<path d="M2.93104 148.889H0.544922V148.859H2.93104V148.889Z" fill="#8B8B8B"/>
<path d="M2.93104 148.859H0.544922V148.832H2.93104V148.859Z" fill="#898989"/>
<path d="M2.93104 148.832H0.544922V148.802H2.93104V148.832Z" fill="#878787"/>
<path d="M2.93104 148.802H0.544922V148.768H2.93104V148.802Z" fill="#858585"/>
<path d="M2.93104 148.768H0.544922V148.734H2.93104V148.768Z" fill="#838383"/>
<path d="M2.93104 148.734H0.544922V148.692H2.93104V148.734Z" fill="#808080"/>
<path d="M2.93104 148.692H0.544922V148.643H2.93104V148.692Z" fill="#7E7E7E"/>
<path d="M2.93104 148.643H0.544922V148.492H2.93104V148.643Z" fill="#7C7C7C"/>
</g>
<path d="M179.43 0.956421H33.5344C17.9317 0.956421 5.2832 13.5938 5.2832 29.1829V385.774C5.2832 401.363 17.9317 414 33.5344 414H179.43C195.033 414 207.681 401.363 207.681 385.774V29.1829C207.681 13.5938 195.033 0.956421 179.43 0.956421Z" fill="black"/>
<g style="mix-blend-mode:hard-light" opacity="0.6">
<path d="M19.9746 7.68097C20.111 7.5296 20.2511 7.38202 20.3988 7.23443L20.6185 7.01117L20.8533 6.79925C21.0086 6.65924 21.1677 6.51922 21.3306 6.38299C21.4934 6.24675 21.6639 6.11431 21.8343 5.98186C22.1714 5.71318 22.5426 5.47477 22.9062 5.22502C23.0917 5.10392 23.2849 4.99417 23.4781 4.87686C23.6712 4.75955 23.8568 4.64224 24.0614 4.53629L24.6636 4.21085C24.8681 4.10489 25.0802 4.00649 25.2885 3.9081C25.7052 3.70376 26.1407 3.52969 26.5763 3.34805C26.7922 3.25723 27.0194 3.18154 27.2429 3.09829C27.4664 3.01503 27.6898 2.93178 27.9209 2.85988L28.6102 2.64418C28.8412 2.56849 29.0798 2.51552 29.3147 2.45119C30.2675 2.19892 31.2335 1.9993 32.2083 1.85328L32.9658 1.75867L33.3446 1.71326C33.4658 1.71326 33.5908 1.69056 33.7233 1.67921L34.4808 1.61487C34.7308 1.59595 34.9808 1.59216 35.2383 1.58081H35.6171H35.8027H35.977H36.67L38.0601 1.55054L40.8363 1.48999C48.2447 1.34115 55.6519 1.24402 63.0578 1.19861C70.4637 1.1532 77.8708 1.14562 85.2792 1.1759H96.3919H107.501L118.61 1.13428L129.722 1.06994L140.831 1.00562C144.535 0.987956 148.239 0.987956 151.944 1.00562C159.349 1.02832 166.757 1.11536 174.165 1.26673L176.941 1.32728C177.407 1.32728 177.85 1.32727 178.377 1.3689L179.134 1.39918L179.892 1.46729C181.88 1.64012 183.842 2.03877 185.74 2.65553L186.429 2.89015C186.66 2.96962 186.88 3.06423 187.103 3.14748C187.327 3.23074 187.55 3.32155 187.766 3.41616L188.41 3.71133C188.52 3.76052 188.626 3.80594 188.732 3.85892L189.042 4.01785L189.656 4.33951C189.861 4.44925 190.054 4.57035 190.251 4.68388C190.448 4.7974 190.629 4.91471 190.826 5.03959C192.273 5.95271 193.553 7.10431 194.614 8.44539C192.894 7.76801 191.247 7.15118 189.573 6.66301C187.925 6.17618 186.247 5.79696 184.55 5.52775L184.236 5.47856L183.922 5.43693L183.293 5.34989C183.085 5.31962 182.873 5.30448 182.66 5.28178C182.448 5.25907 182.244 5.23259 182.032 5.21745L181.403 5.16825L181.089 5.14176H180.774L180.146 5.10771H179.99H179.831H179.517H178.892H178.263H177.615H176.922L174.146 5.16447C166.738 5.32088 159.331 5.40918 151.925 5.42937C148.22 5.42937 144.516 5.42937 140.812 5.42937L129.703 5.36882L118.591 5.3007L107.482 5.26286H96.3502H85.2375C77.8291 5.278 70.422 5.26916 63.0161 5.23637C55.6102 5.20357 48.2031 5.10645 40.7947 4.94499L38.0184 4.88444L36.6284 4.85795H35.9353H35.2838H34.6475H34.0112H33.6931H33.3711L32.7348 4.88444C31.8864 4.94499 31.0304 5.00554 30.182 5.12285C29.3336 5.24016 28.4814 5.36881 27.6292 5.52775C27.2088 5.61479 26.777 5.69426 26.3566 5.79644C26.1445 5.84942 25.9286 5.89104 25.7165 5.94402L25.084 6.10673C23.3758 6.4738 21.7093 7.05279 19.9746 7.68097Z" fill="url(#paint0_linear_1569_416)"/>
</g>
<g style="mix-blend-mode:hard-light" opacity="0.6">
<path d="M196.997 405.595C196.843 405.777 196.684 405.959 196.52 406.14L196.273 406.409L196.02 406.666C195.849 406.84 195.675 407.011 195.497 407.181C195.319 407.351 195.137 407.506 194.952 407.665L194.675 407.907L194.391 408.134L193.812 408.589C193.615 408.732 193.41 408.872 193.209 409.012L192.906 409.224L192.596 409.425C191.762 409.956 190.894 410.433 189.997 410.852C189.77 410.957 189.539 411.048 189.312 411.15C189.085 411.253 188.854 411.347 188.619 411.43L187.914 411.688C187.683 411.775 187.441 411.839 187.202 411.919C186.245 412.215 185.27 412.449 184.282 412.619L183.525 412.728L183.146 412.781L182.767 412.819L182.01 412.891C181.76 412.891 181.506 412.914 181.252 412.925C180.737 412.956 180.279 412.956 179.798 412.967L178.374 412.997L175.522 413.05C171.719 413.118 167.916 413.176 164.113 413.224C160.326 413.277 156.508 413.292 152.705 413.326L147.024 413.349C145.13 413.349 143.237 413.349 141.32 413.349H129.912H107.1L95.6917 413.383L84.2836 413.447L72.8756 413.504C70.9819 413.504 69.0881 413.504 67.1716 413.504H61.4903C53.8849 413.484 46.2796 413.401 38.6742 413.254L35.8222 413.202H35.1102H34.7314H34.3527L33.5951 413.164C33.3414 413.164 33.0914 413.118 32.8376 413.096C30.8227 412.895 28.8434 412.428 26.9518 411.707L26.2511 411.427C26.0163 411.336 25.7928 411.222 25.5618 411.12C25.3307 411.018 25.1073 410.912 24.8838 410.802L24.221 410.447L23.8915 410.269C23.7816 410.208 23.6756 410.144 23.5695 410.08L22.9332 409.701C22.7211 409.576 22.5204 409.425 22.3121 409.289C22.1038 409.152 21.903 409.012 21.7061 408.861C20.1228 407.7 18.7256 406.306 17.5625 404.725C19.1766 405.706 20.8558 406.576 22.5886 407.328C24.2684 408.038 26.0072 408.599 27.785 409.005C29.5267 409.402 31.3022 409.634 33.0876 409.697C33.3111 409.697 33.5307 409.72 33.7542 409.72H35.1026H35.8146L38.6666 409.667C46.272 409.521 53.8773 409.437 61.4827 409.417H67.164C69.0578 409.417 70.9516 409.417 72.868 409.417L84.2761 409.474L95.6841 409.535L107.092 409.572H129.905H141.313C143.214 409.572 145.115 409.572 147.017 409.572L152.698 409.595C156.485 409.629 160.303 409.644 164.106 409.694C167.909 409.743 171.711 409.803 175.514 409.871L178.366 409.924L179.79 409.955C180.264 409.955 180.756 409.977 181.191 409.955H181.862L182.532 409.932H182.869C182.983 409.932 183.093 409.932 183.206 409.909L183.877 409.864C184.1 409.864 184.324 409.815 184.547 409.792C184.771 409.769 184.998 409.754 185.218 409.716L185.888 409.618C185.998 409.618 186.111 409.588 186.221 409.565L186.555 409.504C186.778 409.463 187.001 409.429 187.221 409.379L187.888 409.232C188.111 409.19 188.331 409.13 188.551 409.073C188.77 409.016 188.994 408.963 189.213 408.899C189.649 408.766 190.096 408.657 190.528 408.498L191.183 408.282L191.831 408.044C193.611 407.355 195.337 406.537 196.997 405.595Z" fill="url(#paint1_linear_1569_416)"/>
</g>
<path opacity="0.5" d="M118.5 13.993H94.4564C94.1701 13.993 93.8956 13.8794 93.6932 13.6772C93.4908 13.4749 93.377 13.2006 93.377 12.9145C93.377 12.6285 93.4908 12.3542 93.6932 12.1519C93.8956 11.9497 94.1701 11.836 94.4564 11.836H118.492C118.778 11.837 119.052 11.951 119.254 12.153C119.457 12.3551 119.571 12.6288 119.572 12.9145C119.571 13.199 119.458 13.4716 119.257 13.6734C119.056 13.8752 118.784 13.9901 118.5 13.993Z" fill="#2B2B2B"/>
<g opacity="0.5">
<path d="M126.552 14.6391C127.702 13.4894 127.702 11.6253 126.552 10.4755C125.401 9.32575 123.535 9.32576 122.384 10.4755C121.234 11.6253 121.234 13.4894 122.384 14.6391C123.535 15.7889 125.401 15.7889 126.552 14.6391Z" fill="url(#paint2_linear_1569_416)"/>
<path d="M124.44 15.0942C123.951 15.0942 123.473 14.9493 123.066 14.6778C122.659 14.4063 122.342 14.0203 122.155 13.5688C121.968 13.1173 121.919 12.6204 122.014 12.1411C122.11 11.6617 122.345 11.2214 122.691 10.8758C123.037 10.5302 123.478 10.2949 123.958 10.1995C124.437 10.1042 124.935 10.1531 125.387 10.3402C125.839 10.5272 126.225 10.8439 126.497 11.2503C126.768 11.6566 126.913 12.1344 126.913 12.6231C126.913 13.2785 126.653 13.9071 126.189 14.3705C125.725 14.8339 125.096 15.0942 124.44 15.0942Z" fill="url(#paint3_linear_1569_416)"/>
<path style="mix-blend-mode:screen" opacity="0.25" d="M122.349 12.2296C122.309 12.6575 122.399 13.0877 122.608 13.4636C122.816 13.8395 123.134 14.1435 123.519 14.3358C123.903 14.528 124.337 14.5994 124.764 14.5407C125.19 14.4819 125.588 14.2958 125.907 14.0066C126.225 13.7175 126.448 13.3389 126.547 12.9206C126.646 12.5022 126.616 12.0638 126.462 11.6628C126.307 11.2618 126.034 10.917 125.679 10.6737C125.324 10.4304 124.904 10.3 124.474 10.2996C123.936 10.275 123.411 10.4642 123.013 10.826C122.614 11.1877 122.376 11.6925 122.349 12.2296Z" fill="url(#paint4_linear_1569_416)"/>
</g>
<defs>
<linearGradient id="paint0_linear_1569_416" x1="107.281" y1="1.14185" x2="107.281" y2="9.85312" gradientUnits="userSpaceOnUse">
<stop stop-color="white"/>
<stop offset="1"/>
</linearGradient>
<linearGradient id="paint1_linear_1569_416" x1="107.282" y1="413.342" x2="107.282" y2="403.275" gradientUnits="userSpaceOnUse">
<stop stop-color="white"/>
<stop offset="1"/>
</linearGradient>
<linearGradient id="paint2_linear_1569_416" x1="124.37" y1="9.61349" x2="124.56" y2="15.498" gradientUnits="userSpaceOnUse">
<stop offset="0.41"/>
<stop offset="0.52" stop-color="#060606"/>
<stop offset="1" stop-color="#1A1A1A"/>
</linearGradient>
<linearGradient id="paint3_linear_1569_416" x1="120.183" y1="12.7594" x2="126.917" y2="12.5433" gradientUnits="userSpaceOnUse">
<stop offset="0.41"/>
<stop offset="0.78" stop-color="#2C2C2C"/>
<stop offset="1" stop-color="#404040"/>
</linearGradient>
<linearGradient id="paint4_linear_1569_416" x1="124.535" y1="9.80013" x2="124.368" y2="16.502" gradientUnits="userSpaceOnUse">
<stop offset="0.01" stop-color="white"/>
<stop offset="0.04" stop-color="#E4E4E4"/>
<stop offset="0.14" stop-color="#9F9F9F"/>
<stop offset="0.24" stop-color="#676767"/>
<stop offset="0.32" stop-color="#3A3A3A"/>
<stop offset="0.4" stop-color="#1A1A1A"/>
<stop offset="0.46" stop-color="#070707"/>
<stop offset="0.51"/>
</linearGradient>
</defs>
</svg>
