<svg width="78" height="78" viewBox="0 0 78 78" fill="none" xmlns="http://www.w3.org/2000/svg">
<path d="M76.2555 8.39581C70.4099 22.972 55.7578 42.7865 43.4971 52.6178L36.0192 58.6153C35.0703 59.2986 34.1213 59.9059 33.0584 60.3234C33.0584 59.6402 33.0205 58.881 32.9066 58.1598C32.4891 54.9712 31.0466 52.0105 28.5034 49.4672C25.9222 46.886 22.7716 45.3677 19.5451 44.9501C18.7859 44.9122 18.0268 44.8363 17.2676 44.9122C17.6851 43.7354 18.3304 42.6346 19.1276 41.7236L25.0491 34.2457C34.8425 21.9851 54.7329 7.25704 69.2711 1.44935C71.5107 0.614254 73.6743 1.2216 75.0409 2.62607C76.4833 4.03055 77.1666 6.1942 76.2555 8.39581Z" stroke="#1A1A1B" stroke-width="1.5" stroke-linecap="round" stroke-linejoin="round"/>
<path d="M47.5182 48.3666C47.5182 38.4593 39.4709 30.412 29.5637 30.412M33.0559 60.3236C33.0559 64.499 31.4616 68.4847 28.4629 71.5214C26.1474 73.8369 22.9968 75.4312 19.2389 75.9246L9.90104 76.9495C4.81456 77.5189 0.449302 73.1916 1.05664 68.0292L2.08153 58.6914C2.99254 50.3784 9.939 45.0641 17.303 44.9123C18.0622 44.8744 18.8593 44.9123 19.5805 44.9503C22.807 45.3678 25.9576 46.8482 28.5388 49.4674C31.0821 52.0106 32.5245 54.9714 32.942 58.1599C32.98 58.8811 33.0559 59.6024 33.0559 60.3236Z" stroke="#1A1A1B" stroke-width="1.5" stroke-linecap="round" stroke-linejoin="round"/>
<path d="M42.1056 70.8255C47.174 75.8926 52.3113 75.8926 57.3798 70.8255L67.5855 60.6222C72.7229 55.4861 72.7229 50.419 67.5855 45.2829L65.0341 42.7666L54.8283 52.9353M6.3853 35.1142C1.31688 29.9781 1.31688 24.9109 6.3853 19.7748L16.5911 9.5716C21.6595 4.50445 26.7969 4.50445 31.8653 9.5716L34.4167 12.1224M34.4512 12.1569L21.694 24.9109" stroke="#1A1A1B" stroke-width="1.5" stroke-linecap="round"/>
</svg>
