<svg width="93" height="88" viewBox="0 0 93 88" fill="none" xmlns="http://www.w3.org/2000/svg">
<path d="M86.6282 20.4402C86.6282 5.21241 82.8326 1.41675 67.6047 1.41675H20.0235C4.79566 1.41675 1 5.21241 1 20.4402V47.5521C1 62.7799 4.79566 66.5755 20.0235 66.5755H37.1491V86.9998H22.4183M1 48.501H37.1491" stroke="#1A1A1B" stroke-width="1.5" stroke-linecap="round" stroke-linejoin="round"/>
<path d="M91.3735 47.8234V73.6249C91.3735 84.334 88.7076 87 77.9984 87H61.9572C51.248 87 48.582 84.334 48.582 73.6249V47.8234C48.582 37.1143 51.248 34.4483 61.9572 34.4483H77.9984C88.7076 34.4483 91.3735 37.1143 91.3735 47.8234Z" stroke="#1A1A1B" stroke-width="1.5" stroke-linecap="round" stroke-linejoin="round"/>
<path d="M69.8809 72.4502H69.9252" stroke="#1A1A1B" stroke-width="2" stroke-linecap="round" stroke-linejoin="round"/>
</svg>
