<svg width="94" height="94" viewBox="0 0 94 94" fill="none" xmlns="http://www.w3.org/2000/svg">
<path d="M70.5 73.8683H67.5233C64.39 73.8683 61.4133 75.0825 59.22 77.2758L52.5225 83.895C49.4675 86.9108 44.4933 86.9108 41.4383 83.895L34.7408 77.2758C32.5475 75.0825 29.5317 73.8683 26.4375 73.8683H23.5C16.9983 73.8683 11.75 68.6592 11.75 62.2358V19.505C11.75 13.0817 16.9983 7.8725 23.5 7.8725H70.5C77.0017 7.8725 82.25 13.0817 82.25 19.505V62.2358C82.25 68.62 77.0017 73.8683 70.5 73.8683Z" stroke="#1A1A1B" stroke-width="1.5" stroke-miterlimit="10" stroke-linecap="round" stroke-linejoin="round"/>
<path d="M48.0967 58.5933C47.5092 58.7892 46.53 58.7892 45.9033 58.5933C40.8117 56.8308 29.375 49.585 29.375 37.2475C29.375 31.8033 33.7617 27.4167 39.1667 27.4167C42.3783 27.4167 45.1983 28.9442 47 31.3333C48.8017 28.9442 51.6217 27.4167 54.8333 27.4167C60.2383 27.4167 64.625 31.8033 64.625 37.2475C64.5858 49.585 53.1883 56.8308 48.0967 58.5933Z" stroke="#1A1A1B" stroke-width="1.5" stroke-linecap="round" stroke-linejoin="round"/>
</svg>
