<svg width="642" height="640" viewBox="0 0 642 640" fill="none" xmlns="http://www.w3.org/2000/svg">
<g filter="url(#filter0_d_1045_1731)">
<path d="M333.272 146.993L373.163 9.50751L546.462 148.326C567.515 165.191 584.448 186.628 595.975 211.011C607.502 235.393 613.319 262.08 612.986 289.046C612.663 315.282 606.524 341.12 595.013 364.7C583.501 388.281 566.903 409.018 546.413 425.418L333.953 595.485V429.599L509.887 288.569L333.272 146.993ZM0 602H67.355C86.6175 602.003 105.36 595.754 120.762 584.192C136.165 572.629 147.394 556.38 152.759 537.888L308.812 1.47118e-06H241.457C222.195 -0.00350075 203.452 6.246 188.05 17.8084C172.648 29.3708 161.419 45.6205 156.053 64.1122L0 602Z" fill="#7042EF"/>
</g>
<defs>
<filter id="filter0_d_1045_1731" x="0" y="0" width="642" height="640" filterUnits="userSpaceOnUse" color-interpolation-filters="sRGB">
<feFlood flood-opacity="0" result="BackgroundImageFix"/>
<feColorMatrix in="SourceAlpha" type="matrix" values="0 0 0 0 0 0 0 0 0 0 0 0 0 0 0 0 0 0 127 0" result="hardAlpha"/>
<feOffset dx="18" dy="27"/>
<feGaussianBlur stdDeviation="5.5"/>
<feComposite in2="hardAlpha" operator="out"/>
<feColorMatrix type="matrix" values="0 0 0 0 0 0 0 0 0 0 0 0 0 0 0 0 0 0 0.08 0"/>
<feBlend mode="normal" in2="BackgroundImageFix" result="effect1_dropShadow_1045_1731"/>
<feBlend mode="normal" in="SourceGraphic" in2="effect1_dropShadow_1045_1731" result="shape"/>
</filter>
</defs>
</svg>
