<svg id="Capa_1" data-name="Capa 1" xmlns="http://www.w3.org/2000/svg" xmlns:xlink="http://www.w3.org/1999/xlink" viewBox="0 0 817.24 507.06"><defs><style>.cls-1{fill:#111;}.cls-2{fill:#00ff42;}.cls-3{fill:url(#Degradado_sin_nombre);}.cls-4{fill:url(#Degradado_sin_nombre_2);}.cls-5{fill:url(#Degradado_sin_nombre_3);}.cls-6{fill:url(#Degradado_sin_nombre_4);}.cls-7{fill:#939393;}.cls-8{fill:url(#Degradado_sin_nombre_5);}.cls-9{fill:url(#Degradado_sin_nombre_6);}.cls-10{fill:url(#Degradado_sin_nombre_7);}.cls-11{fill:url(#Degradado_sin_nombre_8);}</style><linearGradient id="Degradado_sin_nombre" x1="408.12" y1="35.83" x2="408.12" y2="46.92" gradientTransform="matrix(1, 0, 0, -1, 0.5, 510)" gradientUnits="userSpaceOnUse"><stop offset="0" stop-color="#1f1f1f"/><stop offset="0.42" stop-color="#2e2e2e"/><stop offset="0.85" stop-color="#262626"/><stop offset="1" stop-color="#3b3b3b"/></linearGradient><linearGradient id="Degradado_sin_nombre_2" x1="408.12" y1="-3.62" x2="408.12" y2="16.2" gradientTransform="matrix(1, 0, 0, -1, 0.5, 510)" gradientUnits="userSpaceOnUse"><stop offset="0.01"/><stop offset="1" stop-color="#969799"/></linearGradient><linearGradient id="Degradado_sin_nombre_3" x1="1.92" y1="23.11" x2="813.89" y2="23.11" gradientTransform="matrix(1, 0, 0, -1, 0.5, 510)" gradientUnits="userSpaceOnUse"><stop offset="0" stop-color="#d5d6d8"/><stop offset="0.01" stop-color="#f5f5f5"/><stop offset="0.02" stop-color="#cccdcf"/><stop offset="0.99" stop-color="#f5f5f5"/><stop offset="1" stop-color="#d5d6d8"/></linearGradient><linearGradient id="Degradado_sin_nombre_4" x1="407.91" y1="8.67" x2="407.91" y2="20.72" gradientTransform="matrix(1, 0, 0, -1, 0.5, 510)" gradientUnits="userSpaceOnUse"><stop offset="0" stop-color="#7d7d7d"/><stop offset="0.19" stop-color="#838383"/><stop offset="0.44" stop-color="#929393"/><stop offset="0.73" stop-color="#acadae"/><stop offset="1" stop-color="#cccdcf"/></linearGradient><linearGradient id="Degradado_sin_nombre_5" x1="344.94" y1="29.02" x2="471.27" y2="29.02" gradientTransform="matrix(1, 0, 0, -1, 0.5, 510)" gradientUnits="userSpaceOnUse"><stop offset="0" stop-color="#575756"/><stop offset="0.03" stop-color="#878788"/><stop offset="0.13" stop-color="#dadada"/><stop offset="0.89" stop-color="#dadada"/><stop offset="0.98" stop-color="#7d7d7d"/><stop offset="0.99" stop-color="#676767"/><stop offset="1" stop-color="#575756"/></linearGradient><linearGradient id="Degradado_sin_nombre_6" x1="408.11" y1="5.38" x2="408.11" y2="28" gradientTransform="matrix(1, 0, 0, -1, 0.5, 510)" gradientUnits="userSpaceOnUse"><stop offset="0.48" stop-color="#575756"/><stop offset="1" stop-color="#dadada"/></linearGradient><linearGradient id="Degradado_sin_nombre_7" x1="59.48" y1="-2.88" x2="59.48" y2="4.31" xlink:href="#Degradado_sin_nombre"/><linearGradient id="Degradado_sin_nombre_8" x1="756.73" y1="-2.88" x2="756.73" y2="4.31" xlink:href="#Degradado_sin_nombre"/></defs><path class="cls-1" d="M757.25,15.24v447.6H60V15.24A15.24,15.24,0,0,1,75.22,0H742a15.24,15.24,0,0,1,15.25,15.24Z" transform="translate(0 0)"/><path class="cls-2" d="M749.24,23.68V454.6H68V23.68a14.53,14.53,0,0,1,4.37-10.37A15,15,0,0,1,82.87,9H734.34a15.05,15.05,0,0,1,10.54,4.3A14.56,14.56,0,0,1,749.24,23.68Z" transform="translate(0 0)"/><path class="cls-3" d="M757.25,462.71H60v13.06H757.25Z" transform="translate(0 0)"/><path class="cls-1" d="M455,2.43H362.25V8.87h7.65a1.88,1.88,0,0,1,1.89,1.89v4.47a6,6,0,0,0,6,6h61.61a6,6,0,0,0,6-6V10.76a1.88,1.88,0,0,1,1.89-1.89H455Z" transform="translate(0 0)"/><path class="cls-4" d="M814.4,475.77v12.45a9.8,9.8,0,0,1-9.79,9.78H12.21a9.8,9.8,0,0,1-9.79-9.78V475.77H0v15.4a11.11,11.11,0,0,0,11.13,11.11h795a11.11,11.11,0,0,0,11.13-11.11v-15.4Z" transform="translate(0 0)"/><path class="cls-5" d="M12.21,498H804.6a9.78,9.78,0,0,0,3.74-.74,9.93,9.93,0,0,0,3.18-2.13,9.59,9.59,0,0,0,2.12-3.17,9.83,9.83,0,0,0,.75-3.74V475.77H2.42v12.45A9.8,9.8,0,0,0,12.21,498Z" transform="translate(0 0)"/><path class="cls-6" d="M12.21,498H804.6a9.78,9.78,0,0,0,3.74-.74,9.93,9.93,0,0,0,3.18-2.13,9.59,9.59,0,0,0,2.12-3.17,9.83,9.83,0,0,0,.75-3.74V475.77H2.42v12.45A9.8,9.8,0,0,0,12.21,498Z" transform="translate(0 0)"/><path class="cls-7" d="M787.17,503.66H29a127.2,127.2,0,0,1-19.78-1.54H807A127.23,127.23,0,0,1,787.17,503.66Z" transform="translate(0 0)"/><path class="cls-8" d="M345.45,475.64H471.77v2a8.71,8.71,0,0,1-8.71,8.71H354.15a8.71,8.71,0,0,1-8.71-8.71v-2Z" transform="translate(0 0)"/><path class="cls-9" d="M345.45,475.64H471.77v2a8.71,8.71,0,0,1-8.71,8.71H354.15a8.71,8.71,0,0,1-8.71-8.71v-2Z" transform="translate(0 0)"/><path class="cls-10" d="M79.28,507.06H40.67a3.41,3.41,0,0,1-3.41-3.41H82.69a3.41,3.41,0,0,1-3.41,3.41Z" transform="translate(0 0)"/><path class="cls-11" d="M776.57,507.06H737.94a3.41,3.41,0,0,1-3.41-3.41h45.41a3.41,3.41,0,0,1-3.37,3.41Z" transform="translate(0 0)"/></svg>