<svg xmlns="http://www.w3.org/2000/svg" viewBox="0 0 2000 609.92"><defs><style>.cls-1{fill:#fff;}.cls-2{fill:none;}</style></defs><g id="Capa_2" data-name="Capa 2"><g id="Logo"><g id="L7"><path class="cls-1" d="M252.49,406.33q-34.81,0-59-17.41T169.3,340.55h48q0,9.29,10.26,15.09t26.11,5.81q15.09,0,23.41-5.23t8.32-13.34q0-7.35-8.51-11.61t-21.09-5.8q-12.57-1.55-27.47-4.84a175.15,175.15,0,0,1-27.47-8.32,47,47,0,0,1-21.09-17q-8.5-12-8.51-30.18,0-25.16,23-41.79t57.07-16.64q34.83,0,56.88,16.83t22.05,46.63h-48q0-8.13-9.48-13.55t-22.24-5.41q-12.39,0-20.7,5T221.54,269q0,7.35,11.61,11.22a170.44,170.44,0,0,0,28.43,6.38,276.08,276.08,0,0,1,33.47,7.16A60.66,60.66,0,0,1,323.49,311q11.79,12.57,12.19,33.08.38,31-22.64,46.62T252.49,406.33ZM395,189.27a29.72,29.72,0,0,1-30.18-30.18,28.71,28.71,0,0,1,8.7-21.08A29.17,29.17,0,0,1,395,129.3a29.74,29.74,0,0,1,29.79,29.79A29.18,29.18,0,0,1,416,180.57,28.71,28.71,0,0,1,395,189.27Zm-25.15,214V209.78h50.3V403.23Z"/><path class="cls-1" d="M579.62,403.23V301.48q0-23.6-8.32-34.63t-26.5-11q-18.19,0-26.51,11T510,301.48V403.23H459.68V301.48q0-47.21,23.21-71t61.91-23.8q38.69,0,61.9,23.8t23.22,71V403.23Zm180.88,3.1q-41.4,0-70.61-29.21t-29.21-70.61q0-41.4,29.21-70.61t70.61-29.22q41.4,0,70.42,29.22t29,70.61v96.72h-50.3v-20.5q-4.26,9.67-18.57,16.64A69,69,0,0,1,760.5,406.33Zm-35.21-63.65q14.31,14.52,35.6,14.51t35.21-14.51Q810,328.17,810,306.51T796.1,270.33q-13.94-14.5-35.21-14.51t-35.6,14.51Q711,284.84,711,306.51T725.29,342.68Zm171.17-36.17q0-41.4,29-70.61t70.41-29.22q41.4,0,70.62,29.22t29.21,70.61q0,41.4-29.21,70.61t-70.62,29.21q-28.25,0-48.75-14.7v89H896.46Zm64.23,36.17Q975,357.2,996.28,357.19t35.21-14.51q13.93-14.51,13.93-36.17t-13.93-36.18q-13.93-14.5-35.21-14.51t-35.59,14.51q-14.33,14.51-14.32,36.18T960.69,342.68Zm242.47,63.65q-34.82,0-59-17.41T1120,340.55h48q0,9.29,10.25,15.09t26.12,5.81q15.09,0,23.41-5.23t8.32-13.34q0-7.35-8.51-11.61t-21.09-5.8q-12.59-1.55-27.47-4.84a175.15,175.15,0,0,1-27.47-8.32,47,47,0,0,1-21.09-17q-8.52-12-8.51-30.18,0-25.16,23-41.79T1202,206.68q34.82,0,56.88,16.83t22,46.63h-48q0-8.13-9.48-13.55t-22.24-5.41q-12.39,0-20.7,5T1172.21,269q0,7.35,11.61,11.22a170.44,170.44,0,0,0,28.43,6.38,276.08,276.08,0,0,1,33.47,7.16A60.66,60.66,0,0,1,1274.16,311q11.79,12.57,12.19,33.08.38,31-22.64,46.62T1203.16,406.33Zm142.46-217.06a29.72,29.72,0,0,1-30.18-30.18,28.71,28.71,0,0,1,8.7-21.08,29.17,29.17,0,0,1,21.48-8.71,29.74,29.74,0,0,1,29.79,29.79,29.18,29.18,0,0,1-8.71,21.48A28.71,28.71,0,0,1,1345.62,189.27Zm-25.15,214V209.78h50.29V403.23Zm168.61,3.1q-34.82,0-59-17.41t-24.18-48.37h48q0,9.29,10.26,15.09t26.11,5.81q15.09,0,23.41-5.23t8.32-13.34q0-7.35-8.51-11.61t-21.09-5.8q-12.57-1.55-27.47-4.84a175.15,175.15,0,0,1-27.47-8.32,47,47,0,0,1-21.09-17q-8.5-12-8.51-30.18,0-25.16,23-41.79t57.07-16.64q34.83,0,56.88,16.83t22,46.63h-48q0-8.13-9.48-13.55t-22.24-5.41q-12.39,0-20.7,5T1458.13,269q0,7.35,11.61,11.22a170.44,170.44,0,0,0,28.43,6.38,276.08,276.08,0,0,1,33.47,7.16A60.66,60.66,0,0,1,1560.08,311q11.81,12.57,12.19,33.08.38,31-22.64,46.62T1489.08,406.33Z"/><path class="cls-1" d="M1749.21,238l17.32-59.74,75.27,60.32a77.11,77.11,0,0,1,28.89,61.15h0A77.11,77.11,0,0,1,1841.78,359l-92.27,73.9V360.84l76.41-61.28ZM1604.46,435.75h29.26a38.63,38.63,0,0,0,37.09-27.87l67.78-233.71h-29.26A38.63,38.63,0,0,0,1672.24,202Z"/><rect class="cls-2" width="2000" height="609.92"/></g></g></g></svg>