<svg width="15" height="16" viewBox="0 0 15 16" fill="none" xmlns="http://www.w3.org/2000/svg">
<g id="image">
<path id="Vector" fill-rule="evenodd" clip-rule="evenodd" d="M1.54396 4.46486C1.58751 4.42121 1.63923 4.38657 1.69618 4.36294C1.75313 4.33931 1.81418 4.32715 1.87584 4.32715C1.93749 4.32715 1.99855 4.33931 2.05549 4.36294C2.11244 4.38657 2.16417 4.42121 2.20771 4.46486L7.50084 9.75892L12.794 4.46486C12.8375 4.42128 12.8893 4.38671 12.9462 4.36312C13.0032 4.33953 13.0642 4.32739 13.1258 4.32739C13.1875 4.32739 13.2485 4.33953 13.3054 4.36312C13.3624 4.38671 13.4141 4.42128 13.4577 4.46486C13.5013 4.50844 13.5359 4.56018 13.5595 4.61713C13.583 4.67407 13.5952 4.7351 13.5952 4.79674C13.5952 4.85837 13.583 4.9194 13.5595 4.97635C13.5359 5.03329 13.5013 5.08503 13.4577 5.12861L7.83271 10.7536C7.78917 10.7973 7.73744 10.8319 7.68049 10.8555C7.62355 10.8792 7.56249 10.8913 7.50084 10.8913C7.43918 10.8913 7.37813 10.8792 7.32118 10.8555C7.26423 10.8319 7.21251 10.7973 7.16896 10.7536L1.54396 5.12861C1.50031 5.08507 1.46568 5.03334 1.44204 4.97639C1.41841 4.91944 1.40625 4.85839 1.40625 4.79674C1.40625 4.73508 1.41841 4.67403 1.44204 4.61708C1.46568 4.56013 1.50031 4.5084 1.54396 4.46486Z" fill="#212529"/>
</g>
</svg>
