<svg width="45" height="45" viewBox="0 0 45 45" fill="none" xmlns="http://www.w3.org/2000/svg">
<path d="M7.5 33.7502V20.6252M15 33.7502V20.6252M22.5 33.7502V20.6252M30 33.7502V20.6252M37.5 33.7502V20.6252M1.875 41.2502H43.125M23.1937 4.03145L40.0688 10.7814C40.725 11.0439 41.25 11.8314 41.25 12.5252V18.7502C41.25 19.7814 40.4063 20.6252 39.375 20.6252H5.625C4.59375 20.6252 3.75 19.7814 3.75 18.7502V12.5252C3.75 11.8314 4.275 11.0439 4.93125 10.7814L21.8063 4.03145C22.1813 3.88145 22.8187 3.88145 23.1937 4.03145ZM41.25 41.2502H3.75V35.6252C3.75 34.5939 4.59375 33.7502 5.625 33.7502H39.375C40.4063 33.7502 41.25 34.5939 41.25 35.6252V41.2502Z" stroke="white" stroke-width="1.5" stroke-miterlimit="10" stroke-linecap="round" stroke-linejoin="round"/>
<path d="M22.5 15.9375C22.8693 15.9375 23.2351 15.8648 23.5763 15.7234C23.9175 15.5821 24.2276 15.3749 24.4887 15.1137C24.7499 14.8526 24.9571 14.5425 25.0984 14.2013C25.2398 13.8601 25.3125 13.4943 25.3125 13.125C25.3125 12.7557 25.2398 12.3899 25.0984 12.0487C24.9571 11.7075 24.7499 11.3974 24.4887 11.1363C24.2276 10.8751 23.9175 10.6679 23.5763 10.5266C23.2351 10.3852 22.8693 10.3125 22.5 10.3125C21.7541 10.3125 21.0387 10.6088 20.5113 11.1363C19.9838 11.6637 19.6875 12.3791 19.6875 13.125C19.6875 13.8709 19.9838 14.5863 20.5113 15.1137C21.0387 15.6412 21.7541 15.9375 22.5 15.9375Z" stroke="white" stroke-width="1.5" stroke-miterlimit="10" stroke-linecap="round" stroke-linejoin="round"/>
</svg>
