<svg width="45" height="45" viewBox="0 0 45 45" fill="none" xmlns="http://www.w3.org/2000/svg">
<path d="M22.7812 30.9375V34.875" stroke="white" stroke-width="1.5" stroke-linecap="round" stroke-linejoin="round"/>
<path d="M13.4062 41.25H32.1562V39.375C32.1562 37.3125 30.4687 35.625 28.4062 35.625H17.1562C15.0937 35.625 13.4062 37.3125 13.4062 39.375V41.25Z" stroke="white" stroke-width="1.5" stroke-miterlimit="10"/>
<path d="M11.5313 41.25H34.0312M22.5 30C15.2438 30 9.375 24.1312 9.375 16.875V11.25C9.375 7.10625 12.7312 3.75 16.875 3.75H28.125C32.2688 3.75 35.625 7.10625 35.625 11.25V16.875C35.625 24.1312 29.7562 30 22.5 30Z" stroke="white" stroke-width="1.5" stroke-linecap="round" stroke-linejoin="round"/>
<path d="M10.2555 21.8438C8.84922 21.3938 7.61172 20.5688 6.63672 19.5938C4.94922 17.7188 3.82422 15.4688 3.82422 12.8438C3.82422 10.2188 5.88672 8.15625 8.51172 8.15625H9.73047C9.35547 9.01875 9.16797 9.975 9.16797 10.9688V16.5938C9.16797 18.4688 9.56172 20.2313 10.2555 21.8438ZM34.743 21.8438C36.1492 21.3938 37.3867 20.5688 38.3617 19.5938C40.0492 17.7188 41.1742 15.4688 41.1742 12.8438C41.1742 10.2188 39.1117 8.15625 36.4867 8.15625H35.268C35.643 9.01875 35.8305 9.975 35.8305 10.9688V16.5938C35.8305 18.4688 35.4367 20.2313 34.743 21.8438Z" stroke="white" stroke-width="1.5" stroke-linecap="round" stroke-linejoin="round"/>
</svg>
