<svg width="38" height="40" viewBox="0 0 38 40" fill="none" xmlns="http://www.w3.org/2000/svg">
<path d="M27.3719 5.49989C31.0094 5.49989 33.9344 8.44364 33.9344 12.0624C33.9344 15.6061 31.1219 18.4936 27.6156 18.6249C27.4537 18.6061 27.2901 18.6061 27.1281 18.6249M30.9906 35.4999C32.3406 35.2186 33.6156 34.6749 34.6656 33.8686C37.5906 31.6749 37.5906 28.0561 34.6656 25.8624C33.6344 25.0749 32.3781 24.5499 31.0469 24.2499M13.7781 18.3811C13.5906 18.3624 13.3656 18.3624 13.1594 18.3811C11.0073 18.3081 8.96808 17.4002 7.47368 15.8498C5.97928 14.2994 5.14701 12.2282 5.15313 10.0749C5.15313 5.48114 8.86563 1.74989 13.4781 1.74989C15.6836 1.71011 17.8145 2.54806 19.4021 4.07941C20.9897 5.61077 21.904 7.71007 21.9438 9.91551C21.9835 12.121 21.1456 14.2519 19.6142 15.8395C18.0829 17.4271 15.9836 18.3414 13.7781 18.3811ZM4.40313 25.2999C-0.134375 28.3374 -0.134375 33.2874 4.40313 36.3061C9.55938 39.7561 18.0156 39.7561 23.1719 36.3061C27.7094 33.2686 27.7094 28.3186 23.1719 25.2999C18.0344 21.8686 9.57813 21.8686 4.40313 25.2999Z" stroke="white" stroke-width="1.5" stroke-linecap="round" stroke-linejoin="round"/>
</svg>
