<svg width="589" height="575" viewBox="0 0 589 575" fill="none" xmlns="http://www.w3.org/2000/svg">
<g filter="url(#filter0_d_1042_434)">
<path d="M300.108 132.099L336.029 8.54412L492.083 133.297C511.041 148.452 526.289 167.717 536.669 189.629C547.049 211.541 552.288 235.524 551.988 259.757C551.696 283.335 546.169 306.555 535.803 327.746C525.437 348.937 510.491 367.573 492.039 382.311L300.721 535.145V386.069L459.147 259.329L300.108 132.099ZM0 541H60.6525C77.9981 541.003 94.8756 535.387 108.745 524.996C122.615 514.605 132.726 500.002 137.558 483.384L278.082 1.32211e-06H217.43C200.084 -0.00314603 183.207 5.6131 169.337 16.0039C155.467 26.3947 145.356 40.9978 140.524 57.6157L0 541Z" fill="white"/>
</g>
<defs>
<filter id="filter0_d_1042_434" x="0" y="0" width="589" height="575" filterUnits="userSpaceOnUse" color-interpolation-filters="sRGB">
<feFlood flood-opacity="0" result="BackgroundImageFix"/>
<feColorMatrix in="SourceAlpha" type="matrix" values="0 0 0 0 0 0 0 0 0 0 0 0 0 0 0 0 0 0 127 0" result="hardAlpha"/>
<feOffset dx="30" dy="27"/>
<feGaussianBlur stdDeviation="3.5"/>
<feComposite in2="hardAlpha" operator="out"/>
<feColorMatrix type="matrix" values="0 0 0 0 0 0 0 0 0 0 0 0 0 0 0 0 0 0 0.08 0"/>
<feBlend mode="normal" in2="BackgroundImageFix" result="effect1_dropShadow_1042_434"/>
<feBlend mode="normal" in="SourceGraphic" in2="effect1_dropShadow_1042_434" result="shape"/>
</filter>
</defs>
</svg>
