<svg width="48" height="48" viewBox="0 0 48 48" fill="none" xmlns="http://www.w3.org/2000/svg">
<g id="image">
<g id="Vector">
<mask id="path-1-inside-1_1042_287" fill="white">
<path fill-rule="evenodd" clip-rule="evenodd" d="M34.0613 4.938C34.201 5.07733 34.3118 5.24286 34.3874 5.4251C34.463 5.60733 34.502 5.80269 34.502 6C34.502 6.1973 34.463 6.39266 34.3874 6.5749C34.3118 6.75713 34.201 6.92266 34.0613 7.062L17.1203 24L34.0613 40.938C34.2007 41.0775 34.3114 41.243 34.3868 41.4252C34.4623 41.6075 34.5012 41.8028 34.5012 42C34.5012 42.1972 34.4623 42.3925 34.3868 42.5747C34.3114 42.757 34.2007 42.9225 34.0613 43.062C33.9218 43.2015 33.7562 43.3121 33.574 43.3876C33.3918 43.463 33.1965 43.5019 32.9993 43.5019C32.802 43.5019 32.6067 43.463 32.4245 43.3876C32.2423 43.3121 32.0767 43.2015 31.9373 43.062L13.9373 25.062C13.7976 24.9227 13.6868 24.7571 13.6111 24.5749C13.5355 24.3927 13.4966 24.1973 13.4966 24C13.4966 23.8027 13.5355 23.6073 13.6111 23.4251C13.6868 23.2429 13.7976 23.0773 13.9373 22.938L31.9373 4.938C32.0766 4.79831 32.2421 4.68748 32.4244 4.61186C32.6066 4.53624 32.802 4.49731 32.9993 4.49731C33.1966 4.49731 33.3919 4.53624 33.5742 4.61186C33.7564 4.68748 33.9219 4.79831 34.0613 4.938Z"/>
</mask>
<path fill-rule="evenodd" clip-rule="evenodd" d="M34.0613 4.938C34.201 5.07733 34.3118 5.24286 34.3874 5.4251C34.463 5.60733 34.502 5.80269 34.502 6C34.502 6.1973 34.463 6.39266 34.3874 6.5749C34.3118 6.75713 34.201 6.92266 34.0613 7.062L17.1203 24L34.0613 40.938C34.2007 41.0775 34.3114 41.243 34.3868 41.4252C34.4623 41.6075 34.5012 41.8028 34.5012 42C34.5012 42.1972 34.4623 42.3925 34.3868 42.5747C34.3114 42.757 34.2007 42.9225 34.0613 43.062C33.9218 43.2015 33.7562 43.3121 33.574 43.3876C33.3918 43.463 33.1965 43.5019 32.9993 43.5019C32.802 43.5019 32.6067 43.463 32.4245 43.3876C32.2423 43.3121 32.0767 43.2015 31.9373 43.062L13.9373 25.062C13.7976 24.9227 13.6868 24.7571 13.6111 24.5749C13.5355 24.3927 13.4966 24.1973 13.4966 24C13.4966 23.8027 13.5355 23.6073 13.6111 23.4251C13.6868 23.2429 13.7976 23.0773 13.9373 22.938L31.9373 4.938C32.0766 4.79831 32.2421 4.68748 32.4244 4.61186C32.6066 4.53624 32.802 4.49731 32.9993 4.49731C33.1966 4.49731 33.3919 4.53624 33.5742 4.61186C33.7564 4.68748 33.9219 4.79831 34.0613 4.938Z" fill="#7042EF"/>
<path d="M34.0613 4.938L26.9813 12.0001L26.9902 12.0091L26.9991 12.018L34.0613 4.938ZM34.0613 7.062L26.9991 -0.0180097L26.9908 -0.00969887L34.0613 7.062ZM17.1203 24L10.0498 16.9283L2.97688 24L10.0498 31.0717L17.1203 24ZM34.0613 40.938L41.1323 33.8669L41.1317 33.8663L34.0613 40.938ZM32.9993 43.5019V33.5019V43.5019ZM31.9373 43.062L39.0083 35.9909L39.0083 35.9909L31.9373 43.062ZM13.9373 25.062L21.0083 17.9909L20.9994 17.982L13.9373 25.062ZM13.9373 22.938L20.9994 30.018L21.0083 30.0091L13.9373 22.938ZM31.9373 4.938L39.0083 12.0091L39.0173 12.0001L31.9373 4.938ZM26.9991 12.018C26.2076 11.2284 25.5795 10.2904 25.151 9.25777L43.6238 1.59242C43.044 0.195273 42.1943 -1.07376 41.1234 -2.142L26.9991 12.018ZM25.151 9.25777C24.7225 8.22506 24.502 7.118 24.502 6L44.502 6C44.502 4.48739 44.2035 2.9896 43.6238 1.59242L25.151 9.25777ZM24.502 6C24.502 4.882 24.7225 3.77493 25.151 2.74222L43.6238 10.4076C44.2036 9.01039 44.502 7.5126 44.502 6L24.502 6ZM25.151 2.74222C25.5796 1.70954 26.2076 0.771562 26.9991 -0.0180049L41.1234 14.142C42.1943 13.0738 43.044 11.8047 43.6238 10.4076L25.151 2.74222ZM26.9908 -0.00969887L10.0498 16.9283L24.1907 31.0717L41.1317 14.1337L26.9908 -0.00969887ZM10.0498 31.0717L26.9908 48.0097L41.1317 33.8663L24.1907 16.9283L10.0498 31.0717ZM26.9902 48.0091C26.2011 47.22 25.5751 46.2831 25.148 45.2521L43.6256 37.5984C43.0476 36.2029 42.2004 34.935 41.1323 33.8669L26.9902 48.0091ZM25.148 45.2521C24.721 44.221 24.5012 43.116 24.5012 42H44.5012C44.5012 40.4896 44.2037 38.9939 43.6256 37.5984L25.148 45.2521ZM24.5012 42C24.5012 40.884 24.721 39.7789 25.148 38.7479L43.6256 46.4016C44.2037 45.0061 44.5012 43.5105 44.5012 42H24.5012ZM25.148 38.7479C25.5751 37.7169 26.2011 36.78 26.9902 35.9909L41.1323 50.1331C42.2004 49.065 43.0476 47.7971 43.6256 46.4016L25.148 38.7479ZM26.9902 35.9909C27.7793 35.2018 28.7162 34.5758 29.7472 34.1488L37.4009 52.6264C38.7963 52.0483 40.0643 51.2011 41.1323 50.1331L26.9902 35.9909ZM29.7472 34.1488C30.7782 33.7217 31.8833 33.5019 32.9993 33.5019V53.5019C34.5097 53.5019 36.0054 53.2044 37.4009 52.6264L29.7472 34.1488ZM32.9993 33.5019C34.1153 33.5019 35.2203 33.7217 36.2514 34.1488L28.5977 52.6264C29.9932 53.2044 31.4888 53.5019 32.9993 53.5019V33.5019ZM36.2514 34.1488C37.2824 34.5758 38.2192 35.2018 39.0083 35.9909L24.8662 50.1331C25.9343 51.2011 27.2022 52.0483 28.5977 52.6264L36.2514 34.1488ZM39.0083 35.9909L21.0083 17.9909L6.8662 32.1331L24.8662 50.1331L39.0083 35.9909ZM20.9994 17.982C21.791 18.7716 22.419 19.7096 22.8475 20.7422L4.37476 28.4076C4.95448 29.8046 5.80414 31.0737 6.87514 32.142L20.9994 17.982ZM22.8475 20.7422C23.276 21.7749 23.4966 22.882 23.4966 24L3.49659 24C3.49659 25.5126 3.79501 27.0104 4.37476 28.4076L22.8475 20.7422ZM23.4966 24C23.4966 25.118 23.276 26.2251 22.8475 27.2578L4.37476 19.5924C3.79501 20.9896 3.49659 22.4874 3.49659 24L23.4966 24ZM22.8475 27.2578C22.419 28.2904 21.791 29.2284 20.9994 30.018L6.87514 15.858C5.80416 16.9263 4.95449 18.1953 4.37476 19.5924L22.8475 27.2578ZM21.0083 30.0091L39.0083 12.0091L24.8662 -2.13307L6.8662 15.8669L21.0083 30.0091ZM39.0173 12.0001C38.2277 12.7917 37.2897 13.4197 36.257 13.8482L28.5917 -4.62452C27.1946 -4.04477 25.9255 -3.19508 24.8573 -2.12413L39.0173 12.0001ZM36.257 13.8482C35.2244 14.2767 34.1173 14.4973 32.9993 14.4973V-5.50269C31.4866 -5.50269 29.9888 -5.20426 28.5917 -4.62452L36.257 13.8482ZM32.9993 14.4973C31.8812 14.4973 30.7742 14.2767 29.7415 13.8482L37.4068 -4.62452C36.0097 -5.20426 34.5119 -5.50269 32.9993 -5.50269V14.4973ZM29.7415 13.8482C28.7088 13.4197 27.7708 12.7917 26.9813 12.0001L41.1413 -2.12413C40.073 -3.19508 38.804 -4.04477 37.4068 -4.62452L29.7415 13.8482Z" fill="#B6B8DC" mask="url(#path-1-inside-1_1042_287)"/>
</g>
</g>
</svg>
