<svg width="82" height="83" viewBox="0 0 82 83" fill="none" xmlns="http://www.w3.org/2000/svg">
<g id="logo 1">
<path id="Vector" d="M8.14844 8.6853H72.6901V73.9903H8.14844V8.6853Z" fill="#F0DB4F"/>
<path id="Vector_2" d="M67.4513 58.3171C66.9339 55.3784 65.0585 52.8968 59.3674 50.5458C57.4273 49.6315 55.1638 48.9785 54.5171 47.4765C54.2584 46.5622 54.2584 46.1051 54.3878 45.5173C54.8405 43.8194 56.8453 43.2969 58.462 43.7541C59.0372 43.9692 59.5631 44.3001 60.0078 44.7267C60.4525 45.1532 60.8067 45.6666 61.0489 46.2357L65.8345 43.1663C65.3931 42.4154 64.8727 41.7148 64.2824 41.0766C62.601 39.1827 60.3375 38.2031 56.6512 38.2684L54.7111 38.5297C52.965 38.9868 51.2189 39.9664 50.1841 41.2725C49.4742 42.1638 48.9499 43.1909 48.6428 44.2919C48.3357 45.393 48.2522 46.5453 48.3971 47.6798C48.5421 48.8143 48.9126 49.9075 49.4864 50.8938C50.0602 51.88 50.8255 52.739 51.7362 53.4192C55.3578 56.2273 60.7902 56.8151 61.4369 59.4273C62.0836 62.6272 59.1087 63.6721 56.1985 63.2803C53.9997 62.8231 52.771 61.7129 51.4776 59.6232L46.5626 62.4966C47.1446 63.8027 47.7266 64.4558 48.7614 65.5006C53.4177 70.3332 65.1231 70.072 67.2573 62.8884C67.322 62.5619 67.904 60.9293 67.4513 58.3171ZM43.2643 38.7256H37.1853V54.3988C37.1853 57.7946 37.3146 60.9293 36.7972 61.8436C35.8919 63.6721 33.6284 63.4109 32.5936 63.0844C31.6088 62.5663 30.8153 61.742 30.3301 60.7334L30.0068 60.2109L25.0918 63.215C25.8672 64.8991 27.1008 66.326 28.6487 67.3292C30.9769 68.7659 34.0811 69.1577 37.3146 68.4394C39.3841 67.7863 41.1949 66.4802 42.1649 64.5211C43.523 62.0395 43.329 58.9701 43.329 55.509V38.7256H43.2643Z" fill="#323330"/>
</g>
</svg>
