<svg width="90" height="80" viewBox="0 0 90 80" fill="none" xmlns="http://www.w3.org/2000/svg">
<g id="descarga 1" clip-path="url(#clip0_1042_397)">
<path id="Vector" d="M44.7201 47.6517C49.0852 47.6517 52.6237 44.1044 52.6237 39.7287C52.6237 35.3529 49.0852 31.8057 44.7201 31.8057C40.355 31.8057 36.8164 35.3529 36.8164 39.7287C36.8164 44.1044 40.355 47.6517 44.7201 47.6517Z" fill="#1783E7"/>
<g id="Group">
<path id="Vector_2" d="M44.7205 55.9613C68.1429 55.9613 87.1304 48.6938 87.1304 39.7288C87.1304 30.7639 68.1429 23.4963 44.7205 23.4963C21.2981 23.4963 2.31055 30.7639 2.31055 39.7288C2.31055 48.6938 21.2981 55.9613 44.7205 55.9613Z" stroke="#1783E7"/>
<path id="Vector_3" d="M30.6971 47.845C42.4083 68.179 58.1806 81.0292 65.9256 76.5467C73.6705 72.0642 70.4552 51.9465 58.744 31.6126C47.0329 11.2786 31.2605 -1.57156 23.5156 2.91092C15.7707 7.39339 18.9859 27.5111 30.6971 47.845Z" stroke="#1783E7"/>
<path id="Vector_4" d="M30.6973 31.6125C18.9862 51.9465 15.7709 72.0642 23.5158 76.5466C31.2608 81.0291 47.0331 68.1789 58.7442 47.845C70.4554 27.511 73.6707 7.39334 65.9258 2.91086C58.1808 -1.57162 42.4085 11.2786 30.6973 31.6125Z" stroke="#1783E7"/>
</g>
</g>
<defs>
<clipPath id="clip0_1042_397">
<rect width="88.6753" height="79.0888" fill="white" transform="translate(0.382812 0.184326)"/>
</clipPath>
</defs>
</svg>
