<svg width="140" height="52" viewBox="0 0 140 52" fill="none" xmlns="http://www.w3.org/2000/svg">
<path id="Vector" d="M72.4734 28.1073C72.4734 30.5145 71.1347 32.2287 68.3143 32.2287C65.3246 32.2287 64.0864 30.6151 64.0864 28.2079V13.5001H58.0011V28.0015C58.0011 33.7418 61.4353 37.1066 68.309 37.1066C75.1457 37.1066 78.5481 33.673 78.5481 28.0015V13.5053H72.4628V28.1073H72.4734ZM92.3442 18.5578C89.9048 18.5578 88.2221 19.5895 86.9151 21.4782H86.8092V19.071H81.4119V36.6622H87.0156V26.9434C87.0156 24.7796 88.2538 23.2347 90.1058 23.2347C91.9261 23.2347 92.8574 24.5045 92.8574 26.3614V36.6675H98.4612V25.224C98.4612 21.3089 96.1911 18.5578 92.3442 18.5578ZM106.942 12.0981H101.338V16.6374H106.942V12.0981ZM106.942 19.071H101.338V36.6622H106.942V19.071ZM116.812 13.5053H111.345V19.071H109.007V23.6103H111.345V32.0277C111.345 35.8051 113.684 36.8738 116.949 36.8738C118.463 36.8738 119.526 36.7363 120.008 36.5987V32.5091C119.801 32.5091 119.251 32.5461 118.769 32.5461C117.568 32.5461 116.812 32.2022 116.812 30.8267V23.6103H120.008V19.071H116.812V13.5053ZM131.936 26.5625C131.386 28.2819 130.905 30.6151 130.905 30.6151H130.836C130.836 30.6151 130.285 28.2766 129.735 26.5625L127.365 19.071H121.454L126.645 32.6096C127.365 34.4666 127.708 35.4983 127.708 36.2495C127.708 37.4505 127.058 38.1065 125.407 38.1065H123.481V42.4712H127.121C130.661 42.4712 132.344 41.0269 133.751 36.9056L139.837 19.071H134.233L131.936 26.5625ZM25.4482 9.3205L33.5442 13.9921C33.8353 14.1561 33.8458 14.6111 33.5442 14.7751L23.9242 20.3302C23.6332 20.4995 23.2893 20.4889 23.0194 20.3302L13.3994 14.7751C13.1031 14.6164 13.0978 14.1508 13.3994 13.9921L21.4901 9.3205V0.173096L0.832031 12.0981V35.948L8.75344 31.3769V22.0338C8.74815 21.7004 9.13972 21.4624 9.43076 21.6423L19.0507 27.1974C19.3418 27.3667 19.5058 27.6682 19.5058 27.9804V39.0853C19.5111 39.4186 19.1195 39.6567 18.8285 39.4768L10.7325 34.8052L2.81106 39.3763L23.4692 51.3012L44.1273 39.3763L36.2059 34.8052L28.1098 39.4768C27.8241 39.6514 27.4219 39.4239 27.4325 39.0853V27.9804C27.4325 27.6471 27.6177 27.3508 27.8876 27.1974L37.5076 21.6423C37.7933 21.4677 38.1955 21.6899 38.1849 22.0338V31.3769L46.1063 35.948V12.0981L25.4482 0.173096V9.3205Z" fill="black"/>
</svg>
