<svg width="73" height="71" viewBox="0 0 73 71" fill="none" xmlns="http://www.w3.org/2000/svg">
<path id="Vector" d="M36.4724 0.184326C16.9341 0.184326 0.962891 15.976 0.962891 35.2948C0.962891 54.6937 16.9341 70.4855 36.4724 70.4855C56.0918 70.4855 72.0629 54.6937 72.0629 35.2948C72.0629 15.976 56.0918 0.184326 36.4724 0.184326ZM4.53005 35.2948C4.53005 30.7256 5.50292 26.397 7.2865 22.4691L22.528 63.7521C11.9076 58.6216 4.53005 47.8 4.53005 35.2948ZM36.4724 66.8782C33.3106 66.8782 30.3109 66.3973 27.4734 65.5957L37.0399 38.0202L46.8496 64.6338C46.9306 64.7941 47.0117 64.9544 47.0928 65.0345C43.7688 66.237 40.2017 66.8782 36.4724 66.8782ZM40.9313 20.5451C42.8771 20.465 44.5796 20.2246 44.5796 20.2246C46.2821 19.9841 46.1199 17.4991 44.3364 17.6594C44.3364 17.6594 39.1478 18.0602 35.8238 18.0602C32.662 18.0602 27.3923 17.6594 27.3923 17.6594C25.6898 17.5793 25.4466 20.1444 27.2302 20.2246C27.2302 20.2246 28.8516 20.3848 30.5541 20.5451L35.4995 34.0122L28.5273 54.6937L16.9341 20.5451C18.8798 20.465 20.5823 20.2246 20.5823 20.2246C22.2848 19.9841 22.1227 17.4991 20.3391 17.6594C20.3391 17.6594 15.1505 18.0602 11.8265 18.0602H9.79973C15.5558 9.40283 25.3655 3.71141 36.4724 3.71141C44.8228 3.71141 52.3625 6.83768 58.0375 11.968H57.6321C54.4703 11.968 52.2814 14.6935 52.2814 17.5793C52.2814 20.1444 53.8218 22.389 55.4432 24.9541C56.6593 27.0383 58.0375 29.7637 58.0375 33.6916C58.0375 36.417 57.2268 39.7839 55.6053 43.8721L52.4435 54.3732L40.9313 20.5451ZM52.5246 62.6297L62.2532 34.7337C64.0368 30.2448 64.6854 26.6374 64.6854 23.431C64.6854 22.2287 64.6043 21.1864 64.4422 20.1444C66.9554 24.6335 68.3336 29.8439 68.3336 35.2948C68.4147 46.9984 62.0911 57.1787 52.5246 62.6297Z" fill="black"/>
</svg>
