<svg width="45" height="45" viewBox="0 0 45 45" fill="none" xmlns="http://www.w3.org/2000/svg">
<path d="M33.0608 27.685C35.9721 28.1737 39.1808 27.6638 41.4333 26.155C44.4296 24.1575 44.4296 20.885 41.4333 18.8875C39.1596 17.3788 35.9083 16.8688 32.9971 17.3788M11.8746 27.685C8.96332 28.1737 5.75457 27.6638 3.50207 26.155C0.50582 24.1575 0.50582 20.885 3.50207 18.8875C5.77582 17.3788 9.02707 16.8688 11.9383 17.3788M35.2496 12.215C35.1158 12.1937 34.9796 12.1937 34.8458 12.215C33.4277 12.1637 32.085 11.5631 31.1016 10.54C30.1182 9.51692 29.571 8.15157 29.5758 6.7325C29.5758 3.69375 32.0196 1.25 35.0583 1.25C36.5124 1.25 37.9069 1.82762 38.935 2.85579C39.9632 3.88396 40.5408 5.27845 40.5408 6.7325C40.5369 8.15258 39.9841 9.51616 38.9979 10.538C38.0117 11.5598 36.6686 12.1607 35.2496 12.215ZM9.68582 12.215C9.81332 12.1937 9.96207 12.1937 10.0896 12.215C11.5077 12.1637 12.8504 11.5631 13.8338 10.54C14.8172 9.51692 15.3644 8.15157 15.3596 6.7325C15.3596 3.69375 12.9158 1.25 9.87707 1.25C8.42302 1.25 7.02853 1.82762 6.00036 2.85579C4.97219 3.88396 4.39457 5.27845 4.39457 6.7325C4.41582 9.7075 6.75332 12.1087 9.68582 12.215ZM22.4996 28.0888C22.3658 28.0675 22.2296 28.0675 22.0958 28.0888C20.6777 28.0375 19.335 27.4368 18.3516 26.4137C17.3682 25.3907 16.821 24.0253 16.8258 22.6063C16.8258 19.5675 19.2696 17.1238 22.3083 17.1238C23.7624 17.1238 25.1569 17.7014 26.185 18.7295C27.2132 19.7577 27.7908 21.1522 27.7908 22.6063C27.7696 25.5813 25.4321 28.0038 22.4996 28.0888ZM16.3158 34.7825C13.3196 36.78 13.3196 40.0525 16.3158 42.05C19.7158 44.3238 25.2833 44.3238 28.6833 42.05C31.6796 40.0525 31.6796 36.78 28.6833 34.7825C25.3046 32.53 19.7158 32.53 16.3158 34.7825Z" stroke="#7042EF" stroke-width="1.5" stroke-linecap="round" stroke-linejoin="round"/>
</svg>
