<svg width="46" height="46" viewBox="0 0 46 46" fill="none" xmlns="http://www.w3.org/2000/svg">
<path d="M23.2871 31.625V35.65" stroke="#7042EF" stroke-width="1.5" stroke-linecap="round" stroke-linejoin="round"/>
<path d="M13.7041 42.1666H32.8708V40.25C32.8708 38.1416 31.1458 36.4166 29.0374 36.4166H17.5374C15.4291 36.4166 13.7041 38.1416 13.7041 40.25V42.1666Z" stroke="#7042EF" stroke-width="1.5" stroke-miterlimit="10"/>
<path d="M11.7872 42.1667H34.7872M22.9997 30.6667C15.5822 30.6667 9.58301 24.6675 9.58301 17.25V11.5C9.58301 7.26421 13.0138 3.83337 17.2497 3.83337H28.7497C32.9855 3.83337 36.4163 7.26421 36.4163 11.5V17.25C36.4163 24.6675 30.4172 30.6667 22.9997 30.6667Z" stroke="#7042EF" stroke-width="1.5" stroke-linecap="round" stroke-linejoin="round"/>
<path d="M10.4843 22.3292C9.04682 21.8692 7.78182 21.0259 6.78516 20.0292C5.06016 18.1125 3.91016 15.8125 3.91016 13.1292C3.91016 10.4459 6.01849 8.33752 8.70182 8.33752H9.94766C9.56432 9.21919 9.37266 10.1967 9.37266 11.2125V16.9625C9.37266 18.8792 9.77516 20.6809 10.4843 22.3292ZM35.516 22.3292C36.9535 21.8692 38.2185 21.0259 39.2152 20.0292C40.9402 18.1125 42.0902 15.8125 42.0902 13.1292C42.0902 10.4459 39.9818 8.33752 37.2985 8.33752H36.0527C36.436 9.21919 36.6277 10.1967 36.6277 11.2125V16.9625C36.6277 18.8792 36.2252 20.6809 35.516 22.3292Z" stroke="#7042EF" stroke-width="1.5" stroke-linecap="round" stroke-linejoin="round"/>
</svg>
