<svg width="51" height="51" viewBox="0 0 51 51" fill="none" xmlns="http://www.w3.org/2000/svg">
<path d="M25.5 46.75C37.2364 46.75 46.75 37.2364 46.75 25.5C46.75 13.7636 37.2364 4.25 25.5 4.25C13.7636 4.25 4.25 13.7636 4.25 25.5C4.25 37.2364 13.7636 46.75 25.5 46.75Z" stroke="#7042EF" stroke-width="1.5" stroke-linecap="round" stroke-linejoin="round"/>
<path d="M17.0003 6.375H19.1253C14.9817 18.7883 14.9817 32.2117 19.1253 44.625H17.0003M31.8753 6.375C36.019 18.7883 36.019 32.2117 31.8753 44.625" stroke="#7042EF" stroke-width="1.5" stroke-linecap="round" stroke-linejoin="round"/>
<path d="M6.375 34V31.875C18.7883 36.0187 32.2117 36.0187 44.625 31.875V34M6.375 19.125C18.7883 14.9813 32.2117 14.9813 44.625 19.125" stroke="#7042EF" stroke-width="1.5" stroke-linecap="round" stroke-linejoin="round"/>
</svg>
