<svg width="46" height="46" viewBox="0 0 46 46" fill="none" xmlns="http://www.w3.org/2000/svg">
<path d="M36.4164 17.25C36.4164 20.0292 35.5923 22.5784 34.1739 24.7059C33.1346 26.256 31.7827 27.5717 30.205 28.5685C28.6272 29.5653 26.8585 30.2212 25.0123 30.4942C24.3606 30.6092 23.6898 30.6667 22.9998 30.6667C22.3098 30.6667 21.6389 30.6092 20.9873 30.4942C19.1411 30.2212 17.3723 29.5653 15.7946 28.5685C14.2168 27.5717 12.8649 26.256 11.8256 24.7059C10.3542 22.4985 9.5735 19.9029 9.5831 17.25C9.5831 9.83254 15.5823 3.83337 22.9998 3.83337C30.4173 3.83337 36.4164 9.83254 36.4164 17.25Z" stroke="#7042EF" stroke-width="1.5" stroke-linecap="round" stroke-linejoin="round"/>
<path d="M40.7295 35.4008L37.567 36.1483C36.8578 36.3208 36.302 36.8575 36.1487 37.5666L35.4778 40.3841C35.3956 40.73 35.2187 41.0461 34.967 41.2972C34.7154 41.5484 34.3989 41.7245 34.0528 41.8061C33.7068 41.8876 33.3449 41.8713 33.0076 41.759C32.6703 41.6466 32.3709 41.4427 32.1428 41.17L23.0003 30.6666L13.8578 41.1891C13.6298 41.4619 13.3304 41.6658 12.9931 41.7781C12.6558 41.8905 12.2939 41.9068 11.9479 41.8252C11.6018 41.7437 11.2853 41.5675 11.0336 41.3164C10.782 41.0653 10.6051 40.7491 10.5228 40.4033L9.85201 37.5858C9.77048 37.2411 9.59463 36.9258 9.34414 36.6753C9.09365 36.4248 8.77841 36.249 8.43368 36.1675L5.27118 35.42C4.93984 35.3405 4.63556 35.1745 4.3895 34.9388C4.14344 34.7031 3.96445 34.4062 3.87084 34.0786C3.77724 33.751 3.77239 33.4044 3.85679 33.0743C3.94119 32.7442 4.11181 32.4424 4.35118 32.2L11.8262 24.725C12.8655 26.2751 14.2174 27.5907 15.7952 28.5876C17.3729 29.5844 19.1416 30.2403 20.9878 30.5133C21.6395 30.6283 22.3103 30.6858 23.0003 30.6858C23.6903 30.6858 24.3612 30.6283 25.0128 30.5133C28.827 29.9575 32.1045 27.7916 34.1745 24.725L41.6495 32.2C42.7037 33.235 42.1862 35.0558 40.7295 35.4008ZM24.112 11.4616L25.2428 13.7233C25.3962 14.03 25.7987 14.3366 26.1628 14.3941L28.2137 14.7391C29.517 14.95 29.8237 15.9083 28.8845 16.8475L27.2937 18.4383C27.0253 18.7066 26.872 19.2241 26.9678 19.6075L27.4278 21.5816C27.792 23.1341 26.9678 23.7475 25.5878 22.9233L23.6712 21.7925C23.4765 21.6886 23.2593 21.6343 23.0387 21.6343C22.8181 21.6343 22.6008 21.6886 22.4062 21.7925L20.4895 22.9233C19.1095 23.7283 18.2853 23.1341 18.6495 21.5816L19.1095 19.6075C19.1862 19.2433 19.052 18.7066 18.7837 18.4383L17.1928 16.8475C16.2537 15.9083 16.5603 14.9691 17.8637 14.7391L19.9145 14.3941C20.2595 14.3366 20.662 14.03 20.8153 13.7233L21.9462 11.4616C22.502 10.235 23.4987 10.235 24.112 11.4616Z" stroke="#7042EF" stroke-width="1.5" stroke-linecap="round" stroke-linejoin="round"/>
</svg>
