<svg width="44" height="44" viewBox="0 0 44 44" fill="none" xmlns="http://www.w3.org/2000/svg">
<g id="Iconsax/Linear/call">
<path id="Vector" d="M40.2782 33.605C40.2782 34.265 40.1315 34.9433 39.8198 35.6033C39.5082 36.2633 39.1048 36.8867 38.5732 37.4733C37.6748 38.4633 36.6848 39.1783 35.5665 39.6367C34.4665 40.095 33.2748 40.3333 31.9915 40.3333C30.1215 40.3333 28.1232 39.8933 26.0148 38.995C23.9065 38.0967 21.7982 36.8867 19.7082 35.365C17.578 33.8068 15.5679 32.0909 13.6948 30.2317C11.8409 28.3653 10.131 26.3613 8.57984 24.2367C7.0765 22.1467 5.8665 20.0567 4.9865 17.985C4.1065 15.895 3.6665 13.8967 3.6665 11.99C3.6665 10.7433 3.8865 9.55166 4.3265 8.45166C4.7665 7.33332 5.46317 6.30666 6.43484 5.38999C7.60817 4.23499 8.8915 3.66666 10.2482 3.66666C10.7615 3.66666 11.2748 3.77666 11.7332 3.99666C12.2098 4.21666 12.6315 4.54666 12.9615 5.02332L17.2148 11.0183C17.5448 11.4767 17.7832 11.8983 17.9482 12.3017C18.1132 12.6867 18.2048 13.0717 18.2048 13.42C18.2048 13.86 18.0765 14.3 17.8198 14.7217C17.5815 15.1433 17.2332 15.5833 16.7932 16.0233L15.3998 17.4717C15.1982 17.6733 15.1065 17.9117 15.1065 18.205C15.1065 18.3517 15.1248 18.48 15.1615 18.6267C15.2165 18.7733 15.2715 18.8833 15.3082 18.9933C15.6382 19.5983 16.2065 20.3867 17.0132 21.34C17.8382 22.2933 18.7182 23.265 19.6715 24.2367C20.6615 25.2083 21.6148 26.1067 22.5865 26.9317C23.5398 27.7383 24.3282 28.2883 24.9515 28.6183C25.0432 28.655 25.1532 28.71 25.2815 28.765C25.4282 28.82 25.5748 28.8383 25.7398 28.8383C26.0515 28.8383 26.2898 28.7283 26.4915 28.5267L27.8848 27.1517C28.3432 26.6933 28.7832 26.345 29.2048 26.125C29.6265 25.8683 30.0482 25.74 30.5065 25.74C30.8548 25.74 31.2215 25.8133 31.6248 25.9783C32.0282 26.1433 32.4498 26.3817 32.9082 26.6933L38.9765 31.0017C39.4532 31.3317 39.7832 31.7167 39.9848 32.175C40.1682 32.6333 40.2782 33.0917 40.2782 33.605Z" stroke="#7042EF" stroke-width="1.5" stroke-miterlimit="10"/>
</g>
</svg>
