<svg width="40" height="40" viewBox="0 0 40 40" fill="none" xmlns="http://www.w3.org/2000/svg">
<g id="Iconsax/Linear/instagram">
<path id="Vector" d="M15.0002 36.6667H25.0002C33.3335 36.6667 36.6668 33.3333 36.6668 25V15C36.6668 6.66668 33.3335 3.33334 25.0002 3.33334H15.0002C6.66683 3.33334 3.3335 6.66668 3.3335 15V25C3.3335 33.3333 6.66683 36.6667 15.0002 36.6667Z" stroke="#7042EF" stroke-width="1.5" stroke-linecap="round" stroke-linejoin="round"/>
<path id="Vector_2" d="M19.9998 25.8333C20.7659 25.8333 21.5244 25.6824 22.2322 25.3893C22.9399 25.0961 23.583 24.6665 24.1246 24.1248C24.6663 23.5831 25.096 22.94 25.3891 22.2323C25.6823 21.5246 25.8332 20.766 25.8332 20C25.8332 19.2339 25.6823 18.4754 25.3891 17.7677C25.096 17.0599 24.6663 16.4169 24.1246 15.8752C23.583 15.3335 22.9399 14.9038 22.2322 14.6107C21.5244 14.3175 20.7659 14.1667 19.9998 14.1667C18.4527 14.1667 16.969 14.7812 15.875 15.8752C14.7811 16.9692 14.1665 18.4529 14.1665 20C14.1665 21.5471 14.7811 23.0308 15.875 24.1248C16.969 25.2187 18.4527 25.8333 19.9998 25.8333Z" stroke="#7042EF" stroke-width="1.5" stroke-linecap="round" stroke-linejoin="round"/>
<path id="Vector_3" d="M29.3936 11.6667H29.4136" stroke="#7042EF" stroke-width="2" stroke-linecap="round" stroke-linejoin="round"/>
</g>
</svg>
