<svg width="42" height="42" viewBox="0 0 42 42" fill="none" xmlns="http://www.w3.org/2000/svg">
<g id="Iconsax/Linear/location">
<path id="Vector" d="M21 23.5025C21.7171 23.5025 22.4271 23.3613 23.0895 23.0869C23.7519 22.8125 24.3538 22.4103 24.8608 21.9033C25.3679 21.3963 25.77 20.7944 26.0444 20.1319C26.3188 19.4695 26.46 18.7595 26.46 18.0425C26.46 17.3255 26.3188 16.6155 26.0444 15.953C25.77 15.2906 25.3679 14.6887 24.8608 14.1817C24.3538 13.6747 23.7519 13.2725 23.0895 12.9981C22.4271 12.7237 21.7171 12.5825 21 12.5825C19.552 12.5825 18.1632 13.1577 17.1392 14.1817C16.1153 15.2056 15.54 16.5944 15.54 18.0425C15.54 19.4906 16.1153 20.8793 17.1392 21.9033C18.1632 22.9272 19.552 23.5025 21 23.5025Z" stroke="#7042EF" stroke-width="1.5"/>
<path id="Vector_2" d="M6.33498 14.8575C9.78248 -0.297496 32.235 -0.279996 35.665 14.875C37.6775 23.765 32.1475 31.29 27.3 35.945C25.6061 37.5787 23.3445 38.4916 20.9912 38.4916C18.6379 38.4916 16.3763 37.5787 14.6825 35.945C9.85248 31.29 4.32248 23.7475 6.33498 14.8575Z" stroke="#7042EF" stroke-width="1.5"/>
</g>
</svg>
