<svg width="60" height="60" viewBox="0 0 60 60" fill="none" xmlns="http://www.w3.org/2000/svg">
<path d="M52.75 30.325V35.2125C52.75 44.2687 47.575 48.15 39.8125 48.15H13.9375C6.175 48.15 1 44.2687 1 35.2125V19.6875C1 10.6312 6.175 6.75 13.9375 6.75H21.7C21.3262 7.8425 21.125 9.05 21.125 10.3438V21.5562C21.125 24.345 22.045 26.7025 23.6838 28.3413C25.3225 29.98 27.68 30.9 30.4688 30.9V34.8962C30.4688 36.3625 32.1363 37.2537 33.3725 36.4487L41.6812 30.9H49.1562C50.45 30.9 51.6575 30.6987 52.75 30.325Z" stroke="#7042EF" stroke-width="1.5" stroke-miterlimit="10" stroke-linecap="round" stroke-linejoin="round"/>
<path d="M16.5254 58.5H37.2254M26.8754 48.15V58.5M58.5004 10.3438V21.5562C58.5004 25.84 56.3154 29.06 52.7504 30.325C51.6579 30.6987 50.4504 30.9 49.1566 30.9H41.6816L33.3729 36.4487C32.1366 37.2537 30.4691 36.3625 30.4691 34.8962V30.9C27.6804 30.9 25.3229 29.98 23.6841 28.3413C22.0454 26.7025 21.1254 24.345 21.1254 21.5562V10.3438C21.1254 9.05 21.3266 7.8425 21.7004 6.75C22.9654 3.185 26.1854 1 30.4691 1H49.1566C54.7629 1 58.5004 4.7375 58.5004 10.3438Z" stroke="#7042EF" stroke-width="1.5" stroke-miterlimit="10" stroke-linecap="round" stroke-linejoin="round"/>
<path d="M48.4232 16.0938H48.452M40.3761 16.0938H40.402M32.3232 16.0938H32.352" stroke="#7042EF" stroke-width="1.5" stroke-linecap="round" stroke-linejoin="round"/>
</svg>
