<svg width="50" height="56" viewBox="0 0 50 56" fill="none" xmlns="http://www.w3.org/2000/svg">
<path d="M1 54.3333H49M7.93333 18.0133H3.66667C2.2 18.0133 1 19.2133 1 20.68V43.6667C1 45.1333 2.2 46.3333 3.66667 46.3333H7.93333C9.4 46.3333 10.6 45.1333 10.6 43.6667V20.68C10.6 19.2133 9.4 18.0133 7.93333 18.0133ZM27.1333 9.50667H22.8667C21.4 9.50667 20.2 10.7067 20.2 12.1733V43.6667C20.2 45.1333 21.4 46.3333 22.8667 46.3333H27.1333C28.6 46.3333 29.8 45.1333 29.8 43.6667V12.1733C29.8 10.7067 28.6 9.50667 27.1333 9.50667ZM46.3333 1H42.0667C40.6 1 39.4 2.2 39.4 3.66667V43.6667C39.4 45.1333 40.6 46.3333 42.0667 46.3333H46.3333C47.8 46.3333 49 45.1333 49 43.6667V3.66667C49 2.2 47.8 1 46.3333 1Z" stroke="#7042EF" stroke-width="1.5" stroke-linecap="round" stroke-linejoin="round"/>
</svg>
