<svg width="596" height="35" viewBox="0 0 596 35" fill="none" xmlns="http://www.w3.org/2000/svg">
<g style="mix-blend-mode:multiply">
<path opacity="0.01" d="M298.011 34.1769C461.176 34.1769 593.448 26.7534 593.448 17.5961C593.448 8.43881 461.176 1.01538 298.011 1.01538C134.846 1.01538 2.57422 8.43881 2.57422 17.5961C2.57422 26.7534 134.846 34.1769 298.011 34.1769Z" fill="#FEFEFE"/>
<path opacity="0.01" d="M298.011 34.0926C460.466 34.0926 592.162 26.7069 592.162 17.5962C592.162 8.48555 460.466 1.09985 298.011 1.09985C135.557 1.09985 3.86133 8.48555 3.86133 17.5962C3.86133 26.7069 135.557 34.0926 298.011 34.0926Z" fill="#FDFDFD"/>
<path opacity="0.02" d="M298.011 34.0293C459.767 34.0293 590.896 26.6719 590.896 17.5962C590.896 8.52045 459.767 1.16309 298.011 1.16309C136.256 1.16309 5.12695 8.52045 5.12695 17.5962C5.12695 26.6719 136.256 34.0293 298.011 34.0293Z" fill="#FDFDFD"/>
<path opacity="0.02" d="M298.01 33.9659C459.055 33.9659 589.607 26.6369 589.607 17.5961C589.607 8.55528 459.055 1.22632 298.01 1.22632C136.965 1.22632 6.41211 8.55528 6.41211 17.5961C6.41211 26.6369 136.965 33.9659 298.01 33.9659Z" fill="#FCFCFC"/>
<path opacity="0.03" d="M298.01 33.8816C458.344 33.8816 588.321 26.5904 588.321 17.5962C588.321 8.60202 458.344 1.31079 298.01 1.31079C137.676 1.31079 7.69922 8.60202 7.69922 17.5962C7.69922 26.5904 137.676 33.8816 298.01 33.8816Z" fill="#FCFCFC"/>
<path opacity="0.03" d="M298.01 33.8183C457.634 33.8183 587.034 26.5554 587.034 17.5962C587.034 8.63692 457.634 1.37402 298.01 1.37402C138.387 1.37402 8.98633 8.63692 8.98633 17.5962C8.98633 26.5554 138.387 33.8183 298.01 33.8183Z" fill="#FBFBFB"/>
<path opacity="0.04" d="M298.01 33.734C456.935 33.734 585.769 26.5089 585.769 17.5962C585.769 8.6836 456.935 1.4585 298.01 1.4585C139.086 1.4585 10.252 8.6836 10.252 17.5962C10.252 26.5089 139.086 33.734 298.01 33.734Z" fill="#FBFBFB"/>
<path opacity="0.04" d="M298.011 33.6706C456.224 33.6706 584.482 26.4739 584.482 17.5962C584.482 8.7185 456.224 1.52173 298.011 1.52173C139.797 1.52173 11.5391 8.7185 11.5391 17.5962C11.5391 26.4739 139.797 33.6706 298.011 33.6706Z" fill="#FAFAFA"/>
<path opacity="0.05" d="M298.011 33.5861C455.514 33.5861 583.196 26.4271 583.196 17.596C583.196 8.76494 455.514 1.60596 298.011 1.60596C140.508 1.60596 12.8262 8.76494 12.8262 17.596C12.8262 26.4271 140.508 33.5861 298.011 33.5861Z" fill="#FAFAFA"/>
<path opacity="0.05" d="M298.011 33.5231C454.815 33.5231 581.93 26.3923 581.93 17.5962C581.93 8.80008 454.815 1.66943 298.011 1.66943C141.207 1.66943 14.0918 8.80008 14.0918 17.5962C14.0918 26.3923 141.207 33.5231 298.011 33.5231Z" fill="#F9F9F9"/>
<path opacity="0.05" d="M298.011 33.4597C454.105 33.4597 580.643 26.3573 580.643 17.5962C580.643 8.83498 454.105 1.73267 298.011 1.73267C141.918 1.73267 15.3789 8.83498 15.3789 17.5962C15.3789 26.3573 141.918 33.4597 298.011 33.4597Z" fill="#F8F8F8"/>
<path opacity="0.06" d="M298.011 33.3754C453.394 33.3754 579.357 26.3108 579.357 17.5962C579.357 8.88166 453.394 1.81714 298.011 1.81714C142.629 1.81714 16.666 8.88166 16.666 17.5962C16.666 26.3108 142.629 33.3754 298.011 33.3754Z" fill="#F8F8F8"/>
<path opacity="0.06" d="M298.01 33.3121C452.682 33.3121 578.068 26.2758 578.068 17.5962C578.068 8.91656 452.682 1.88037 298.01 1.88037C143.338 1.88037 17.9512 8.91656 17.9512 17.5962C17.9512 26.2758 143.338 33.3121 298.01 33.3121Z" fill="#F7F7F7"/>
<path opacity="0.07" d="M298.01 33.2276C451.983 33.2276 576.803 26.2291 576.803 17.5961C576.803 8.96306 451.983 1.9646 298.01 1.9646C144.037 1.9646 19.2168 8.96306 19.2168 17.5961C19.2168 26.2291 144.037 33.2276 298.01 33.2276Z" fill="#F7F7F7"/>
<path opacity="0.07" d="M298.01 33.1642C451.272 33.1642 575.516 26.1941 575.516 17.596C575.516 8.99796 451.272 2.02783 298.01 2.02783C144.748 2.02783 20.5039 8.99796 20.5039 17.596C20.5039 26.1941 144.748 33.1642 298.01 33.1642Z" fill="#F6F6F6"/>
<path opacity="0.08" d="M298.01 33.1011C450.562 33.1011 574.23 26.1593 574.23 17.5962C574.23 9.0331 450.562 2.09131 298.01 2.09131C145.459 2.09131 21.791 9.0331 21.791 17.5962C21.791 26.1593 145.459 33.1011 298.01 33.1011Z" fill="#F6F6F6"/>
<path opacity="0.08" d="M298.01 33.0166C449.863 33.0166 572.964 26.1126 572.964 17.5961C572.964 9.07953 449.863 2.17554 298.01 2.17554C146.158 2.17554 23.0566 9.07953 23.0566 17.5961C23.0566 26.1126 146.158 33.0166 298.01 33.0166Z" fill="#F5F5F5"/>
<path opacity="0.09" d="M298.011 32.9532C449.153 32.9532 571.677 26.0776 571.677 17.596C571.677 9.11444 449.153 2.23877 298.011 2.23877C146.869 2.23877 24.3438 9.11444 24.3438 17.596C24.3438 26.0776 146.869 32.9532 298.011 32.9532Z" fill="#F5F5F5"/>
<path opacity="0.09" d="M298.011 32.869C448.442 32.869 570.391 26.031 570.391 17.5961C570.391 9.16111 448.442 2.32324 298.011 2.32324C147.58 2.32324 25.6309 9.16111 25.6309 17.5961C25.6309 26.031 147.58 32.869 298.011 32.869Z" fill="#F4F4F4"/>
<path opacity="0.1" d="M298.011 32.8056C447.732 32.8056 569.104 25.996 569.104 17.596C569.104 9.19601 447.732 2.38647 298.011 2.38647C148.291 2.38647 26.918 9.19601 26.918 17.596C26.918 25.996 148.291 32.8056 298.011 32.8056Z" fill="#F4F4F4"/>
<path opacity="0.1" d="M298.011 32.7425C447.033 32.7425 567.839 25.9613 567.839 17.5962C567.839 9.23116 447.033 2.44995 298.011 2.44995C148.989 2.44995 28.1836 9.23116 28.1836 17.5962C28.1836 25.9613 148.989 32.7425 298.011 32.7425Z" fill="#F3F3F3"/>
<path opacity="0.1" d="M566.552 17.6172C566.552 25.9287 446.31 32.6791 298.011 32.6791C149.713 32.6791 29.4707 25.9287 29.4707 17.6172C29.4707 9.30576 149.713 2.53418 298.011 2.53418C446.31 2.53418 566.552 9.28466 566.552 17.6172Z" fill="#F3F3F3"/>
<path opacity="0.11" d="M298.01 32.5947C445.61 32.5947 565.264 25.8795 565.264 17.596C565.264 9.31249 445.61 2.59741 298.01 2.59741C150.41 2.59741 30.7559 9.31249 30.7559 17.596C30.7559 25.8795 150.41 32.5947 298.01 32.5947Z" fill="#F2F2F2"/>
<path opacity="0.11" d="M298.01 32.5104C444.9 32.5104 563.977 25.833 563.977 17.5961C563.977 9.35923 444.9 2.68188 298.01 2.68188C151.12 2.68188 32.043 9.35923 32.043 17.5961C32.043 25.833 151.12 32.5104 298.01 32.5104Z" fill="#F1F1F1"/>
<path opacity="0.12" d="M562.711 17.6172C562.711 25.8021 444.199 32.3837 298.01 32.3837C151.821 32.3837 33.3086 25.7177 33.3086 17.6172C33.3086 9.51664 151.821 2.85059 298.01 2.85059C444.199 2.85059 562.711 9.41116 562.711 17.6172Z" fill="#F1F1F1"/>
<path opacity="0.12" d="M561.425 17.6172C561.425 25.7599 443.483 32.3837 298.011 32.3837C152.539 32.3837 34.5117 25.7599 34.5117 17.6172C34.5117 9.47445 152.433 2.85059 297.926 2.85059C443.419 2.85059 561.425 9.45335 561.425 17.6172Z" fill="#F0F0F0"/>
<path opacity="0.13" d="M298.011 32.2994C442.78 32.2994 560.138 25.7165 560.138 17.5961C560.138 9.47571 442.78 2.89282 298.011 2.89282C153.241 2.89282 35.8828 9.47571 35.8828 17.5961C35.8828 25.7165 153.241 32.2994 298.011 32.2994Z" fill="#F0F0F0"/>
<path opacity="0.13" d="M298.01 32.2361C442.081 32.2361 558.873 25.6815 558.873 17.5961C558.873 9.51061 442.081 2.95605 298.01 2.95605C153.94 2.95605 37.1484 9.51061 37.1484 17.5961C37.1484 25.6815 153.94 32.2361 298.01 32.2361Z" fill="#EFEFEF"/>
<path opacity="0.14" d="M557.67 17.6173C557.67 25.6545 441.457 32.1729 298.2 32.1729C154.943 32.1729 38.7305 25.6545 38.7305 17.6173C38.7305 9.58002 154.943 3.04053 298.306 3.04053C441.668 3.04053 557.67 9.55892 557.67 17.6173Z" fill="#EFEFEF"/>
<path opacity="0.14" d="M298.011 32.0884C440.66 32.0884 556.3 25.6 556.3 17.5961C556.3 9.59219 440.66 3.10376 298.011 3.10376C155.362 3.10376 39.7227 9.59219 39.7227 17.5961C39.7227 25.6 155.362 32.0884 298.011 32.0884Z" fill="#EEEEEE"/>
<path opacity="0.14" d="M298.011 32.0251C439.95 32.0251 555.013 25.565 555.013 17.596C555.013 9.62709 439.95 3.16699 298.011 3.16699C156.073 3.16699 41.0098 9.62709 41.0098 17.596C41.0098 25.565 156.073 32.0251 298.011 32.0251Z" fill="#EEEEEE"/>
<path opacity="0.15" d="M553.726 17.6172C553.726 25.5279 439.243 31.9619 298.011 31.9619C156.78 31.9619 42.2754 25.5279 42.2754 17.6172C42.2754 9.70658 156.864 3.35693 298.011 3.35693C439.159 3.35693 553.726 9.68549 553.726 17.6172Z" fill="#EDEDED"/>
<path opacity="0.15" d="M298.01 31.8775C438.538 31.8775 552.459 25.4834 552.459 17.5961C552.459 9.70867 438.538 3.3147 298.01 3.3147C157.481 3.3147 43.5605 9.70867 43.5605 17.5961C43.5605 25.4834 157.481 31.8775 298.01 31.8775Z" fill="#EDEDED"/>
<path opacity="0.16" d="M298.01 31.7932C437.828 31.7932 551.172 25.4369 551.172 17.5961C551.172 9.75534 437.828 3.39917 298.01 3.39917C158.192 3.39917 44.8477 9.75534 44.8477 17.5961C44.8477 25.4369 158.192 31.7932 298.01 31.7932Z" fill="#ECECEC"/>
<path opacity="0.16" d="M549.886 17.6171C549.886 25.4223 437.111 31.7298 298.01 31.7298C158.909 31.7298 46.1133 25.4012 46.1133 17.6171C46.1133 9.83305 158.888 3.4834 298.01 3.4834C437.132 3.4834 549.886 9.81196 549.886 17.6171Z" fill="#EBEBEB"/>
<path opacity="0.17" d="M298.01 31.6456C436.418 31.6456 548.62 25.3555 548.62 17.5962C548.62 9.83699 436.418 3.54688 298.01 3.54688C159.602 3.54688 47.4004 9.83699 47.4004 17.5962C47.4004 25.3555 159.602 31.6456 298.01 31.6456Z" fill="#EBEBEB"/>
<path opacity="0.17" d="M298.011 31.5822C435.708 31.5822 547.334 25.3205 547.334 17.5962C547.334 9.87189 435.708 3.61011 298.011 3.61011C160.313 3.61011 48.6875 9.87189 48.6875 17.5962C48.6875 25.3205 160.313 31.5822 298.011 31.5822Z" fill="#EAEAEA"/>
<path opacity="0.18" d="M546.047 17.6171C546.047 25.2957 435.003 31.5188 298.011 31.5188C161.019 31.5188 49.9746 25.1903 49.9746 17.6171C49.9746 10.044 161.019 3.69434 298.011 3.69434C435.003 3.69434 546.047 9.9174 546.047 17.6171Z" fill="#EAEAEA"/>
<path opacity="0.18" d="M298.011 31.4346C434.298 31.4346 544.781 25.2389 544.781 17.5962C544.781 9.95346 434.298 3.75781 298.011 3.75781C161.723 3.75781 51.2402 9.95346 51.2402 17.5962C51.2402 25.2389 161.723 31.4346 298.011 31.4346Z" fill="#E9E9E9"/>
<path opacity="0.19" d="M298.011 31.3712C433.588 31.3712 543.495 25.2039 543.495 17.5961C543.495 9.98837 433.588 3.82104 298.011 3.82104C162.434 3.82104 52.5273 9.98837 52.5273 17.5961C52.5273 25.2039 162.434 31.3712 298.011 31.3712Z" fill="#E9E9E9"/>
<path opacity="0.19" d="M542.208 17.6173C542.208 25.1694 432.872 31.308 298.011 31.308C163.15 31.308 53.8145 25.1694 53.8145 17.6173C53.8145 10.0653 163.15 3.90552 298.011 3.90552C432.872 3.90552 542.208 10.0442 542.208 17.6173Z" fill="#E8E8E8"/>
<path opacity="0.19" d="M540.921 17.6173C540.921 25.1271 432.176 31.2447 298.011 31.2447C163.846 31.2447 55.0801 25.1271 55.0801 17.6173C55.0801 10.1074 163.846 3.96875 298.011 3.96875C432.176 3.96875 540.921 10.0863 540.921 17.6173Z" fill="#E8E8E8"/>
<path opacity="0.2" d="M298.01 31.1603C431.466 31.1603 539.654 25.0874 539.654 17.5961C539.654 10.1048 431.466 4.03198 298.01 4.03198C164.553 4.03198 56.3652 10.1048 56.3652 17.5961C56.3652 25.0874 164.553 31.1603 298.01 31.1603Z" fill="#E7E7E7"/>
<path opacity="0.2" d="M298.01 31.076C430.756 31.076 538.368 25.0409 538.368 17.5962C538.368 10.1515 430.756 4.11646 298.01 4.11646C165.264 4.11646 57.6523 10.1515 57.6523 17.5962C57.6523 25.0409 165.264 31.076 298.01 31.076Z" fill="#E7E7E7"/>
<path opacity="0.21" d="M537.081 17.6172C537.081 25.0216 430.045 31.0125 298.01 31.0125C165.976 31.0125 58.9395 25.0216 58.9395 17.6172C58.9395 10.2128 165.976 4.20068 298.01 4.20068C430.045 4.20068 537.081 10.1917 537.081 17.6172Z" fill="#E6E6E6"/>
<path opacity="0.21" d="M298.011 30.9282C429.335 30.9282 535.795 24.9592 535.795 17.596C535.795 10.2329 429.335 4.26392 298.011 4.26392C166.686 4.26392 60.2266 10.2329 60.2266 17.596C60.2266 24.9592 166.686 30.9282 298.011 30.9282Z" fill="#E5E5E5"/>
<path opacity="0.22" d="M298.01 30.8651C428.636 30.8651 534.529 24.9244 534.529 17.5962C534.529 10.2681 428.636 4.32739 298.01 4.32739C167.385 4.32739 61.4922 10.2681 61.4922 17.5962C61.4922 24.9244 167.385 30.8651 298.01 30.8651Z" fill="#E5E5E5"/>
<path opacity="0.22" d="M533.242 17.6172C533.242 24.895 427.915 30.8016 298.011 30.8016C168.107 30.8016 62.7793 24.895 62.7793 17.6172C62.7793 10.3394 168.086 4.41162 298.011 4.41162C427.936 4.41162 533.242 10.3183 533.242 17.6172Z" fill="#E4E4E4"/>
<path opacity="0.23" d="M298.011 30.7172C427.215 30.7172 531.956 24.8426 531.956 17.596C531.956 10.3494 427.215 4.47485 298.011 4.47485C168.807 4.47485 64.0664 10.3494 64.0664 17.596C64.0664 24.8426 168.807 30.7172 298.011 30.7172Z" fill="#E4E4E4"/>
<path opacity="0.23" d="M298.011 30.6541C426.516 30.6541 530.69 24.8079 530.69 17.5962C530.69 10.3845 426.516 4.53833 298.011 4.53833C169.506 4.53833 65.332 10.3845 65.332 17.5962C65.332 24.8079 169.506 30.6541 298.011 30.6541Z" fill="#E3E3E3"/>
<path opacity="0.24" d="M529.404 17.6172C529.404 24.7684 425.805 30.5906 298.011 30.5906C170.217 30.5906 66.6191 24.7684 66.6191 17.6172C66.6191 10.4659 170.217 4.62256 298.011 4.62256C425.805 4.62256 529.404 10.4448 529.404 17.6172Z" fill="#E3E3E3"/>
<path opacity="0.24" d="M298.01 30.5064C425.093 30.5064 528.115 24.7263 528.115 17.5962C528.115 10.4661 425.093 4.68604 298.01 4.68604C170.926 4.68604 67.9043 10.4661 67.9043 17.5962C67.9043 24.7263 170.926 30.5064 298.01 30.5064Z" fill="#E2E2E2"/>
<path opacity="0.24" d="M298.01 30.4431C424.383 30.4431 526.829 24.6913 526.829 17.5962C526.829 10.501 424.383 4.74927 298.01 4.74927C171.637 4.74927 69.1914 10.501 69.1914 17.5962C69.1914 24.6913 171.637 30.4431 298.01 30.4431Z" fill="#E2E2E2"/>
<path opacity="0.25" d="M525.542 17.6171C525.542 24.6629 423.674 30.3796 298.01 30.3796C172.347 30.3796 70.373 24.6629 70.373 17.6171C70.373 10.5714 172.241 4.8335 297.926 4.8335C423.611 4.8335 525.542 10.5503 525.542 17.6171Z" fill="#E1E1E1"/>
<path opacity="0.25" d="M524.276 17.6173C524.276 24.6208 423.02 30.2743 298.01 30.2743C173.001 30.2743 71.7441 24.5997 71.7441 17.6173C71.7441 10.6348 173.001 4.96021 298.01 4.96021C423.02 4.96021 524.276 10.5926 524.276 17.6173Z" fill="#E1E1E1"/>
<path opacity="0.26" d="M298.011 30.2109C422.263 30.2109 522.99 24.563 522.99 17.596C522.99 10.629 422.263 4.9812 298.011 4.9812C173.758 4.9812 73.0312 10.629 73.0312 17.596C73.0312 24.563 173.758 30.2109 298.011 30.2109Z" fill="#E0E0E0"/>
<path opacity="0.26" d="M298.011 30.1478C421.553 30.1478 521.703 24.5283 521.703 17.5962C521.703 10.6642 421.553 5.04468 298.011 5.04468C174.469 5.04468 74.3184 10.6642 74.3184 17.5962C74.3184 24.5283 174.469 30.1478 298.011 30.1478Z" fill="#E0E0E0"/>
<path opacity="0.27" d="M520.438 17.6172C520.438 24.4942 420.848 30.0844 298.011 30.0844C175.174 30.0844 75.584 24.452 75.584 17.6172C75.584 10.7824 175.174 5.12891 298.011 5.12891C420.848 5.12891 520.438 10.7191 520.438 17.6172Z" fill="#DFDFDF"/>
<path opacity="0.27" d="M298.011 30C420.143 30 519.151 24.4466 519.151 17.5961C519.151 10.7456 420.143 5.19214 298.011 5.19214C175.879 5.19214 76.8711 10.7456 76.8711 17.5961C76.8711 24.4466 175.879 30 298.011 30Z" fill="#DEDEDE"/>
<path opacity="0.28" d="M298.011 29.9367C419.433 29.9367 517.865 24.4116 517.865 17.596C517.865 10.7805 419.433 5.25537 298.011 5.25537C176.59 5.25537 78.1582 10.7805 78.1582 17.596C78.1582 24.4116 176.59 29.9367 298.011 29.9367Z" fill="#DEDEDE"/>
<path opacity="0.28" d="M516.578 17.6172C516.578 24.3887 418.717 29.8735 298.011 29.8735C177.305 29.8735 79.4238 24.3887 79.4238 17.6172C79.4238 10.8457 177.284 5.33984 298.011 5.33984C418.739 5.33984 516.578 10.8246 516.578 17.6172Z" fill="#DDDDDD"/>
<path opacity="0.29" d="M298.01 29.789C418.021 29.789 515.31 24.33 515.31 17.596C515.31 10.8621 418.021 5.40308 298.01 5.40308C177.998 5.40308 80.709 10.8621 80.709 17.596C80.709 24.33 177.998 29.789 298.01 29.789Z" fill="#DDDDDD"/>
<path opacity="0.29" d="M298.01 29.7259C417.311 29.7259 514.024 24.2953 514.024 17.5962C514.024 10.8972 417.311 5.46655 298.01 5.46655C178.709 5.46655 81.9961 10.8972 81.9961 17.5962C81.9961 24.2953 178.709 29.7259 298.01 29.7259Z" fill="#DCDCDC"/>
<path opacity="0.29" d="M512.737 17.6174C512.737 24.2623 416.607 29.6626 298.01 29.6626C179.413 29.6626 83.2617 24.2623 83.2617 17.6174C83.2617 10.9724 179.413 5.46655 298.01 5.46655C416.607 5.46655 512.737 10.9513 512.737 17.6174Z" fill="#DCDCDC"/>
<path opacity="0.3" d="M298.01 29.578C415.902 29.578 511.472 24.2135 511.472 17.596C511.472 10.9785 415.902 5.61401 298.01 5.61401C180.119 5.61401 84.5488 10.9785 84.5488 17.596C84.5488 24.2135 180.119 29.578 298.01 29.578Z" fill="#DBDBDB"/>
<path opacity="0.3" d="M298.011 29.4938C415.191 29.4938 510.185 24.167 510.185 17.5961C510.185 11.0252 415.191 5.69849 298.011 5.69849C180.83 5.69849 85.8359 11.0252 85.8359 17.5961C85.8359 24.167 180.83 29.4938 298.011 29.4938Z" fill="#DBDBDB"/>
<path opacity="0.31" d="M508.898 17.6173C508.898 24.1357 414.477 29.4306 297.947 29.4306C181.418 29.4306 86.9961 24.1357 86.9961 17.6173C86.9961 11.099 181.397 5.78296 297.947 5.78296C414.498 5.78296 508.898 11.0779 508.898 17.6173Z" fill="#DADADA"/>
<path opacity="0.31" d="M507.612 17.6173C507.612 24.0935 413.781 29.3672 298.011 29.3672C182.241 29.3672 88.3887 24.0935 88.3887 17.6173C88.3887 11.1411 182.241 5.84619 298.011 5.84619C413.781 5.84619 507.612 11.12 507.612 17.6173Z" fill="#DADADA"/>
<path opacity="0.32" d="M298.011 29.2828C413.071 29.2828 506.346 24.0505 506.346 17.5961C506.346 11.1417 413.071 5.90942 298.011 5.90942C182.951 5.90942 89.6758 11.1417 89.6758 17.5961C89.6758 24.0505 182.951 29.2828 298.011 29.2828Z" fill="#D9D9D9"/>
<path opacity="0.32" d="M505.06 17.6173C505.06 23.9459 412.368 29.2196 298.011 29.2196C183.655 29.2196 90.9629 24.0302 90.9629 17.6173C90.9629 11.2044 183.655 5.9939 298.011 5.9939C412.368 5.9939 505.06 11.1833 505.06 17.6173Z" fill="#D8D8D8"/>
<path opacity="0.33" d="M503.773 17.6173C503.773 23.9458 411.651 29.1563 298.011 29.1563C184.372 29.1563 92.2285 23.988 92.2285 17.6173C92.2285 11.2465 184.372 6.05713 298.011 6.05713C411.651 6.05713 503.773 11.2255 503.773 17.6173Z" fill="#D8D8D8"/>
<path opacity="0.33" d="M298.01 29.0718C410.95 29.0718 502.506 23.934 502.506 17.5961C502.506 11.2582 410.95 6.12036 298.01 6.12036C185.07 6.12036 93.5137 11.2582 93.5137 17.5961C93.5137 23.934 185.07 29.0718 298.01 29.0718Z" fill="#D7D7D7"/>
<path opacity="0.33" d="M298.01 28.9875C410.239 28.9875 501.219 23.8874 501.219 17.5962C501.219 11.3049 410.239 6.20483 298.01 6.20483C185.781 6.20483 94.8008 11.3049 94.8008 17.5962C94.8008 23.8874 185.781 28.9875 298.01 28.9875Z" fill="#D7D7D7"/>
<path opacity="0.34" d="M499.933 17.6171C499.933 23.9457 409.519 28.9452 298.01 28.9452C186.502 28.9452 96.0879 23.8613 96.0879 17.6171C96.0879 11.373 186.48 6.28906 298.01 6.28906C409.54 6.28906 499.933 11.3519 499.933 17.6171Z" fill="#D6D6D6"/>
<path opacity="0.34" d="M298.011 28.8609C408.818 28.8609 498.646 23.8174 498.646 17.5961C498.646 11.3747 408.818 6.3313 298.011 6.3313C187.203 6.3313 97.375 11.3747 97.375 17.5961C97.375 23.8174 187.203 28.8609 298.011 28.8609Z" fill="#D6D6D6"/>
<path opacity="0.35" d="M298.01 28.7766C408.119 28.7766 497.38 23.7709 497.38 17.5962C497.38 11.4214 408.119 6.41577 298.01 6.41577C187.902 6.41577 98.6406 11.4214 98.6406 17.5962C98.6406 23.7709 187.902 28.7766 298.01 28.7766Z" fill="#D5D5D5"/>
<path opacity="0.35" d="M496.094 17.6172C496.094 23.7347 407.494 28.7131 298.011 28.7131C188.527 28.7131 99.9277 23.7347 99.9277 17.6172C99.9277 11.4996 188.527 6.5 298.011 6.5C407.494 6.5 496.094 11.4785 496.094 17.6172Z" fill="#D5D5D5"/>
<path opacity="0.36" d="M298.011 28.6289C406.699 28.6289 494.807 23.6894 494.807 17.5962C494.807 11.503 406.699 6.56348 298.011 6.56348C189.324 6.56348 101.215 11.503 101.215 17.5962C101.215 23.6894 189.324 28.6289 298.011 28.6289Z" fill="#D4D4D4"/>
<path opacity="0.36" d="M298.011 28.5656C406 28.5656 493.542 23.6544 493.542 17.5961C493.542 11.5379 406 6.62671 298.011 6.62671C190.022 6.62671 102.48 11.5379 102.48 17.5961C102.48 23.6544 190.022 28.5656 298.011 28.5656Z" fill="#D4D4D4"/>
<path opacity="0.37" d="M492.275 17.6171C492.275 23.6292 405.299 28.5022 298.031 28.5022C190.762 28.5022 103.787 23.6292 103.787 17.6171C103.787 11.605 190.741 6.71094 298.031 6.71094C405.321 6.71094 492.275 11.5839 492.275 17.6171Z" fill="#D3D3D3"/>
<path opacity="0.37" d="M298.01 28.418C404.577 28.418 490.967 23.5729 490.967 17.5962C490.967 11.6195 404.577 6.77441 298.01 6.77441C191.442 6.77441 105.053 11.6195 105.053 17.5962C105.053 23.5729 191.442 28.418 298.01 28.418Z" fill="#D2D2D2"/>
<path opacity="0.38" d="M298.01 28.3547C403.866 28.3547 489.68 23.5379 489.68 17.5962C489.68 11.6544 403.866 6.83765 298.01 6.83765C192.153 6.83765 106.34 11.6544 106.34 17.5962C106.34 23.5379 192.153 28.3547 298.01 28.3547Z" fill="#D2D2D2"/>
<path opacity="0.38" d="M488.393 17.6174C488.393 23.5029 403.169 28.2915 298.01 28.2915C192.851 28.2915 107.605 23.5029 107.605 17.6174C107.605 11.7318 192.851 6.92212 298.01 6.92212C403.169 6.92212 488.393 11.7951 488.393 17.6174Z" fill="#D1D1D1"/>
<path opacity="0.38" d="M487.128 17.6171C487.128 23.4605 402.452 28.1647 298.01 28.1647C193.568 28.1647 108.893 23.4183 108.893 17.6171C108.893 11.816 193.568 7.06958 298.01 7.06958C402.452 7.06958 487.128 11.7949 487.128 17.6171Z" fill="#D1D1D1"/>
<path opacity="0.39" d="M298.011 28.1437C401.747 28.1437 485.841 23.4214 485.841 17.5961C485.841 11.7709 401.747 7.04858 298.011 7.04858C194.274 7.04858 110.18 11.7709 110.18 17.5961C110.18 23.4214 194.274 28.1437 298.011 28.1437Z" fill="#D0D0D0"/>
<path opacity="0.39" d="M298.011 28.0594C401.036 28.0594 484.555 23.3749 484.555 17.5962C484.555 11.8176 401.036 7.13306 298.011 7.13306C194.985 7.13306 111.467 11.8176 111.467 17.5962C111.467 23.3749 194.985 28.0594 298.011 28.0594Z" fill="#D0D0D0"/>
<path opacity="0.4" d="M483.289 17.6172C483.289 23.3551 400.322 27.996 298.011 27.996C195.699 27.996 112.732 23.3551 112.732 17.6172C112.732 11.8794 195.678 7.21729 298.011 7.21729C400.343 7.21729 483.289 11.795 483.289 17.6172Z" fill="#CFCFCF"/>
<path opacity="0.4" d="M298.011 27.9118C399.627 27.9118 482.003 23.2933 482.003 17.5962C482.003 11.8991 399.627 7.28076 298.011 7.28076C196.395 7.28076 114.02 11.8991 114.02 17.5962C114.02 23.2933 196.395 27.9118 298.011 27.9118Z" fill="#CFCFCF"/>
<path opacity="0.41" d="M298.011 27.8484C398.916 27.8484 480.716 23.2583 480.716 17.5962C480.716 11.934 398.916 7.34399 298.011 7.34399C197.106 7.34399 115.307 11.934 115.307 17.5962C115.307 23.2583 197.106 27.8484 298.011 27.8484Z" fill="#CECECE"/>
<path opacity="0.41" d="M479.428 17.6172C479.428 23.2285 398.211 27.785 298.01 27.785C197.808 27.785 116.592 23.2285 116.592 17.6172C116.592 12.0059 197.829 7.42822 298.01 7.42822C398.19 7.42822 479.428 11.9848 479.428 17.6172Z" fill="#CECECE"/>
<path opacity="0.42" d="M298.01 27.7006C397.505 27.7006 478.162 23.1766 478.162 17.596C478.162 12.0154 397.505 7.49146 298.01 7.49146C198.514 7.49146 117.857 12.0154 117.857 17.596C117.857 23.1766 198.514 27.7006 298.01 27.7006Z" fill="#CDCDCD"/>
<path opacity="0.42" d="M298.01 27.6374C396.795 27.6374 476.875 23.1418 476.875 17.5962C476.875 12.0505 396.795 7.55493 298.01 7.55493C199.225 7.55493 119.145 12.0505 119.145 17.5962C119.145 23.1418 199.225 27.6374 298.01 27.6374Z" fill="#CDCDCD"/>
<path opacity="0.43" d="M475.588 17.6172C475.588 23.1019 396.081 27.5741 298.01 27.5741C199.939 27.5741 120.41 23.1019 120.41 17.6172C120.41 12.1325 199.918 7.57593 298.01 7.57593C396.102 7.57593 475.588 12.1114 475.588 17.6172Z" fill="#CCCCCC"/>
<path opacity="0.43" d="M298.01 27.4896C395.385 27.4896 474.323 23.0601 474.323 17.596C474.323 12.1319 395.385 7.70239 298.01 7.70239C200.635 7.70239 121.697 12.1319 121.697 17.596C121.697 23.0601 200.635 27.4896 298.01 27.4896Z" fill="#CBCBCB"/>
<path opacity="0.43" d="M298.01 27.4053C394.675 27.4053 473.037 23.0136 473.037 17.5961C473.037 12.1786 394.675 7.78687 298.01 7.78687C201.346 7.78687 122.984 12.1786 122.984 17.5961C122.984 23.0136 201.346 27.4053 298.01 27.4053Z" fill="#CBCBCB"/>
<path opacity="0.44" d="M471.75 17.6171C471.75 22.9964 393.972 27.3631 298.011 27.3631C202.049 27.3631 124.271 22.9964 124.271 17.6171C124.271 12.2379 202.049 7.8501 298.011 7.8501C393.972 7.8501 471.75 12.2168 471.75 17.6171Z" fill="#CACACA"/>
<path opacity="0.44" d="M470.463 17.6172C470.463 22.9543 393.255 27.2787 298.011 27.2787C202.766 27.2787 125.537 23.0598 125.537 17.6172C125.537 12.1747 202.766 7.93457 298.011 7.93457C393.255 7.93457 470.463 12.2591 470.463 17.6172Z" fill="#CACACA"/>
<path opacity="0.45" d="M298.011 27.1944C392.555 27.1944 469.198 22.897 469.198 17.5961C469.198 12.2951 392.555 7.9978 298.011 7.9978C203.467 7.9978 126.824 12.2951 126.824 17.5961C126.824 22.897 203.467 27.1944 298.011 27.1944Z" fill="#C9C9C9"/>
<path opacity="0.45" d="M298.011 27.1313C391.844 27.1313 467.911 22.8623 467.911 17.5962C467.911 12.3302 391.844 8.06128 298.011 8.06128C204.178 8.06128 128.111 12.3302 128.111 17.5962C128.111 22.8623 204.178 27.1313 298.011 27.1313Z" fill="#C9C9C9"/>
<path opacity="0.46" d="M466.624 17.6173C466.624 22.8277 391.125 27.0678 298.011 27.0678C204.897 27.0678 129.377 22.8488 129.377 17.6173C129.377 12.3857 204.876 8.14551 298.011 8.14551C391.146 8.14551 466.624 12.3857 466.624 17.6173Z" fill="#C8C8C8"/>
<path opacity="0.46" d="M298.012 26.9834C390.435 26.9834 465.359 22.7805 465.359 17.596C465.359 12.4115 390.435 8.20874 298.012 8.20874C205.588 8.20874 130.664 12.4115 130.664 17.596C130.664 22.7805 205.588 26.9834 298.012 26.9834Z" fill="#C8C8C8"/>
<path opacity="0.47" d="M298.01 26.9203C389.723 26.9203 464.071 22.7457 464.071 17.5962C464.071 12.4467 389.723 8.27222 298.01 8.27222C206.297 8.27222 131.949 12.4467 131.949 17.5962C131.949 22.7457 206.297 26.9203 298.01 26.9203Z" fill="#C7C7C7"/>
<path opacity="0.47" d="M462.743 17.6172C462.743 22.7222 388.91 26.8569 297.969 26.8569C207.028 26.8569 133.195 22.6379 133.195 17.6172C133.195 12.5966 207.028 8.35645 297.969 8.35645C388.91 8.35645 462.743 12.4911 462.743 17.6172Z" fill="#C7C7C7"/>
<path opacity="0.48" d="M298.011 26.7724C388.302 26.7724 461.498 22.664 461.498 17.5961C461.498 12.5281 388.302 8.41968 298.011 8.41968C207.719 8.41968 134.523 12.5281 134.523 17.5961C134.523 22.664 207.719 26.7724 298.011 26.7724Z" fill="#C6C6C6"/>
<path opacity="0.48" d="M298.01 26.6881C387.603 26.6881 460.232 22.6175 460.232 17.5961C460.232 12.5748 387.603 8.50415 298.01 8.50415C208.418 8.50415 135.789 12.5748 135.789 17.5961C135.789 22.6175 208.418 26.6881 298.01 26.6881Z" fill="#C5C5C5"/>
<path opacity="0.48" d="M458.945 17.6173C458.945 22.5958 386.884 26.646 298.011 26.646C209.137 26.646 137.076 22.5958 137.076 17.6173C137.076 12.6389 209.116 8.58862 298.011 8.58862C386.906 8.58862 458.945 12.6178 458.945 17.6173Z" fill="#C5C5C5"/>
<path opacity="0.49" d="M298.011 26.5615C386.182 26.5615 457.659 22.5475 457.659 17.596C457.659 12.6446 386.182 8.63062 298.011 8.63062C209.84 8.63062 138.363 12.6446 138.363 17.596C138.363 22.5475 209.84 26.5615 298.011 26.5615Z" fill="#C4C4C4"/>
<path opacity="0.49" d="M298.011 26.4771C385.483 26.4771 456.393 22.501 456.393 17.5961C456.393 12.6912 385.483 8.71509 298.011 8.71509C210.539 8.71509 139.629 12.6912 139.629 17.5961C139.629 22.501 210.539 26.4771 298.011 26.4771Z" fill="#C4C4C4"/>
<path opacity="0.5" d="M455.107 17.6171C455.107 22.469 384.775 26.4137 298.011 26.4137C211.247 26.4137 140.916 22.469 140.916 17.6171C140.916 12.7652 211.247 8.79932 298.011 8.79932C384.775 8.79932 455.107 12.7441 455.107 17.6171Z" fill="#C3C3C3"/>
<path opacity="0.5" d="M298.01 26.3295C384.06 26.3295 453.818 22.4194 453.818 17.5961C453.818 12.7728 384.06 8.86279 298.01 8.86279C211.959 8.86279 142.201 12.7728 142.201 17.5961C142.201 22.4194 211.959 26.3295 298.01 26.3295Z" fill="#C3C3C3"/>
<path opacity="0.51" d="M298.01 26.2662C383.35 26.2662 452.532 22.3844 452.532 17.5961C452.532 12.8077 383.35 8.92603 298.01 8.92603C212.67 8.92603 143.488 12.8077 143.488 17.5961C143.488 22.3844 212.67 26.2662 298.01 26.2662Z" fill="#C2C2C2"/>
<path opacity="0.51" d="M451.245 17.6173C451.245 22.3637 382.643 26.203 298.01 26.203C213.376 26.203 144.754 22.3637 144.754 17.6173C144.754 12.8709 213.376 9.0105 298.01 9.0105C382.643 9.0105 451.245 12.8498 451.245 17.6173Z" fill="#C2C2C2"/>
<path opacity="0.52" d="M450.086 17.6173C450.086 22.3215 382.033 26.0553 298.201 26.0553C214.369 26.0553 146.316 22.2371 146.316 17.6173C146.316 12.9975 214.348 9.07373 298.201 9.07373C382.054 9.07373 450.086 12.892 450.086 17.6173Z" fill="#C1C1C1"/>
<path opacity="0.52" d="M298.01 26.0552C381.23 26.0552 448.693 22.2679 448.693 17.5961C448.693 12.9242 381.23 9.13696 298.01 9.13696C214.791 9.13696 147.328 12.9242 147.328 17.5961C147.328 22.2679 214.791 26.0552 298.01 26.0552Z" fill="#C1C1C1"/>
<path opacity="0.52" d="M298.011 25.971C380.52 25.971 447.406 22.2214 447.406 17.5962C447.406 12.9709 380.52 9.22144 298.011 9.22144C215.502 9.22144 148.615 12.9709 148.615 17.5962C148.615 22.2214 215.502 25.971 298.011 25.971Z" fill="#C0C0C0"/>
<path opacity="0.53" d="M446.141 17.6171C446.141 22.1948 379.818 25.9075 298.011 25.9075C216.204 25.9075 149.881 22.1948 149.881 17.6171C149.881 13.0395 216.204 9.30566 298.011 9.30566C379.818 9.30566 446.141 13.0184 446.141 17.6171Z" fill="#BFBFBF"/>
<path opacity="0.53" d="M298.011 25.8443C379.11 25.8443 444.854 22.1514 444.854 17.5961C444.854 13.0407 379.11 9.3479 298.011 9.3479C216.912 9.3479 151.168 13.0407 151.168 17.5961C151.168 22.1514 216.912 25.8443 298.011 25.8443Z" fill="#BFBFBF"/>
<path opacity="0.54" d="M298.011 25.76C378.4 25.76 443.568 22.1049 443.568 17.5962C443.568 13.0874 378.4 9.43237 298.011 9.43237C217.623 9.43237 152.455 13.0874 152.455 17.5962C152.455 22.1049 217.623 25.76 298.011 25.76Z" fill="#BEBEBE"/>
<path opacity="0.54" d="M442.281 17.6174C442.281 22.0684 377.687 25.6968 298.011 25.6968C218.335 25.6968 153.721 22.0684 153.721 17.6174C153.721 13.1663 218.314 9.51685 298.011 9.51685C377.709 9.51685 442.281 13.1452 442.281 17.6174Z" fill="#BEBEBE"/>
<path opacity="0.55" d="M298.012 25.6124C376.99 25.6124 441.015 22.0234 441.015 17.5962C441.015 13.169 376.99 9.58008 298.012 9.58008C219.033 9.58008 155.008 13.169 155.008 17.5962C155.008 22.0234 219.033 25.6124 298.012 25.6124Z" fill="#BDBDBD"/>
<path opacity="0.55" d="M298.01 25.549C376.278 25.549 439.727 21.9884 439.727 17.5961C439.727 13.2039 376.278 9.64331 298.01 9.64331C219.742 9.64331 156.293 13.2039 156.293 17.5961C156.293 21.9884 219.742 25.549 298.01 25.549Z" fill="#BDBDBD"/>
<path opacity="0.56" d="M438.44 17.6173C438.44 21.9629 375.577 25.4858 298.01 25.4858C220.443 25.4858 157.559 21.9629 157.559 17.6173C157.559 13.2717 220.443 9.68555 298.01 9.68555C375.577 9.68555 438.44 13.2506 438.44 17.6173Z" fill="#BCBCBC"/>
<path opacity="0.56" d="M298.01 25.4014C374.868 25.4014 437.174 21.9069 437.174 17.5962C437.174 13.2855 374.868 9.79102 298.01 9.79102C221.152 9.79102 158.846 13.2855 158.846 17.5962C158.846 21.9069 221.152 25.4014 298.01 25.4014Z" fill="#BCBCBC"/>
<path opacity="0.57" d="M298.01 25.338C374.158 25.338 435.888 21.8719 435.888 17.5961C435.888 13.3204 374.158 9.85425 298.01 9.85425C221.863 9.85425 160.133 13.3204 160.133 17.5961C160.133 21.8719 221.863 25.338 298.01 25.338Z" fill="#BBBBBB"/>
<path opacity="0.57" d="M434.602 17.6171C434.602 21.8361 373.426 25.2747 298.011 25.2747C222.596 25.2747 161.42 21.8361 161.42 17.6171C161.42 13.3981 222.596 9.93848 298.011 9.93848C373.426 9.93848 434.602 13.377 434.602 17.6171Z" fill="#BBBBBB"/>
<path opacity="0.57" d="M433.315 17.6172C433.315 21.8362 372.73 25.1903 298.011 25.1903C223.292 25.1903 162.686 21.794 162.686 17.6172C162.686 13.4404 223.271 10.0229 298.011 10.0229C372.751 10.0229 433.315 13.4193 433.315 17.6172Z" fill="#BABABA"/>
<path opacity="0.58" d="M298.011 25.1059C372.038 25.1059 432.049 21.7436 432.049 17.596C432.049 13.4485 372.038 10.0862 298.011 10.0862C223.984 10.0862 163.973 13.4485 163.973 17.596C163.973 21.7436 223.984 25.1059 298.011 25.1059Z" fill="#B9B9B9"/>
<path opacity="0.58" d="M298.011 25.0428C371.328 25.0428 430.763 21.7089 430.763 17.5962C430.763 13.4836 371.328 10.1497 298.011 10.1497C224.695 10.1497 165.26 13.4836 165.26 17.5962C165.26 21.7089 224.695 25.0428 298.011 25.0428Z" fill="#B9B9B9"/>
<path opacity="0.59" d="M429.474 17.6172C429.474 21.6885 370.619 24.9793 298.01 24.9793C225.4 24.9793 166.545 21.6885 166.545 17.6172C166.545 13.5458 225.4 10.2339 298.01 10.2339C370.619 10.2339 429.474 13.5247 429.474 17.6172Z" fill="#B8B8B8"/>
<path opacity="0.59" d="M298.011 24.8949C369.918 24.8949 428.21 21.6271 428.21 17.596C428.21 13.5649 369.918 10.2971 298.011 10.2971C226.105 10.2971 167.812 13.5649 167.812 17.596C167.812 21.6271 226.105 24.8949 298.011 24.8949Z" fill="#B8B8B8"/>
<path opacity="0.6" d="M298.01 24.8318C369.206 24.8318 426.922 21.5923 426.922 17.5962C426.922 13.6001 369.206 10.3606 298.01 10.3606C226.814 10.3606 169.098 13.6001 169.098 17.5962C169.098 21.5923 226.814 24.8318 298.01 24.8318Z" fill="#B7B7B7"/>
<path opacity="0.6" d="M425.636 17.6172C425.636 21.562 368.489 24.7684 298.01 24.7684C227.531 24.7684 170.385 21.562 170.385 17.6172C170.385 13.6724 227.51 10.4448 298.01 10.4448C368.51 10.4448 425.636 13.6513 425.636 17.6172Z" fill="#B7B7B7"/>
<path opacity="0.61" d="M298.01 24.6842C367.785 24.6842 424.349 21.5108 424.349 17.5962C424.349 13.6817 367.785 10.5083 298.01 10.5083C228.236 10.5083 171.672 13.6817 171.672 17.5962C171.672 21.5108 228.236 24.6842 298.01 24.6842Z" fill="#B6B6B6"/>
<path opacity="0.61" d="M298.01 24.6209C367.086 24.6209 423.083 21.4758 423.083 17.5962C423.083 13.7166 367.086 10.5715 298.01 10.5715C228.935 10.5715 172.938 13.7166 172.938 17.5962C172.938 21.4758 228.935 24.6209 298.01 24.6209Z" fill="#B6B6B6"/>
<path opacity="0.62" d="M421.797 17.6172C421.797 21.4354 366.38 24.5574 298.011 24.5574C229.641 24.5574 174.225 21.4354 174.225 17.6172C174.225 13.799 229.641 10.6558 298.011 10.6558C366.38 10.6558 421.797 13.7779 421.797 17.6172Z" fill="#B5B5B5"/>
<path opacity="0.62" d="M298.011 24.4732C365.665 24.4732 420.51 21.3943 420.51 17.5962C420.51 13.7981 365.665 10.7192 298.011 10.7192C230.357 10.7192 175.512 13.7981 175.512 17.5962C175.512 21.3943 230.357 24.4732 298.011 24.4732Z" fill="#B5B5B5"/>
<path opacity="0.62" d="M298.011 24.3887C364.955 24.3887 419.224 21.3476 419.224 17.5961C419.224 13.8446 364.955 10.8035 298.011 10.8035C231.068 10.8035 176.799 13.8446 176.799 17.5961C176.799 21.3476 231.068 24.3887 298.011 24.3887Z" fill="#B4B4B4"/>
<path opacity="0.63" d="M417.958 17.6173C417.958 21.33 364.25 24.3466 298.011 24.3466C231.773 24.3466 178.064 21.33 178.064 17.6173C178.064 13.9045 231.773 10.8879 298.011 10.8879C364.25 10.8879 417.958 13.9045 417.958 17.6173Z" fill="#B4B4B4"/>
<path opacity="0.63" d="M416.671 17.6172C416.671 21.2878 363.533 24.2622 298.012 24.2622C232.49 24.2622 179.352 21.2878 179.352 17.6172C179.352 13.9467 232.469 10.9512 298.012 10.9512C363.554 10.9512 416.671 13.9045 416.671 17.6172Z" fill="#B3B3B3"/>
<path opacity="0.64" d="M298.01 24.1777C362.833 24.1777 415.383 21.231 415.383 17.5961C415.383 13.9611 362.833 11.0144 298.01 11.0144C233.186 11.0144 180.637 13.9611 180.637 17.5961C180.637 21.231 233.186 24.1777 298.01 24.1777Z" fill="#B2B2B2"/>
<path opacity="0.64" d="M298.01 24.1144C362.134 24.1144 414.117 21.196 414.117 17.596C414.117 13.996 362.134 11.0776 298.01 11.0776C233.885 11.0776 181.902 13.996 181.902 17.596C181.902 21.196 233.885 24.1144 298.01 24.1144Z" fill="#B2B2B2"/>
<path opacity="0.65" d="M412.831 17.6172C412.831 21.1612 361.422 24.0512 298.01 24.0512C234.598 24.0512 183.189 21.1612 183.189 17.6172C183.189 14.0732 234.598 11.1621 298.01 11.1621C361.422 11.1621 412.831 14.0521 412.831 17.6172Z" fill="#B1B1B1"/>
<path opacity="0.65" d="M298.01 23.9668C360.713 23.9668 411.544 21.1145 411.544 17.596C411.544 14.0776 360.713 11.2253 298.01 11.2253C235.307 11.2253 184.477 14.0776 184.477 17.596C184.477 21.1145 235.307 23.9668 298.01 23.9668Z" fill="#B1B1B1"/>
<path opacity="0.66" d="M298.011 23.9037C360.003 23.9037 410.258 21.0797 410.258 17.5962C410.258 14.1127 360.003 11.2888 298.011 11.2888C236.018 11.2888 185.764 14.1127 185.764 17.5962C185.764 21.0797 236.018 23.9037 298.011 23.9037Z" fill="#B0B0B0"/>
<path opacity="0.66" d="M408.971 17.6173C408.971 21.0559 359.292 23.8404 298.011 23.8404C236.729 23.8404 187.029 21.0559 187.029 17.6173C187.029 14.1788 236.708 11.2888 298.011 11.2888C359.313 11.2888 408.971 14.1788 408.971 17.6173Z" fill="#B0B0B0"/>
<path opacity="0.67" d="M298.011 23.7558C358.594 23.7558 407.706 20.998 407.706 17.596C407.706 14.1941 358.594 11.4363 298.011 11.4363C237.428 11.4363 188.316 14.1941 188.316 17.596C188.316 20.998 237.428 23.7558 298.011 23.7558Z" fill="#AFAFAF"/>
<path opacity="0.67" d="M298.011 23.6716C357.883 23.6716 406.419 20.9515 406.419 17.5962C406.419 14.2408 357.883 11.5208 298.011 11.5208C238.139 11.5208 189.604 14.2408 189.604 17.5962C189.604 20.9515 238.139 23.6716 298.011 23.6716Z" fill="#AFAFAF"/>
<path opacity="0.67" d="M405.132 17.6173C405.132 20.9293 357.183 23.6083 298.011 23.6083C238.839 23.6083 190.869 20.9293 190.869 17.6173C190.869 14.3054 238.839 11.6052 298.011 11.6052C357.183 11.6052 405.132 14.2843 405.132 17.6173Z" fill="#AEAEAE"/>
<path opacity="0.68" d="M298.011 23.5449C356.474 23.5449 403.867 20.8815 403.867 17.5961C403.867 14.3106 356.474 11.6472 298.011 11.6472C239.549 11.6472 192.156 14.3106 192.156 17.5961C192.156 20.8815 239.549 23.5449 298.011 23.5449Z" fill="#AEAEAE"/>
<path opacity="0.68" d="M298.01 23.4606C355.761 23.4606 402.578 20.835 402.578 17.5961C402.578 14.3573 355.761 11.7317 298.01 11.7317C240.258 11.7317 193.441 14.3573 193.441 17.5961C193.441 20.835 240.258 23.4606 298.01 23.4606Z" fill="#ADADAD"/>
<path opacity="0.69" d="M401.293 17.6173C401.293 20.8027 355.052 23.3974 297.927 23.3974C240.801 23.3974 194.561 20.8027 194.561 17.6173C194.561 14.432 240.822 11.8162 297.927 11.8162C355.031 11.8162 401.293 14.4109 401.293 17.6173Z" fill="#ACACAC"/>
<path opacity="0.69" d="M298.01 23.3129C354.352 23.3129 400.026 20.7534 400.026 17.5961C400.026 14.4389 354.352 11.8794 298.01 11.8794C241.668 11.8794 195.994 14.4389 195.994 17.5961C195.994 20.7534 241.668 23.3129 298.01 23.3129Z" fill="#ACACAC"/>
<path opacity="0.7" d="M298.01 23.2496C353.642 23.2496 398.74 20.7184 398.74 17.5961C398.74 14.4738 353.642 11.9426 298.01 11.9426C242.379 11.9426 197.281 14.4738 197.281 17.5961C197.281 20.7184 242.379 23.2496 298.01 23.2496Z" fill="#ABABAB"/>
<path opacity="0.7" d="M397.453 17.6174C397.453 20.6972 352.921 23.1864 298.011 23.1864C243.1 23.1864 198.568 20.6972 198.568 17.6174C198.568 14.5375 243.079 12.0271 298.011 12.0271C352.942 12.0271 397.453 14.5164 397.453 17.6174Z" fill="#ABABAB"/>
<path opacity="0.71" d="M396.166 17.6172C396.166 20.6549 352.225 23.123 298.011 23.123C243.796 23.123 199.834 20.6549 199.834 17.6172C199.834 14.5795 243.796 12.0903 298.011 12.0903C352.225 12.0903 396.166 14.5584 396.166 17.6172Z" fill="#AAAAAA"/>
<path opacity="0.71" d="M298.011 23.0386C351.522 23.0386 394.901 20.6019 394.901 17.5961C394.901 14.5902 351.522 12.1536 298.011 12.1536C244.5 12.1536 201.121 14.5902 201.121 17.5961C201.121 20.6019 244.5 23.0386 298.011 23.0386Z" fill="#AAAAAA"/>
<path opacity="0.71" d="M298.011 22.9544C350.811 22.9544 393.614 20.5554 393.614 17.5962C393.614 14.637 350.811 12.238 298.011 12.238C245.211 12.238 202.408 14.637 202.408 17.5962C202.408 20.5554 245.211 22.9544 298.011 22.9544Z" fill="#A9A9A9"/>
<path opacity="0.72" d="M392.328 17.6172C392.328 20.5283 350.138 22.8909 298.012 22.8909C245.886 22.8909 203.695 20.5283 203.695 17.6172C203.695 14.706 245.886 12.3223 298.012 12.3223C350.138 12.3223 392.328 14.6849 392.328 17.6172Z" fill="#A9A9A9"/>
<path opacity="0.72" d="M298.011 22.8067C349.402 22.8067 391.062 20.4739 391.062 17.5962C391.062 14.7186 349.402 12.3857 298.011 12.3857C246.621 12.3857 204.961 14.7186 204.961 17.5962C204.961 20.4739 246.621 22.8067 298.011 22.8067Z" fill="#A8A8A8"/>
<path opacity="0.73" d="M298.01 22.7434C348.69 22.7434 389.774 20.4389 389.774 17.5962C389.774 14.7535 348.69 12.449 298.01 12.449C247.33 12.449 206.246 14.7535 206.246 17.5962C206.246 20.4389 247.33 22.7434 298.01 22.7434Z" fill="#A8A8A8"/>
<path opacity="0.73" d="M388.488 17.6171C388.488 20.4017 347.986 22.6799 298.011 22.6799C248.037 22.6799 207.492 20.4017 207.492 17.6171C207.492 14.8326 247.995 12.5332 297.969 12.5332C347.943 12.5332 388.488 14.8115 388.488 17.6171Z" fill="#A7A7A7"/>
<path opacity="0.74" d="M298.01 22.5957C347.269 22.5957 387.201 20.3574 387.201 17.5962C387.201 14.835 347.269 12.5967 298.01 12.5967C248.752 12.5967 208.82 14.835 208.82 17.5962C208.82 20.3574 248.752 22.5957 298.01 22.5957Z" fill="#A6A6A6"/>
<path opacity="0.74" d="M298.01 22.5324C346.57 22.5324 385.935 20.3224 385.935 17.5962C385.935 14.8699 346.57 12.6599 298.01 12.6599C249.451 12.6599 210.086 14.8699 210.086 17.5962C210.086 20.3224 249.451 22.5324 298.01 22.5324Z" fill="#A6A6A6"/>
<path opacity="0.75" d="M384.691 17.6173C384.691 20.2964 345.897 22.4692 298.054 22.4692C250.21 22.4692 211.416 20.3597 211.416 17.6173C211.416 14.875 250.21 12.7444 298.054 12.7444C345.897 12.7444 384.691 14.9172 384.691 17.6173Z" fill="#A5A5A5"/>
<path opacity="0.75" d="M298.011 22.3848C345.149 22.3848 383.362 20.2408 383.362 17.5962C383.362 14.9515 345.149 12.8076 298.011 12.8076C250.873 12.8076 212.66 14.9515 212.66 17.5962C212.66 20.2408 250.873 22.3848 298.011 22.3848Z" fill="#A5A5A5"/>
<path opacity="0.76" d="M298.011 22.3215C344.439 22.3215 382.075 20.2058 382.075 17.5961C382.075 14.9864 344.439 12.8708 298.011 12.8708C251.584 12.8708 213.947 14.9864 213.947 17.5961C213.947 20.2058 251.584 22.3215 298.011 22.3215Z" fill="#A4A4A4"/>
<path opacity="0.76" d="M380.809 17.6171C380.809 20.1697 343.724 22.258 298.011 22.258C252.298 22.258 215.213 20.1486 215.213 17.6171C215.213 15.0857 252.277 12.9551 298.011 12.9551C343.745 12.9551 380.809 15.0435 380.809 17.6171Z" fill="#A4A4A4"/>
<path opacity="0.76" d="M379.523 17.6172C379.523 20.1275 343.028 22.1738 298.011 22.1738C252.995 22.1738 216.5 20.0642 216.5 17.6172C216.5 15.1702 252.995 13.0396 298.011 13.0396C343.028 13.0396 379.523 15.0858 379.523 17.6172Z" fill="#A3A3A3"/>
<path opacity="0.77" d="M298.01 22.0893C342.317 22.0893 378.235 20.0776 378.235 17.5961C378.235 15.1145 342.317 13.1028 298.01 13.1028C253.703 13.1028 217.785 15.1145 217.785 17.5961C217.785 20.0776 253.703 22.0893 298.01 22.0893Z" fill="#A3A3A3"/>
<path opacity="0.77" d="M298.01 22.026C341.618 22.026 376.969 20.0426 376.969 17.596C376.969 15.1494 341.618 13.166 298.01 13.166C254.402 13.166 219.051 15.1494 219.051 17.596C219.051 20.0426 254.402 22.026 298.01 22.026Z" fill="#A2A2A2"/>
<path opacity="0.78" d="M375.682 17.6172C375.682 20.022 340.896 21.9628 298.01 21.9628C255.124 21.9628 220.338 20.022 220.338 17.6172C220.338 15.2123 255.103 13.2505 298.01 13.2505C340.918 13.2505 375.682 15.1913 375.682 17.6172Z" fill="#A2A2A2"/>
<path opacity="0.78" d="M298.01 21.8783C340.197 21.8783 374.396 19.9611 374.396 17.596C374.396 15.231 340.197 13.3137 298.01 13.3137C255.824 13.3137 221.625 15.231 221.625 17.596C221.625 19.9611 255.824 21.8783 298.01 21.8783Z" fill="#A1A1A1"/>
<path opacity="0.79" d="M298.011 21.8152C339.486 21.8152 373.109 19.9263 373.109 17.5962C373.109 15.2661 339.486 13.3772 298.011 13.3772C256.535 13.3772 222.912 15.2661 222.912 17.5962C222.912 19.9263 256.535 21.8152 298.011 21.8152Z" fill="#A1A1A1"/>
<path opacity="0.79" d="M371.822 17.6172C371.822 19.8955 338.787 21.8362 297.989 21.8362C257.191 21.8362 224.156 19.9799 224.156 17.6172C224.156 15.2546 257.212 13.3982 297.989 13.3982C338.766 13.3982 371.822 15.3178 371.822 17.6172Z" fill="#A0A0A0"/>
<path opacity="0.8" d="M298.011 21.6676C338.077 21.6676 370.557 19.8448 370.557 17.5962C370.557 15.3477 338.077 13.5249 298.011 13.5249C257.945 13.5249 225.465 15.3477 225.465 17.5962C225.465 19.8448 257.945 21.6676 298.011 21.6676Z" fill="#9F9F9F"/>
<path opacity="0.8" d="M298.011 21.6042C337.367 21.6042 369.27 19.8098 369.27 17.5962C369.27 15.3826 337.367 13.5881 298.011 13.5881C258.656 13.5881 226.752 15.3826 226.752 17.5962C226.752 19.8098 258.656 21.6042 298.011 21.6042Z" fill="#9F9F9F"/>
<path opacity="0.81" d="M367.984 17.6171C367.984 19.7266 336.657 21.5408 298.011 21.5408C259.365 21.5408 228.018 19.7688 228.018 17.6171C228.018 15.4654 259.365 13.6724 298.011 13.6724C336.657 13.6724 367.984 15.4443 367.984 17.6171Z" fill="#9E9E9E"/>
<path opacity="0.81" d="M298.011 21.4567C335.957 21.4567 366.718 19.7283 366.718 17.5962C366.718 15.4642 335.957 13.7358 298.011 13.7358C260.066 13.7358 229.305 15.4642 229.305 17.5962C229.305 19.7283 260.066 21.4567 298.011 21.4567Z" fill="#9E9E9E"/>
<path opacity="0.81" d="M298.01 21.3722C335.245 21.3722 365.43 19.6816 365.43 17.5961C365.43 15.5107 335.245 13.8201 298.01 13.8201C260.775 13.8201 230.59 15.5107 230.59 17.5961C230.59 19.6816 260.775 21.3722 298.01 21.3722Z" fill="#9D9D9D"/>
<path opacity="0.82" d="M364.143 17.6173C364.143 19.7268 334.61 21.3089 298.01 21.3089C261.41 21.3089 231.855 19.6635 231.855 17.6173C231.855 15.5711 261.389 13.9045 298.01 13.9045C334.631 13.9045 364.143 15.55 364.143 17.6173Z" fill="#9D9D9D"/>
<path opacity="0.82" d="M362.856 17.6173C362.856 19.6213 333.83 21.2457 298.01 21.2457C262.191 21.2457 233.143 19.6213 233.143 17.6173C233.143 15.6133 262.191 13.9045 298.01 13.9045C333.83 13.9045 362.856 15.5922 362.856 17.6173Z" fill="#9C9C9C"/>
<path opacity="0.83" d="M298.01 21.1612C333.125 21.1612 361.591 19.565 361.591 17.5961C361.591 15.6271 333.125 14.031 298.01 14.031C262.896 14.031 234.43 15.6271 234.43 17.5961C234.43 19.565 262.896 21.1612 298.01 21.1612Z" fill="#9C9C9C"/>
<path opacity="0.83" d="M298.011 21.0978C332.415 21.0978 360.304 19.53 360.304 17.596C360.304 15.662 332.415 14.0942 298.011 14.0942C263.607 14.0942 235.717 15.662 235.717 17.596C235.717 19.53 263.607 21.0978 298.011 21.0978Z" fill="#9B9B9B"/>
<path opacity="0.84" d="M359.018 17.6172C359.018 19.4947 331.7 21.0346 298.011 21.0346C264.322 21.0346 237.025 19.4947 237.025 17.6172C237.025 15.7398 264.449 14.1787 298.054 14.1787C331.658 14.1787 359.018 15.7187 359.018 17.6172Z" fill="#9B9B9B"/>
<path opacity="0.84" d="M298.011 20.9502C331.005 20.9502 357.752 19.4485 357.752 17.5961C357.752 15.7436 331.005 14.2419 298.011 14.2419C265.017 14.2419 238.27 15.7436 238.27 17.5961C238.27 19.4485 265.017 20.9502 298.011 20.9502Z" fill="#9A9A9A"/>
<path opacity="0.85" d="M298.011 20.8659C330.295 20.8659 356.466 19.402 356.466 17.5961C356.466 15.7903 330.295 14.3264 298.011 14.3264C265.728 14.3264 239.557 15.7903 239.557 17.5961C239.557 19.402 265.728 20.8659 298.011 20.8659Z" fill="#999999"/>
<path opacity="0.85" d="M355.158 17.6172C355.158 19.3892 329.569 20.8236 297.99 20.8236C266.411 20.8236 240.822 19.3892 240.822 17.6172C240.822 15.8452 266.411 14.3896 297.99 14.3896C329.569 14.3896 355.158 15.8452 355.158 17.6172Z" fill="#999999"/>
<path opacity="0.86" d="M298.011 20.7392C328.885 20.7392 353.913 19.332 353.913 17.596C353.913 15.8601 328.885 14.4529 298.011 14.4529C267.138 14.4529 242.109 15.8601 242.109 17.596C242.109 19.332 267.138 20.7392 298.011 20.7392Z" fill="#989898"/>
<path opacity="0.86" d="M298.01 20.6549C328.173 20.6549 352.625 19.2854 352.625 17.5961C352.625 15.9068 328.173 14.5374 298.01 14.5374C267.847 14.5374 243.395 15.9068 243.395 17.5961C243.395 19.2854 267.847 20.6549 298.01 20.6549Z" fill="#989898"/>
<path opacity="0.86" d="M351.338 17.6171C351.338 19.2625 327.459 20.5915 298.01 20.5915C268.561 20.5915 244.682 19.2625 244.682 17.6171C244.682 15.9717 268.561 14.6216 298.01 14.6216C327.459 14.6216 351.338 16.0139 351.338 17.6171Z" fill="#979797"/>
<path opacity="0.87" d="M298.01 20.5073C326.752 20.5073 350.052 19.204 350.052 17.5962C350.052 15.9884 326.752 14.6851 298.01 14.6851C269.269 14.6851 245.969 15.9884 245.969 17.5962C245.969 19.204 269.269 20.5073 298.01 20.5073Z" fill="#979797"/>
<path opacity="0.87" d="M298.01 20.444C326.053 20.444 348.786 19.169 348.786 17.5961C348.786 16.0233 326.053 14.7483 298.01 14.7483C269.968 14.7483 247.234 16.0233 247.234 17.5961C247.234 19.169 269.968 20.444 298.01 20.444Z" fill="#969696"/>
<path opacity="0.88" d="M347.5 17.6173C347.5 19.1362 325.329 20.3808 298.011 20.3808C270.692 20.3808 248.521 19.1362 248.521 17.6173C248.521 16.0985 270.671 14.8328 298.011 14.8328C325.35 14.8328 347.5 16.0141 347.5 17.6173Z" fill="#969696"/>
<path opacity="0.88" d="M298.011 20.2963C324.632 20.2963 346.213 19.0874 346.213 17.5962C346.213 16.1049 324.632 14.896 298.011 14.896C271.39 14.896 249.809 16.1049 249.809 17.5962C249.809 19.0874 271.39 20.2963 298.011 20.2963Z" fill="#959595"/>
<path opacity="0.89" d="M298.011 20.233C323.922 20.233 344.927 19.0524 344.927 17.5961C344.927 16.1398 323.922 14.9592 298.011 14.9592C272.101 14.9592 251.096 16.1398 251.096 17.5961C251.096 19.0524 272.101 20.233 298.011 20.233Z" fill="#959595"/>
<path opacity="0.89" d="M343.661 17.6173C343.661 19.0307 323.22 20.1698 298.011 20.1698C272.802 20.1698 252.361 19.0307 252.361 17.6173C252.361 16.2039 272.802 15.0437 298.011 15.0437C323.22 15.0437 343.661 16.1828 343.661 17.6173Z" fill="#949494"/>
<path opacity="0.9" d="M342.373 17.6172C342.373 18.9884 322.501 20.1064 298.073 20.1064C273.645 20.1064 253.773 18.9884 253.773 17.6172C253.773 16.246 273.624 15.1279 298.073 15.1279C322.522 15.1279 342.373 16.2249 342.373 17.6172Z" fill="#939393"/>
<path opacity="0.9" d="M298.01 20.022C321.8 20.022 341.086 18.9359 341.086 17.5961C341.086 16.2563 321.8 15.1702 298.01 15.1702C274.219 15.1702 254.934 16.2563 254.934 17.5961C254.934 18.9359 274.219 20.022 298.01 20.022Z" fill="#939393"/>
<path opacity="0.9" d="M298.01 19.9378C321.101 19.9378 339.82 18.8894 339.82 17.5962C339.82 16.303 321.101 15.2546 298.01 15.2546C274.918 15.2546 256.199 16.303 256.199 17.5962C256.199 18.8894 274.918 19.9378 298.01 19.9378Z" fill="#929292"/>
<path opacity="0.91" d="M338.534 17.6172C338.534 18.8618 320.392 19.8743 298.01 19.8743C275.628 19.8743 257.486 18.8618 257.486 17.6172C257.486 16.3726 275.628 15.3389 298.01 15.3389C320.392 15.3389 338.534 16.3515 338.534 17.6172Z" fill="#929292"/>
<path opacity="0.91" d="M298.01 19.7899C319.68 19.7899 337.247 18.8077 337.247 17.596C337.247 16.3844 319.68 15.4021 298.01 15.4021C276.34 15.4021 258.773 16.3844 258.773 17.596C258.773 18.8077 276.34 19.7899 298.01 19.7899Z" fill="#919191"/>
<path opacity="0.92" d="M298.011 19.7268C318.97 19.7268 335.961 18.7728 335.961 17.5961C335.961 16.4194 318.97 15.4656 298.011 15.4656C277.051 15.4656 260.061 16.4194 260.061 17.5961C260.061 18.7728 277.051 19.7268 298.011 19.7268Z" fill="#919191"/>
<path opacity="0.92" d="M334.674 17.6173C334.674 18.7354 318.262 19.7268 298.011 19.7268C277.759 19.7268 261.326 18.7986 261.326 17.6173C261.326 16.436 277.759 15.5078 298.011 15.5078C318.262 15.5078 334.674 16.4782 334.674 17.6173Z" fill="#909090"/>
<path opacity="0.93" d="M298.011 19.5792C317.56 19.5792 333.408 18.6914 333.408 17.5962C333.408 16.5011 317.56 15.6133 298.011 15.6133C278.461 15.6133 262.613 16.5011 262.613 17.5962C262.613 18.6914 278.461 19.5792 298.011 19.5792Z" fill="#909090"/>
<path opacity="0.93" d="M298.011 19.5158C316.85 19.5158 332.122 18.6564 332.122 17.5962C332.122 16.536 316.85 15.6765 298.011 15.6765C279.172 15.6765 263.9 16.536 263.9 17.5962C263.9 18.6564 279.172 19.5158 298.011 19.5158Z" fill="#8F8F8F"/>
<path opacity="0.94" d="M330.835 17.6171C330.835 18.6297 316.069 19.4524 298.011 19.4524C279.954 19.4524 265.166 18.6297 265.166 17.6171C265.166 16.6046 279.933 15.7607 298.011 15.7607C316.09 15.7607 330.835 16.5835 330.835 17.6171Z" fill="#8F8F8F"/>
<path opacity="0.94" d="M298.011 19.3682C315.441 19.3682 329.57 18.5748 329.57 17.5962C329.57 16.6176 315.441 15.8242 298.011 15.8242C280.582 15.8242 266.453 16.6176 266.453 17.5962C266.453 18.5748 280.582 19.3682 298.011 19.3682Z" fill="#8E8E8E"/>
<path opacity="0.95" d="M298.01 19.3048C314.728 19.3048 328.281 18.5398 328.281 17.5961C328.281 16.6525 314.728 15.8875 298.01 15.8875C281.291 15.8875 267.738 16.6525 267.738 17.5961C267.738 18.5398 281.291 19.3048 298.01 19.3048Z" fill="#8E8E8E"/>
<path opacity="0.95" d="M326.994 17.6173C326.994 18.5033 314.021 19.2416 298.01 19.2416C281.998 19.2416 269.004 18.5033 269.004 17.6173C269.004 16.7313 281.998 15.9719 298.01 15.9719C314.021 15.9719 326.994 16.7102 326.994 17.6173Z" fill="#8D8D8D"/>
<path opacity="0.95" d="M325.624 17.6172C325.624 18.461 313.22 19.1571 297.926 19.1571C282.632 19.1571 270.207 18.461 270.207 17.6172C270.207 16.7734 282.611 16.0562 297.926 16.0562C313.241 16.0562 325.624 16.7523 325.624 17.6172Z" fill="#8C8C8C"/>
<path opacity="0.96" d="M298.01 19.0727C312.608 19.0727 324.442 18.4115 324.442 17.596C324.442 16.7805 312.608 16.1194 298.01 16.1194C283.412 16.1194 271.578 16.7805 271.578 17.596C271.578 18.4115 283.412 19.0727 298.01 19.0727Z" fill="#8C8C8C"/>
<path opacity="0.96" d="M298.011 19.0096C311.898 19.0096 323.156 18.3768 323.156 17.5962C323.156 16.8156 311.898 16.1829 298.011 16.1829C284.123 16.1829 272.865 16.8156 272.865 17.5962C272.865 18.3768 284.123 19.0096 298.011 19.0096Z" fill="#8B8B8B"/>
<path opacity="0.97" d="M321.869 17.6172C321.869 18.3555 311.195 18.9462 298.011 18.9462C284.826 18.9462 274.131 18.3555 274.131 17.6172C274.131 16.8789 284.826 16.2671 298.011 16.2671C311.195 16.2671 321.869 16.8578 321.869 17.6172Z" fill="#8B8B8B"/>
<path opacity="0.97" d="M298.011 18.8618C310.489 18.8618 320.604 18.2951 320.604 17.596C320.604 16.897 310.489 16.3303 298.011 16.3303C285.533 16.3303 275.418 16.897 275.418 17.596C275.418 18.2951 285.533 18.8618 298.011 18.8618Z" fill="#8A8A8A"/>
<path opacity="0.98" d="M298.011 18.7987C309.778 18.7987 319.317 18.2603 319.317 17.5962C319.317 16.9322 309.778 16.3938 298.011 16.3938C286.244 16.3938 276.705 16.9322 276.705 17.5962C276.705 18.2603 286.244 18.7987 298.011 18.7987Z" fill="#8A8A8A"/>
<path opacity="0.98" d="M318.031 17.6172C318.031 18.2289 309.065 18.7352 298.011 18.7352C286.958 18.7352 277.992 18.2289 277.992 17.6172C277.992 17.0054 286.958 16.478 298.011 16.478C309.065 16.478 318.031 16.9843 318.031 17.6172Z" fill="#898989"/>
<path opacity="0.99" d="M298.01 18.6508C308.355 18.6508 316.742 18.1785 316.742 17.596C316.742 17.0135 308.355 16.5413 298.01 16.5413C287.664 16.5413 279.277 17.0135 279.277 17.596C279.277 18.1785 287.664 18.6508 298.01 18.6508Z" fill="#898989"/>
<path opacity="0.99" d="M298.01 18.5664C307.656 18.5664 315.476 18.132 315.476 17.5961C315.476 17.0602 307.656 16.6257 298.01 16.6257C288.363 16.6257 280.543 17.0602 280.543 17.5961C280.543 18.132 288.363 18.5664 298.01 18.5664Z" fill="#888888"/>
<path d="M314.19 17.6173C314.19 18.1025 306.933 18.5244 298.01 18.5244C289.087 18.5244 281.83 18.1025 281.83 17.6173C281.83 17.1322 289.066 16.7102 298.01 16.7102C306.954 16.7102 314.19 17.1111 314.19 17.6173Z" fill="#888888"/>
<path d="M298.01 18.44C306.236 18.44 312.903 18.0623 312.903 17.5962C312.903 17.1302 306.236 16.7524 298.01 16.7524C289.785 16.7524 283.117 17.1302 283.117 17.5962C283.117 18.0623 289.785 18.44 298.01 18.44Z" fill="#878787"/>
</g>
</svg>
