<svg width="31" height="30" viewBox="0 0 31 30" fill="none" xmlns="http://www.w3.org/2000/svg">
<g id="Iconsax/Linear/briefcase">
<path id="Vector" d="M10.3334 7.5V6.5C10.3334 4.2875 10.3334 2.5 14.4667 2.5H16.5334C20.6667 2.5 20.6667 4.2875 20.6667 6.5V7.5M10.3334 27.5H20.6667C25.8592 27.5 26.7892 25.4875 27.0605 23.0375L28.0292 13.0375C28.378 9.9875 27.4738 7.5 21.9584 7.5H9.04173C3.52631 7.5 2.62214 9.9875 2.97089 13.0375L3.93964 23.0375C4.21089 25.4875 5.14089 27.5 10.3334 27.5Z" stroke="#7042EF" stroke-width="1.5" stroke-miterlimit="10" stroke-linecap="round" stroke-linejoin="round"/>
<path id="Vector_2" d="M18.083 17.525V16.25C18.083 15 18.083 15 16.7913 15H14.208C12.9163 15 12.9163 15 12.9163 16.25V17.5375M18.083 17.525C18.083 18.8875 18.07 20 15.4996 20C12.9421 20 12.9163 18.9 12.9163 17.5375M18.083 17.525C21.6534 17.0948 25.053 15.7961 27.9642 13.75M12.9163 17.5375C9.57087 17.175 6.29004 16.0125 3.38379 14.0875" stroke="#7042EF" stroke-width="1.5" stroke-miterlimit="10" stroke-linecap="round" stroke-linejoin="round"/>
</g>
</svg>
