<svg xmlns="http://www.w3.org/2000/svg" viewBox="0 0 50.13 50.15"><g id="Capa_2" data-name="Capa 2"><g id="Capa_1-2" data-name="Capa 1"><path d="M0,47.34a3,3,0,0,1,1-2.12L8,38.15q6.35-6.34,12.7-12.69c.33-.32.3-.48,0-.78L1,4.94A2.8,2.8,0,0,1,1.28.45,2.76,2.76,0,0,1,4.82.89C6.26,2.3,7.67,3.73,9.1,5.16L24.66,20.72c.4.4.4.4.8,0L45.2,1A2.8,2.8,0,0,1,49.15.68a2.77,2.77,0,0,1,.15,4.09c-1,1-2,2-3,3.05L29.41,24.68c-.4.39-.4.39,0,.79q9.84,9.84,19.68,19.68a3,3,0,0,1,1,2.18,2.66,2.66,0,0,1-1.57,2.51,2.62,2.62,0,0,1-3-.34,11.64,11.64,0,0,1-.88-.84Q35.07,39,25.46,29.4c-.31-.31-.47-.32-.79,0Q14.83,39.27,5,49.12a3,3,0,0,1-2.18,1A2.79,2.79,0,0,1,0,47.34Z"/></g></g></svg>