<svg xmlns="http://www.w3.org/2000/svg" viewBox="0 0 67.72 84.78"><defs><style>.cls-1{fill:#fff;}</style></defs><g id="Capa_2" data-name="Capa 2"><g id="Capa_1-2" data-name="Capa 1"><path class="cls-1" d="M44.71,52.63a19.57,19.57,0,0,0-7.55-.1.86.86,0,0,1-1-.4c-1.5-2.39-3-4.75-4.53-7.15a1.39,1.39,0,0,1-.06-1.06c.59-1.59,1.35-3.12,1.83-4.74a6.81,6.81,0,0,0-.83-6.42,3.84,3.84,0,0,0-5.37-.9c-2,1.35-2.43,3.32-2.07,5.55A20.1,20.1,0,0,0,27.69,44a1.09,1.09,0,0,1,0,1.32q-3.42,5.09-6.78,10.21a2.91,2.91,0,0,1-2,1.31,41.44,41.44,0,0,0-5.27,1.56,5.38,5.38,0,0,0-3.37,3.7,4,4,0,0,0,4.32,5.29,5.1,5.1,0,0,0,3.88-2.48c1.17-1.73,2.12-3.61,3.21-5.41a1.67,1.67,0,0,1,.92-.74c4-1,8.06-1.87,12.08-2.85a1.23,1.23,0,0,1,1.44.52,32.72,32.72,0,0,0,2.43,2.7,8.84,8.84,0,0,0,3.82,2.42c3.24.91,6.27-1.14,6.24-4.24A4.75,4.75,0,0,0,44.71,52.63ZM15.38,64A1.35,1.35,0,0,1,13,62.69a2.31,2.31,0,0,1,1-1.23c1.1-.5,2.28-.82,3.42-1.21l.16.27C16.85,61.68,16.15,62.86,15.38,64ZM27.8,36.18c0-1.21.63-2.17,1.47-2.25a1.8,1.8,0,0,1,1.67,2,12,12,0,0,1-.44,3.19,14.44,14.44,0,0,1-.95,2.24C28.74,39.51,27.81,38,27.8,36.18ZM24.49,55.31c1.8-2.79,3.48-5.4,5.23-8.1l3.78,5.91ZM45.7,58a2.37,2.37,0,0,1-2.92.68,9.12,9.12,0,0,1-1.49-1.15c-.77-.68-1.52-1.39-2.28-2.08l.22-.33a10.67,10.67,0,0,1,5.54.5A1.76,1.76,0,0,1,45.7,58Z"/><path class="cls-1" d="M58.72,61.16q0-7.75,0-15.51,0-10.55,0-21.1A2.49,2.49,0,0,0,58,22.6Q46.86,11.74,35.75.84A2.68,2.68,0,0,0,33.69,0C26.28,0,18.87,0,11.47,0A16.49,16.49,0,0,0,9.14.19a10.73,10.73,0,0,0-9,9.59C-.07,13.52,0,17.28,0,21Q0,43.64,0,66.25A11,11,0,0,0,11.34,77.53q16.68,0,33.35,0a12,12,0,1,0,14-16.36ZM32.66,13.45c.72-3,1.51-5.95,2.27-8.93a3.23,3.23,0,0,1,.19-.39L52.9,21.51l-.09.19c-1.34-.2-2.69-.39-4-.61l-12.33-2A4.44,4.44,0,0,1,32.66,13.45ZM43.88,74.74q-16.43.06-32.84,0c-4.76,0-8.25-3.65-8.26-8.56q0-19,0-38c0-5.53.09-11.07,0-16.6a8.46,8.46,0,0,1,8.88-8.87c6.6.12,13.2,0,19.8,0h1.07c-.85,3.35-1.68,6.58-2.49,9.81a7.32,7.32,0,0,0,6.23,9.25c6.37,1,12.72,2.07,19.08,3.1.54.08.62.37.61.83,0,1.81,0,3.63,0,5.45q0,14.79,0,29.57h-.22a12,12,0,0,0-12,12A11.52,11.52,0,0,0,43.88,74.74Zm11.84,8a10,10,0,0,1-8.8-5.26,9.84,9.84,0,0,1-1-2.78,10.51,10.51,0,0,1-.19-2,10,10,0,0,1,10-10h.22a9.68,9.68,0,0,1,2.77.46,10,10,0,0,1-3,19.54Z"/><path class="cls-1" d="M61.72,72.36a1,1,0,0,1-1,1h-4v4a1,1,0,0,1-2,0v-4H50.61a1,1,0,0,1,0-2h4.06v-4a1,1,0,0,1,2,0v4h4A1,1,0,0,1,61.72,72.36Z"/></g></g></svg>